SeanSans-WideExtralight.ufo
<glyph name="exclam" format="1">
  <advance width="246"/>
  <unicode hex="0021"/>
  <outline>
    <contour>
      <point x="140" y="229" type="line"/>
      <point x="147" y="722" type="line"/>
      <point x="96" y="722" type="line"/>
      <point x="102" y="229" type="line"/>
    </contour>
    <contour>
      <point x="153" y="20" type="curve"/>
      <point x="153" y="37"/>
      <point x="141" y="46"/>
      <point x="122" y="46" type="curve"/>
      <point x="105" y="46"/>
      <point x="94" y="36"/>
      <point x="94" y="20" type="curve"/>
      <point x="135" y="20"/>
      <point x="112" y="20"/>
      <point x="153" y="20" type="curve"/>
      <point x="153" y="3"/>
      <point x="141" y="-6"/>
      <point x="122" y="-6" type="curve"/>
      <point x="105" y="-6"/>
      <point x="94" y="3"/>
      <point x="94" y="20" type="curve"/>
      <point x="135" y="20"/>
      <point x="112" y="20"/>
    </contour>
  </outline>
</glyph>
<glyph name="numbersign" format="1">
  <advance width="821"/>
  <unicode hex="0023"/>
  <outline>
    <contour>
      <point x="44" y="242" type="curve"/>
      <point x="670" y="242" type="curve"/>
      <point x="683" y="278" type="curve"/>
      <point x="58" y="278" type="curve"/>
    </contour>
    <contour>
      <point x="136" y="482" type="curve"/>
      <point x="763" y="482" type="curve"/>
      <point x="776" y="517" type="curve"/>
      <point x="149" y="517" type="curve"/>
    </contour>
    <contour>
      <point x="485" y="39" type="curve"/>
      <point x="761" y="722" type="curve"/>
      <point x="718" y="722" type="curve"/>
      <point x="440" y="39" type="curve"/>
    </contour>
    <contour>
      <point x="131" y="46" type="curve"/>
      <point x="403" y="722" type="curve"/>
      <point x="360" y="722" type="curve"/>
      <point x="89" y="46" type="curve"/>
    </contour>
  </outline>
</glyph>
<glyph name="dollar" format="1">
  <advance width="657"/>
  <unicode hex="0024"/>
  <outline>
    <contour>
      <point x="327" y="-42" type="curve"/>
      <point x="327" y="-9"/>
      <point x="327" y="32"/>
      <point x="327" y="65" type="curve"/>
      <point x="283" y="65"/>
      <point x="327" y="65"/>
      <point x="283" y="65" type="curve"/>
      <point x="283" y="32"/>
      <point x="283" y="-9"/>
      <point x="283" y="-42" type="curve"/>
      <point x="327" y="-42"/>
      <point x="283" y="-42"/>
    </contour>
    <contour>
      <point x="343" y="665" type="curve"/>
      <point x="343" y="698"/>
      <point x="343" y="740"/>
      <point x="343" y="773" type="curve"/>
      <point x="299" y="773"/>
      <point x="343" y="773"/>
      <point x="299" y="773" type="curve"/>
      <point x="299" y="740"/>
      <point x="299" y="698"/>
      <point x="299" y="665" type="curve"/>
      <point x="343" y="665"/>
      <point x="299" y="665"/>
    </contour>
    <contour>
      <point x="52" y="98" type="curve"/>
      <point x="123" y="70"/>
      <point x="208" y="47"/>
      <point x="303" y="47" type="curve"/>
      <point x="463" y="47"/>
      <point x="602" y="77"/>
      <point x="602" y="202" type="curve"/>
      <point x="602" y="321"/>
      <point x="468" y="347"/>
      <point x="337" y="391" type="curve"/>
      <point x="225" y="428"/>
      <point x="124" y="448"/>
      <point x="124" y="539" type="curve"/>
      <point x="124" y="623"/>
      <point x="217" y="649"/>
      <point x="326" y="649" type="curve"/>
      <point x="414" y="649"/>
      <point x="477" y="634"/>
      <point x="557" y="602" type="curve"/>
      <point x="578" y="632"/>
      <point x="557" y="602"/>
      <point x="578" y="632" type="curve"/>
      <point x="492" y="666"/>
      <point x="424" y="684"/>
      <point x="329" y="684" type="curve"/>
      <point x="191" y="684"/>
      <point x="80" y="648"/>
      <point x="80" y="539" type="curve"/>
      <point x="80" y="427"/>
      <point x="188" y="399"/>
      <point x="311" y="359" type="curve"/>
      <point x="430" y="321"/>
      <point x="558" y="298"/>
      <point x="558" y="200" type="curve"/>
      <point x="558" y="106"/>
      <point x="441" y="82"/>
      <point x="308" y="82" type="curve"/>
      <point x="219" y="82"/>
      <point x="141" y="105"/>
      <point x="73" y="130" type="curve"/>
      <point x="52" y="98"/>
      <point x="73" y="130"/>
    </contour>
  </outline>
</glyph>
<glyph name="ampersand" format="1">
  <advance width="818"/>
  <unicode hex="0026"/>
  <outline>
    <contour>
      <point x="803" y="21" type="line"/>
      <point x="660" y="132"/>
      <point x="523" y="241"/>
      <point x="380" y="353" type="curve"/>
      <point x="300" y="421"/>
      <point x="199" y="465"/>
      <point x="199" y="573" type="curve"/>
      <point x="199" y="648"/>
      <point x="260" y="691"/>
      <point x="341" y="691" type="curve"/>
      <point x="429" y="691"/>
      <point x="500" y="655"/>
      <point x="500" y="575" type="curve"/>
      <point x="500" y="469"/>
      <point x="402" y="436"/>
      <point x="301" y="392" type="curve"/>
      <point x="184" y="339"/>
      <point x="68" y="304"/>
      <point x="68" y="181" type="curve"/>
      <point x="68" y="50"/>
      <point x="188" y="-5"/>
      <point x="334" y="-5" type="curve"/>
      <point x="545" y="-5"/>
      <point x="683" y="118"/>
      <point x="763" y="317" type="curve"/>
      <point x="726" y="326"/>
      <point x="763" y="317"/>
      <point x="726" y="326" type="curve"/>
      <point x="652" y="144"/>
      <point x="527" y="30"/>
      <point x="336" y="30" type="curve"/>
      <point x="213" y="30"/>
      <point x="111" y="71"/>
      <point x="111" y="181" type="curve"/>
      <point x="111" y="290"/>
      <point x="215" y="318"/>
      <point x="319" y="364" type="curve"/>
      <point x="433" y="415"/>
      <point x="542" y="454"/>
      <point x="543" y="575" type="curve"/>
      <point x="543" y="678"/>
      <point x="454" y="726"/>
      <point x="343" y="726" type="curve"/>
      <point x="236" y="726"/>
      <point x="156" y="672"/>
      <point x="156" y="573" type="curve"/>
      <point x="156" y="457"/>
      <point x="261" y="404"/>
      <point x="350" y="332" type="curve"/>
      <point x="489" y="222"/>
      <point x="641" y="103"/>
      <point x="780" y="-6" type="curve"/>
    </contour>
  </outline>
</glyph>
<glyph name="parenright" format="1">
  <advance width="419"/>
  <unicode hex="0029"/>
  <outline>
    <contour>
      <point x="27" y="-271" type="curve"/>
      <point x="237" y="-103"/>
      <point x="361" y="59"/>
      <point x="361" y="327" type="curve"/>
      <point x="361" y="590"/>
      <point x="244" y="751"/>
      <point x="32" y="908" type="curve"/>
      <point x="6" y="882"/>
      <point x="32" y="908"/>
      <point x="6" y="882" type="curve"/>
      <point x="205" y="729"/>
      <point x="316" y="576"/>
      <point x="316" y="326" type="curve"/>
      <point x="316" y="71"/>
      <point x="195" y="-83"/>
      <point x="1" y="-248" type="curve"/>
      <point x="27" y="-271"/>
      <point x="1" y="-248"/>
    </contour>
  </outline>
</glyph>
<glyph name="asterisk" format="1">
  <advance width="660"/>
  <unicode hex="002A"/>
  <outline>
    <contour>
      <point x="343" y="605" type="line"/>
      <point x="347" y="800" type="line"/>
      <point x="303" y="800" type="line"/>
      <point x="307" y="605" type="line"/>
    </contour>
    <contour>
      <point x="399" y="549" type="line"/>
      <point x="585" y="606" type="line"/>
      <point x="572" y="648" type="line"/>
      <point x="388" y="583" type="line"/>
    </contour>
    <contour>
      <point x="363" y="478" type="line"/>
      <point x="476" y="320" type="line"/>
      <point x="511" y="347" type="line"/>
      <point x="391" y="500" type="line"/>
    </contour>
    <contour>
      <point x="284" y="493" type="line"/>
      <point x="164" y="338" type="line"/>
      <point x="200" y="312" type="line"/>
      <point x="313" y="470" type="line"/>
    </contour>
    <contour>
      <point x="272" y="570" type="line"/>
      <point x="89" y="635" type="line"/>
      <point x="74" y="593" type="line"/>
      <point x="261" y="536" type="line"/>
    </contour>
  </outline>
</glyph>
<glyph name="plus" format="1">
  <advance width="700"/>
  <unicode hex="002B"/>
  <outline>
    <contour>
      <point x="46" y="290" type="curve"/>
      <point x="654" y="290" type="line"/>
      <point x="654" y="329"/>
      <point x="654" y="290"/>
      <point x="654" y="329" type="curve"/>
      <point x="46" y="329" type="line"/>
      <point x="46" y="290"/>
      <point x="46" y="329"/>
    </contour>
    <contour>
      <point x="368" y="19" type="curve"/>
      <point x="368" y="588" type="line"/>
      <point x="324" y="588"/>
      <point x="369" y="588"/>
      <point x="325" y="588" type="curve"/>
      <point x="325" y="19" type="line"/>
      <point x="369" y="19"/>
      <point x="324" y="19"/>
    </contour>
  </outline>
</glyph>
<glyph name="comma" format="1">
  <advance width="150"/>
  <unicode hex="002C"/>
  <outline>
    <contour>
      <point x="29" y="-120" type="line"/>
      <point x="73" y="-98"/>
      <point x="110" y="-58"/>
      <point x="110" y="4" type="curve"/>
      <point x="110" y="34"/>
      <point x="100" y="58"/>
      <point x="74" y="58" type="curve"/>
      <point x="55" y="58"/>
      <point x="44" y="49"/>
      <point x="44" y="32" type="curve"/>
      <point x="44" y="16"/>
      <point x="53" y="7"/>
      <point x="70" y="3" type="curve"/>
      <point x="70" y="-26"/>
      <point x="57" y="-68"/>
      <point x="16" y="-92" type="curve"/>
    </contour>
  </outline>
</glyph>
<glyph name="period" format="1">
  <advance width="199"/>
  <unicode hex="002E"/>
  <outline>
    <contour>
      <point x="130" y="20" type="curve"/>
      <point x="130" y="37"/>
      <point x="117" y="46"/>
      <point x="99" y="46" type="curve"/>
      <point x="82" y="46"/>
      <point x="70" y="36"/>
      <point x="70" y="20" type="curve"/>
      <point x="111" y="20"/>
      <point x="89" y="20"/>
      <point x="130" y="20" type="curve"/>
      <point x="130" y="3"/>
      <point x="117" y="-6"/>
      <point x="99" y="-6" type="curve"/>
      <point x="82" y="-6"/>
      <point x="70" y="3"/>
      <point x="70" y="20" type="curve"/>
      <point x="111" y="20"/>
      <point x="89" y="20"/>
    </contour>
  </outline>
</glyph>
<glyph name="slash" format="1">
  <advance width="645"/>
  <unicode hex="002F"/>
  <outline>
    <contour>
      <point x="72" y="-59" type="curve"/>
      <point x="254" y="238"/>
      <point x="436" y="536"/>
      <point x="617" y="833" type="curve"/>
      <point x="573" y="833"/>
      <point x="617" y="833"/>
      <point x="573" y="833" type="curve"/>
      <point x="392" y="536"/>
      <point x="210" y="238"/>
      <point x="28" y="-59" type="curve"/>
      <point x="72" y="-59"/>
      <point x="28" y="-59"/>
    </contour>
  </outline>
</glyph>
<glyph name="zero" format="1">
  <advance width="864"/>
  <unicode hex="0030"/>
  <outline>
    <contour>
      <point x="115" y="360" type="curve"/>
      <point x="115" y="565"/>
      <point x="231" y="689"/>
      <point x="433" y="689" type="curve"/>
      <point x="634" y="689"/>
      <point x="751" y="564"/>
      <point x="751" y="362" type="curve"/>
      <point x="751" y="159"/>
      <point x="635" y="34"/>
      <point x="437" y="34" type="curve"/>
      <point x="235" y="34"/>
      <point x="115" y="156"/>
      <point x="115" y="360" type="curve"/>
      <point x="71" y="360"/>
      <point x="113" y="360"/>
      <point x="70" y="360" type="curve"/>
      <point x="70" y="131"/>
      <point x="207" y="-5"/>
      <point x="436" y="-5" type="curve"/>
      <point x="662" y="-5"/>
      <point x="795" y="134"/>
      <point x="795" y="363" type="curve"/>
      <point x="795" y="590"/>
      <point x="662" y="727"/>
      <point x="436" y="727" type="curve"/>
      <point x="207" y="727"/>
      <point x="70" y="590"/>
      <point x="70" y="360" type="curve"/>
      <point x="113" y="360"/>
      <point x="71" y="360"/>
    </contour>
  </outline>
</glyph>
<glyph name="one" format="1">
  <advance width="418"/>
  <unicode hex="0031"/>
  <outline>
    <contour>
      <point x="47" y="521" type="curve"/>
      <point x="313" y="697"/>
      <point x="47" y="521"/>
      <point x="313" y="697" type="curve"/>
      <point x="279" y="722"/>
      <point x="313" y="697"/>
      <point x="279" y="722" type="curve"/>
      <point x="25" y="553"/>
      <point x="279" y="722"/>
      <point x="25" y="553" type="curve"/>
      <point x="47" y="521"/>
      <point x="25" y="553"/>
    </contour>
    <contour>
      <point x="322" y="0" type="curve"/>
      <point x="322" y="241"/>
      <point x="322" y="481"/>
      <point x="322" y="722" type="curve"/>
      <point x="279" y="722"/>
      <point x="322" y="722"/>
      <point x="279" y="722" type="curve"/>
      <point x="279" y="481"/>
      <point x="279" y="241"/>
      <point x="279" y="0" type="curve"/>
      <point x="322" y="0"/>
      <point x="279" y="0"/>
    </contour>
  </outline>
</glyph>
<glyph name="two" format="1">
  <advance width="686"/>
  <unicode hex="0032"/>
  <outline>
    <contour>
      <point x="44" y="0" type="curve"/>
      <point x="251" y="0"/>
      <point x="433" y="0"/>
      <point x="628" y="0" type="curve"/>
      <point x="628" y="36"/>
      <point x="628" y="0"/>
      <point x="628" y="36" type="curve"/>
      <point x="425" y="36"/>
      <point x="246" y="36"/>
      <point x="44" y="36" type="curve"/>
      <point x="44" y="0"/>
      <point x="44" y="36"/>
    </contour>
    <contour>
      <point x="101" y="554" type="curve"/>
      <point x="165" y="642"/>
      <point x="234" y="688"/>
      <point x="340" y="688" type="curve"/>
      <point x="460" y="688"/>
      <point x="546" y="639"/>
      <point x="546" y="522" type="curve"/>
      <point x="546" y="393"/>
      <point x="448" y="322"/>
      <point x="334" y="245" type="curve"/>
      <point x="237" y="175"/>
      <point x="140" y="105"/>
      <point x="44" y="36" type="curve"/>
      <point x="54" y="0"/>
      <point x="44" y="36"/>
      <point x="54" y="0" type="curve"/>
      <point x="164" y="72"/>
      <point x="263" y="145"/>
      <point x="362" y="217" type="curve"/>
      <point x="486" y="299"/>
      <point x="588" y="372"/>
      <point x="588" y="524" type="curve"/>
      <point x="588" y="663"/>
      <point x="488" y="727"/>
      <point x="342" y="727" type="curve"/>
      <point x="221" y="727"/>
      <point x="132" y="675"/>
      <point x="69" y="576" type="curve"/>
      <point x="101" y="554"/>
      <point x="69" y="576"/>
    </contour>
  </outline>
</glyph>
<glyph name="three" format="1">
  <advance width="651"/>
  <unicode hex="0033"/>
  <outline>
    <contour>
      <point x="55" y="56" type="curve"/>
      <point x="132" y="16"/>
      <point x="201" y="-5"/>
      <point x="293" y="-5" type="curve"/>
      <point x="460" y="-5"/>
      <point x="584" y="42"/>
      <point x="584" y="199" type="curve"/>
      <point x="584" y="344"/>
      <point x="411" y="394"/>
      <point x="178" y="394" type="curve"/>
      <point x="178" y="364"/>
      <point x="178" y="393"/>
      <point x="178" y="363" type="curve"/>
      <point x="358" y="363"/>
      <point x="542" y="324"/>
      <point x="542" y="198" type="curve"/>
      <point x="542" y="65"/>
      <point x="419" y="35"/>
      <point x="294" y="35" type="curve"/>
      <point x="215" y="35"/>
      <point x="157" y="52"/>
      <point x="76" y="88" type="curve"/>
      <point x="55" y="56"/>
      <point x="76" y="88"/>
    </contour>
    <contour>
      <point x="88" y="615" type="curve"/>
      <point x="136" y="657"/>
      <point x="208" y="687"/>
      <point x="288" y="687" type="curve"/>
      <point x="408" y="687"/>
      <point x="499" y="656"/>
      <point x="499" y="551" type="curve"/>
      <point x="499" y="442"/>
      <point x="342" y="399"/>
      <point x="178" y="399" type="curve"/>
      <point x="178" y="370"/>
      <point x="178" y="398"/>
      <point x="178" y="369" type="curve"/>
      <point x="376" y="369"/>
      <point x="541" y="415"/>
      <point x="541" y="553" type="curve"/>
      <point x="541" y="681"/>
      <point x="434" y="727"/>
      <point x="291" y="727" type="curve"/>
      <point x="197" y="727"/>
      <point x="114" y="688"/>
      <point x="63" y="642" type="curve"/>
      <point x="88" y="615"/>
      <point x="63" y="642"/>
    </contour>
  </outline>
</glyph>
<glyph name="four" format="1">
  <advance width="755"/>
  <unicode hex="0034"/>
  <outline>
    <contour>
      <point x="47" y="262" type="line"/>
      <point x="473" y="698" type="line"/>
      <point x="441" y="718" type="line"/>
      <point x="26" y="297" type="line"/>
    </contour>
    <contour>
      <point x="714" y="297" type="line"/>
      <point x="26" y="297" type="line"/>
      <point x="26" y="258" type="line"/>
      <point x="714" y="258" type="line"/>
    </contour>
    <contour>
      <point x="484" y="1" type="line"/>
      <point x="484" y="718" type="line"/>
      <point x="441" y="718" type="line"/>
      <point x="441" y="1" type="line"/>
    </contour>
  </outline>
</glyph>
<glyph name="five" format="1">
  <advance width="634"/>
  <unicode hex="0035"/>
  <outline>
    <contour>
      <point x="114" y="722" type="curve"/>
      <point x="114" y="620"/>
      <point x="114" y="507"/>
      <point x="114" y="396" type="curve"/>
      <point x="156" y="387"/>
      <point x="114" y="396"/>
      <point x="156" y="387" type="curve"/>
      <point x="156" y="486"/>
      <point x="156" y="588"/>
      <point x="156" y="686" type="curve"/>
      <point x="114" y="722"/>
      <point x="156" y="686"/>
    </contour>
    <contour>
      <point x="156" y="387" type="curve"/>
      <point x="187" y="401"/>
      <point x="254" y="413"/>
      <point x="300" y="413" type="curve"/>
      <point x="432" y="413"/>
      <point x="529" y="349"/>
      <point x="529" y="227" type="curve"/>
      <point x="529" y="104"/>
      <point x="419" y="35"/>
      <point x="284" y="35" type="curve"/>
      <point x="207" y="35"/>
      <point x="147" y="50"/>
      <point x="75" y="79" type="curve"/>
      <point x="55" y="44"/>
      <point x="75" y="79"/>
      <point x="55" y="44" type="curve"/>
      <point x="128" y="12"/>
      <point x="198" y="-5"/>
      <point x="282" y="-5" type="curve"/>
      <point x="443" y="-5"/>
      <point x="573" y="77"/>
      <point x="573" y="227" type="curve"/>
      <point x="573" y="371"/>
      <point x="457" y="452"/>
      <point x="302" y="452" type="curve"/>
      <point x="239" y="452"/>
      <point x="159" y="435"/>
      <point x="114" y="405" type="curve"/>
      <point x="156" y="387"/>
      <point x="114" y="405"/>
    </contour>
    <contour>
      <point x="548" y="722" type="curve"/>
      <point x="397" y="722"/>
      <point x="261" y="722"/>
      <point x="114" y="722" type="curve"/>
      <point x="156" y="686"/>
      <point x="114" y="722"/>
      <point x="156" y="686" type="curve"/>
      <point x="289" y="686"/>
      <point x="411" y="686"/>
      <point x="548" y="686" type="curve"/>
      <point x="548" y="722"/>
      <point x="548" y="686"/>
    </contour>
  </outline>
</glyph>
<glyph name="six" format="1">
  <advance width="703"/>
  <unicode hex="0036"/>
  <outline>
    <contour>
      <point x="103" y="229" type="curve"/>
      <point x="160" y="334"/>
      <point x="251" y="377"/>
      <point x="366" y="377" type="curve"/>
      <point x="496" y="377"/>
      <point x="589" y="326"/>
      <point x="589" y="206" type="curve"/>
      <point x="589" y="89"/>
      <point x="496" y="36"/>
      <point x="370" y="36" type="curve"/>
      <point x="218" y="36"/>
      <point x="110" y="104"/>
      <point x="110" y="245" type="curve"/>
      <point x="110" y="529"/>
      <point x="349" y="631"/>
      <point x="641" y="701" type="curve"/>
      <point x="632" y="735"/>
      <point x="641" y="701"/>
      <point x="632" y="735" type="curve"/>
      <point x="319" y="665"/>
      <point x="66" y="549"/>
      <point x="66" y="243" type="curve"/>
      <point x="66" y="77"/>
      <point x="192" y="-6"/>
      <point x="368" y="-6" type="curve"/>
      <point x="524" y="-6"/>
      <point x="634" y="63"/>
      <point x="634" y="206" type="curve"/>
      <point x="634" y="351"/>
      <point x="523" y="416"/>
      <point x="369" y="416" type="curve"/>
      <point x="232" y="416"/>
      <point x="130" y="357"/>
      <point x="73" y="246" type="curve"/>
      <point x="103" y="229"/>
      <point x="73" y="246"/>
    </contour>
  </outline>
</glyph>
<glyph name="seven" format="1">
  <advance width="658"/>
  <unicode hex="0037"/>
  <outline>
    <contour>
      <point x="35" y="686" type="curve"/>
      <point x="643" y="686" type="curve"/>
      <point x="643" y="722" type="curve"/>
      <point x="35" y="722" type="curve"/>
    </contour>
    <contour>
      <point x="617" y="722" type="curve"/>
      <point x="84" y="0" type="curve"/>
      <point x="137" y="0" type="curve"/>
      <point x="643" y="686" type="curve"/>
    </contour>
  </outline>
</glyph>
<glyph name="eight" format="1">
  <advance width="676"/>
  <unicode hex="0038"/>
  <outline>
    <contour>
      <point x="94" y="558" type="curve"/>
      <point x="94" y="433"/>
      <point x="203" y="411"/>
      <point x="325" y="364" type="curve"/>
      <point x="450" y="317"/>
      <point x="561" y="294"/>
      <point x="561" y="174" type="curve"/>
      <point x="561" y="62"/>
      <point x="464" y="33"/>
      <point x="336" y="33" type="curve"/>
      <point x="208" y="33"/>
      <point x="114" y="63"/>
      <point x="114" y="174" type="curve"/>
      <point x="114" y="297"/>
      <point x="228" y="316"/>
      <point x="354" y="365" type="curve"/>
      <point x="473" y="413"/>
      <point x="581" y="433"/>
      <point x="581" y="556" type="curve"/>
      <point x="581" y="685"/>
      <point x="480" y="727"/>
      <point x="336" y="727" type="curve"/>
      <point x="196" y="727"/>
      <point x="94" y="682"/>
      <point x="94" y="558" type="curve"/>
      <point x="138" y="558"/>
      <point x="94" y="558"/>
      <point x="138" y="558" type="curve"/>
      <point x="138" y="656"/>
      <point x="222" y="689"/>
      <point x="334" y="689" type="curve"/>
      <point x="452" y="689"/>
      <point x="537" y="660"/>
      <point x="537" y="556" type="curve"/>
      <point x="537" y="449"/>
      <point x="435" y="433"/>
      <point x="325" y="391" type="curve"/>
      <point x="189" y="338"/>
      <point x="70" y="314"/>
      <point x="70" y="174" type="curve"/>
      <point x="70" y="39"/>
      <point x="181" y="-5"/>
      <point x="334" y="-5" type="curve"/>
      <point x="489" y="-5"/>
      <point x="605" y="35"/>
      <point x="605" y="174" type="curve"/>
      <point x="605" y="311"/>
      <point x="487" y="339"/>
      <point x="354" y="391" type="curve"/>
      <point x="242" y="435"/>
      <point x="138" y="449"/>
      <point x="138" y="558" type="curve"/>
      <point x="94" y="558"/>
      <point x="138" y="558"/>
    </contour>
  </outline>
</glyph>
<glyph name="nine" format="1">
  <advance width="703"/>
  <unicode hex="0039"/>
  <outline>
    <contour>
      <point x="602" y="492" type="curve"/>
      <point x="544" y="388"/>
      <point x="463" y="344"/>
      <point x="342" y="344" type="curve"/>
      <point x="210" y="344"/>
      <point x="115" y="396"/>
      <point x="115" y="517" type="curve"/>
      <point x="115" y="634"/>
      <point x="208" y="687"/>
      <point x="334" y="687" type="curve"/>
      <point x="487" y="687"/>
      <point x="595" y="619"/>
      <point x="595" y="477" type="curve"/>
      <point x="595" y="193"/>
      <point x="363" y="71"/>
      <point x="64" y="24" type="curve"/>
      <point x="73" y="-14"/>
      <point x="64" y="24"/>
      <point x="73" y="-14" type="curve"/>
      <point x="393" y="32"/>
      <point x="637" y="173"/>
      <point x="637" y="479" type="curve"/>
      <point x="637" y="645"/>
      <point x="513" y="728"/>
      <point x="336" y="728" type="curve"/>
      <point x="181" y="728"/>
      <point x="71" y="659"/>
      <point x="71" y="516" type="curve"/>
      <point x="71" y="371"/>
      <point x="182" y="306"/>
      <point x="338" y="306" type="curve"/>
      <point x="475" y="306"/>
      <point x="574" y="361"/>
      <point x="625" y="481" type="curve"/>
      <point x="602" y="492"/>
      <point x="625" y="481"/>
    </contour>
  </outline>
</glyph>
<glyph name="colon" format="1">
  <advance width="220"/>
  <unicode hex="003A"/>
  <outline>
    <contour>
      <point x="136" y="421" type="curve"/>
      <point x="136" y="438"/>
      <point x="123" y="447"/>
      <point x="105" y="447" type="curve"/>
      <point x="88" y="447"/>
      <point x="77" y="437"/>
      <point x="77" y="421" type="curve"/>
      <point x="117" y="421"/>
      <point x="95" y="421"/>
      <point x="136" y="421" type="curve"/>
      <point x="136" y="404"/>
      <point x="123" y="394"/>
      <point x="105" y="394" type="curve"/>
      <point x="88" y="394"/>
      <point x="77" y="404"/>
      <point x="77" y="421" type="curve"/>
      <point x="117" y="421"/>
      <point x="95" y="421"/>
    </contour>
    <contour>
      <point x="136" y="20" type="curve"/>
      <point x="136" y="37"/>
      <point x="123" y="46"/>
      <point x="105" y="46" type="curve"/>
      <point x="88" y="46"/>
      <point x="76" y="36"/>
      <point x="76" y="20" type="curve"/>
      <point x="117" y="20"/>
      <point x="95" y="20"/>
      <point x="136" y="20" type="curve"/>
      <point x="136" y="3"/>
      <point x="123" y="-6"/>
      <point x="105" y="-6" type="curve"/>
      <point x="88" y="-6"/>
      <point x="76" y="3"/>
      <point x="76" y="20" type="curve"/>
      <point x="117" y="20"/>
      <point x="95" y="20"/>
    </contour>
  </outline>
</glyph>
<glyph name="semicolon" format="1">
  <advance width="196"/>
  <unicode hex="003B"/>
  <outline>
    <contour>
      <point x="48" y="-89" type="line"/>
      <point x="93" y="-67"/>
      <point x="129" y="-27"/>
      <point x="129" y="35" type="curve"/>
      <point x="129" y="65"/>
      <point x="119" y="90"/>
      <point x="94" y="90" type="curve"/>
      <point x="75" y="90"/>
      <point x="63" y="81"/>
      <point x="63" y="63" type="curve"/>
      <point x="63" y="47"/>
      <point x="72" y="38"/>
      <point x="90" y="34" type="curve"/>
      <point x="90" y="6"/>
      <point x="76" y="-36"/>
      <point x="36" y="-61" type="curve"/>
    </contour>
    <contour>
      <point x="125" y="420" type="curve"/>
      <point x="125" y="437"/>
      <point x="112" y="447"/>
      <point x="94" y="447" type="curve"/>
      <point x="77" y="447"/>
      <point x="66" y="437"/>
      <point x="66" y="420" type="curve"/>
      <point x="106" y="420"/>
      <point x="84" y="420"/>
      <point x="125" y="420" type="curve"/>
      <point x="125" y="403"/>
      <point x="112" y="394"/>
      <point x="94" y="394" type="curve"/>
      <point x="77" y="394"/>
      <point x="66" y="404"/>
      <point x="66" y="420" type="curve"/>
      <point x="106" y="420"/>
      <point x="84" y="420"/>
    </contour>
  </outline>
</glyph>
<glyph name="less" format="1">
  <advance width="887"/>
  <unicode hex="003C"/>
  <outline>
    <contour>
      <point x="818" y="590" type="curve"/>
      <point x="558" y="500"/>
      <point x="298" y="410"/>
      <point x="39" y="320" type="curve"/>
      <point x="39" y="280"/>
      <point x="39" y="320"/>
      <point x="39" y="280" type="curve"/>
      <point x="298" y="370"/>
      <point x="558" y="460"/>
      <point x="818" y="550" type="curve"/>
      <point x="818" y="590"/>
      <point x="818" y="550"/>
    </contour>
    <contour>
      <point x="831" y="56" type="curve"/>
      <point x="567" y="144"/>
      <point x="303" y="232"/>
      <point x="39" y="320" type="curve"/>
      <point x="39" y="280"/>
      <point x="39" y="320"/>
      <point x="39" y="280" type="curve"/>
      <point x="303" y="192"/>
      <point x="567" y="104"/>
      <point x="831" y="16" type="curve"/>
      <point x="831" y="56"/>
      <point x="831" y="16"/>
    </contour>
  </outline>
</glyph>
<glyph name="equal" format="1">
  <advance width="913"/>
  <unicode hex="003D"/>
  <outline>
    <contour>
      <point x="65" y="199" type="curve"/>
      <point x="333" y="199"/>
      <point x="601" y="199"/>
      <point x="869" y="199" type="curve"/>
      <point x="869" y="236"/>
      <point x="869" y="199"/>
      <point x="869" y="236" type="curve"/>
      <point x="601" y="236"/>
      <point x="333" y="236"/>
      <point x="65" y="236" type="curve"/>
      <point x="65" y="199"/>
      <point x="65" y="236"/>
    </contour>
    <contour>
      <point x="65" y="421" type="curve"/>
      <point x="333" y="421"/>
      <point x="601" y="421"/>
      <point x="869" y="421" type="curve"/>
      <point x="869" y="458"/>
      <point x="869" y="421"/>
      <point x="869" y="458" type="curve"/>
      <point x="601" y="458"/>
      <point x="333" y="458"/>
      <point x="65" y="458" type="curve"/>
      <point x="65" y="421"/>
      <point x="65" y="458"/>
    </contour>
  </outline>
</glyph>
<glyph name="greater" format="1">
  <advance width="886"/>
  <unicode hex="003E"/>
  <outline>
    <contour>
      <point x="67" y="16" type="curve"/>
      <point x="327" y="106"/>
      <point x="587" y="196"/>
      <point x="847" y="286" type="curve"/>
      <point x="847" y="326"/>
      <point x="847" y="286"/>
      <point x="847" y="326" type="curve"/>
      <point x="587" y="236"/>
      <point x="327" y="146"/>
      <point x="67" y="56" type="curve"/>
      <point x="67" y="16"/>
      <point x="67" y="56"/>
    </contour>
    <contour>
      <point x="55" y="550" type="curve"/>
      <point x="318" y="462"/>
      <point x="583" y="374"/>
      <point x="847" y="286" type="curve"/>
      <point x="847" y="326"/>
      <point x="847" y="286"/>
      <point x="847" y="326" type="curve"/>
      <point x="583" y="414"/>
      <point x="318" y="502"/>
      <point x="55" y="590" type="curve"/>
      <point x="55" y="550"/>
      <point x="55" y="590"/>
    </contour>
  </outline>
</glyph>
<glyph name="question" format="1">
  <advance width="565"/>
  <unicode hex="003F"/>
  <outline>
    <contour>
      <point x="215" y="341" type="curve"/>
      <point x="215" y="304"/>
      <point x="215" y="259"/>
      <point x="215" y="222" type="curve"/>
      <point x="259" y="222"/>
      <point x="215" y="222"/>
      <point x="259" y="222" type="curve"/>
      <point x="259" y="259"/>
      <point x="259" y="304"/>
      <point x="259" y="341" type="curve"/>
      <point x="215" y="341"/>
      <point x="259" y="341"/>
    </contour>
    <contour>
      <point x="80" y="619" type="line"/>
      <point x="121" y="653"/>
      <point x="183" y="680"/>
      <point x="252" y="680" type="curve"/>
      <point x="371" y="680"/>
      <point x="464" y="630"/>
      <point x="464" y="519" type="curve"/>
      <point x="464" y="396"/>
      <point x="356" y="341"/>
      <point x="218" y="341" type="curve"/>
      <point x="218" y="327"/>
      <point x="218" y="319"/>
      <point x="218" y="305" type="curve"/>
      <point x="380" y="305"/>
      <point x="506" y="374"/>
      <point x="506" y="519" type="curve"/>
      <point x="506" y="653"/>
      <point x="397" y="717"/>
      <point x="255" y="717" type="curve"/>
      <point x="174" y="717"/>
      <point x="107" y="689"/>
      <point x="56" y="647" type="curve"/>
    </contour>
    <contour>
      <point x="263" y="13" type="curve"/>
      <point x="263" y="28"/>
      <point x="253" y="36"/>
      <point x="237" y="36" type="curve"/>
      <point x="222" y="36"/>
      <point x="212" y="27"/>
      <point x="212" y="13" type="curve"/>
      <point x="263" y="13"/>
      <point x="212" y="13"/>
      <point x="263" y="13" type="curve"/>
      <point x="263" y="-3"/>
      <point x="253" y="-10"/>
      <point x="237" y="-10" type="curve"/>
      <point x="222" y="-10"/>
      <point x="212" y="-2"/>
      <point x="212" y="13" type="curve"/>
      <point x="263" y="13"/>
      <point x="212" y="13"/>
    </contour>
  </outline>
</glyph>
<glyph name="at" format="1">
  <advance width="1010"/>
  <unicode hex="0040"/>
  <outline>
    <contour>
      <point x="722" y="-65" type="curve"/>
      <point x="649" y="-96"/>
      <point x="598" y="-101"/>
      <point x="520" y="-101" type="curve"/>
      <point x="276" y="-101"/>
      <point x="106" y="-7"/>
      <point x="106" y="216" type="curve"/>
      <point x="106" y="435"/>
      <point x="278" y="527"/>
      <point x="517" y="527" type="curve"/>
      <point x="742" y="527"/>
      <point x="899" y="430"/>
      <point x="899" y="221" type="curve"/>
      <point x="899" y="140"/>
      <point x="872" y="79"/>
      <point x="800" y="79" type="curve"/>
      <point x="726" y="79"/>
      <point x="694" y="139"/>
      <point x="694" y="221" type="curve"/>
      <point x="694" y="335"/>
      <point x="617" y="397"/>
      <point x="500" y="397" type="curve"/>
      <point x="373" y="397"/>
      <point x="291" y="339"/>
      <point x="291" y="221" type="curve"/>
      <point x="291" y="100"/>
      <point x="369" y="34"/>
      <point x="494" y="34" type="curve"/>
      <point x="604" y="34"/>
      <point x="665" y="99"/>
      <point x="686" y="209" type="curve"/>
      <point x="659" y="217"/>
      <point x="686" y="209"/>
      <point x="659" y="217" type="curve"/>
      <point x="633" y="127"/>
      <point x="589" y="70"/>
      <point x="500" y="70" type="curve"/>
      <point x="396" y="70"/>
      <point x="332" y="123"/>
      <point x="332" y="223" type="curve"/>
      <point x="332" y="316"/>
      <point x="398" y="361"/>
      <point x="496" y="361" type="curve"/>
      <point x="592" y="361"/>
      <point x="654" y="312"/>
      <point x="654" y="219" type="curve"/>
      <point x="654" y="117"/>
      <point x="699" y="46"/>
      <point x="796" y="46" type="curve"/>
      <point x="896" y="46"/>
      <point x="941" y="118"/>
      <point x="941" y="223" type="curve"/>
      <point x="941" y="456"/>
      <point x="769" y="565"/>
      <point x="520" y="565" type="curve"/>
      <point x="252" y="565"/>
      <point x="64" y="461"/>
      <point x="64" y="214" type="curve"/>
      <point x="64" y="-31"/>
      <point x="251" y="-137"/>
      <point x="517" y="-137" type="curve"/>
      <point x="604" y="-137"/>
      <point x="663" y="-128"/>
      <point x="739" y="-96" type="curve"/>
      <point x="722" y="-65"/>
      <point x="739" y="-96"/>
    </contour>
  </outline>
</glyph>
<glyph name="B" format="1">
  <advance width="738"/>
  <unicode hex="0042"/>
  <outline>
    <contour>
      <point x="131" y="686" type="curve"/>
      <point x="223" y="686"/>
      <point x="313" y="686"/>
      <point x="404" y="686" type="curve"/>
      <point x="500" y="686"/>
      <point x="574" y="644"/>
      <point x="574" y="551" type="curve"/>
      <point x="574" y="453"/>
      <point x="466" y="427"/>
      <point x="357" y="427" type="curve"/>
      <point x="281" y="427"/>
      <point x="207" y="427"/>
      <point x="131" y="427" type="curve"/>
      <point x="131" y="393"/>
      <point x="131" y="425"/>
      <point x="131" y="391" type="curve"/>
      <point x="199" y="391"/>
      <point x="267" y="391"/>
      <point x="336" y="391" type="curve"/>
      <point x="472" y="391"/>
      <point x="617" y="424"/>
      <point x="617" y="551" type="curve"/>
      <point x="617" y="668"/>
      <point x="529" y="722"/>
      <point x="404" y="722" type="curve"/>
      <point x="313" y="722"/>
      <point x="223" y="722"/>
      <point x="131" y="722" type="curve"/>
      <point x="131" y="688"/>
      <point x="131" y="720"/>
    </contour>
    <contour>
      <point x="164" y="0" type="curve"/>
      <point x="164" y="241"/>
      <point x="164" y="481"/>
      <point x="164" y="722" type="curve"/>
      <point x="119" y="722"/>
      <point x="164" y="722"/>
      <point x="119" y="722" type="curve"/>
      <point x="119" y="481"/>
      <point x="119" y="241"/>
      <point x="119" y="0" type="curve"/>
      <point x="164" y="0"/>
      <point x="119" y="0"/>
    </contour>
    <contour>
      <point x="131" y="391" type="curve"/>
      <point x="207" y="391"/>
      <point x="281" y="391"/>
      <point x="357" y="391" type="curve"/>
      <point x="507" y="391"/>
      <point x="634" y="346"/>
      <point x="634" y="207" type="curve"/>
      <point x="634" y="85"/>
      <point x="537" y="36"/>
      <point x="402" y="36" type="curve"/>
      <point x="311" y="36"/>
      <point x="222" y="36"/>
      <point x="131" y="36" type="curve"/>
      <point x="131" y="2"/>
      <point x="131" y="34"/>
      <point x="131" y="0" type="curve"/>
      <point x="222" y="0"/>
      <point x="311" y="0"/>
      <point x="402" y="0" type="curve"/>
      <point x="563" y="0"/>
      <point x="677" y="61"/>
      <point x="677" y="207" type="curve"/>
      <point x="677" y="376"/>
      <point x="513" y="427"/>
      <point x="336" y="427" type="curve"/>
      <point x="267" y="427"/>
      <point x="199" y="427"/>
      <point x="131" y="427" type="curve"/>
      <point x="131" y="393"/>
      <point x="131" y="425"/>
    </contour>
  </outline>
</glyph>
<glyph name="C" format="1">
  <advance width="830"/>
  <unicode hex="0043"/>
  <outline>
    <contour>
      <point x="777" y="655" type="curve"/>
      <point x="688" y="697"/>
      <point x="593" y="727"/>
      <point x="486" y="727" type="curve"/>
      <point x="232" y="727"/>
      <point x="67" y="592"/>
      <point x="67" y="344" type="curve"/>
      <point x="67" y="115"/>
      <point x="221" y="-5"/>
      <point x="458" y="-5" type="curve"/>
      <point x="597" y="-5"/>
      <point x="687" y="25"/>
      <point x="798" y="95" type="curve"/>
      <point x="776" y="124"/>
      <point x="798" y="95"/>
      <point x="776" y="124" type="curve"/>
      <point x="672" y="58"/>
      <point x="585" y="34"/>
      <point x="460" y="34" type="curve"/>
      <point x="249" y="34"/>
      <point x="110" y="142"/>
      <point x="110" y="346" type="curve"/>
      <point x="110" y="567"/>
      <point x="258" y="690"/>
      <point x="484" y="690" type="curve"/>
      <point x="582" y="690"/>
      <point x="672" y="667"/>
      <point x="757" y="626" type="curve"/>
      <point x="777" y="655"/>
      <point x="757" y="626"/>
    </contour>
    <contour>
      <point x="479" y="818" type="move" name="top"/>
    </contour>
    <contour>
      <point x="459" y="8" type="move" name="bottom"/>
    </contour>
  </outline>
</glyph>
<glyph name="D" format="1">
  <advance width="877"/>
  <unicode hex="0044"/>
  <outline>
    <contour>
      <point x="119" y="722" type="curve"/>
      <point x="119" y="481"/>
      <point x="119" y="241"/>
      <point x="119" y="0" type="curve"/>
      <point x="163" y="0"/>
      <point x="119" y="0"/>
      <point x="163" y="0" type="curve"/>
      <point x="163" y="241"/>
      <point x="163" y="481"/>
      <point x="163" y="722" type="curve"/>
      <point x="119" y="722"/>
      <point x="163" y="722"/>
    </contour>
    <contour>
      <point x="143" y="0" type="curve"/>
      <point x="228" y="0"/>
      <point x="311" y="0"/>
      <point x="396" y="0" type="curve"/>
      <point x="653" y="0"/>
      <point x="808" y="109"/>
      <point x="808" y="351" type="curve"/>
      <point x="808" y="606"/>
      <point x="648" y="722"/>
      <point x="381" y="722" type="curve"/>
      <point x="301" y="722"/>
      <point x="223" y="722"/>
      <point x="143" y="722" type="curve"/>
      <point x="143" y="687"/>
      <point x="143" y="721"/>
      <point x="143" y="686" type="curve"/>
      <point x="222" y="686"/>
      <point x="300" y="686"/>
      <point x="379" y="686" type="curve"/>
      <point x="621" y="686"/>
      <point x="766" y="580"/>
      <point x="766" y="350" type="curve"/>
      <point x="766" y="134"/>
      <point x="628" y="36"/>
      <point x="401" y="36" type="curve"/>
      <point x="314" y="36"/>
      <point x="230" y="36"/>
      <point x="143" y="36" type="curve"/>
      <point x="143" y="1"/>
      <point x="143" y="35"/>
    </contour>
    <contour>
      <point x="362" y="818" type="move" name="top"/>
    </contour>
  </outline>
</glyph>
<glyph name="F" format="1">
  <advance width="675"/>
  <unicode hex="0046"/>
  <outline>
    <contour>
      <point x="148" y="356" type="curve"/>
      <point x="285" y="356"/>
      <point x="422" y="356"/>
      <point x="560" y="356" type="curve"/>
      <point x="560" y="392"/>
      <point x="560" y="356"/>
      <point x="560" y="392" type="curve"/>
      <point x="422" y="392"/>
      <point x="285" y="392"/>
      <point x="148" y="392" type="curve"/>
      <point x="148" y="356"/>
      <point x="148" y="392"/>
    </contour>
    <contour>
      <point x="165" y="0" type="curve"/>
      <point x="165" y="722" type="line"/>
      <point x="121" y="722"/>
      <point x="165" y="722"/>
      <point x="121" y="722" type="curve"/>
      <point x="121" y="481"/>
      <point x="121" y="241"/>
      <point x="121" y="0" type="curve"/>
      <point x="165" y="0"/>
      <point x="121" y="0"/>
    </contour>
    <contour>
      <point x="129" y="686" type="curve"/>
      <point x="303" y="686"/>
      <point x="478" y="686"/>
      <point x="653" y="686" type="curve"/>
      <point x="653" y="722"/>
      <point x="653" y="686"/>
      <point x="653" y="722" type="curve"/>
      <point x="478" y="722"/>
      <point x="303" y="722"/>
      <point x="129" y="722" type="curve"/>
      <point x="129" y="686"/>
      <point x="129" y="722"/>
    </contour>
  </outline>
</glyph>
<glyph name="G" format="1">
  <advance width="944"/>
  <unicode hex="0047"/>
  <outline>
    <contour>
      <point x="859" y="327" type="curve"/>
      <point x="765" y="327"/>
      <point x="671" y="327"/>
      <point x="577" y="327" type="curve"/>
      <point x="577" y="291"/>
      <point x="577" y="327"/>
      <point x="577" y="291" type="curve"/>
      <point x="671" y="291"/>
      <point x="765" y="291"/>
      <point x="859" y="291" type="curve"/>
      <point x="859" y="327"/>
      <point x="859" y="291"/>
    </contour>
    <contour>
      <point x="873" y="77" type="curve"/>
      <point x="873" y="161"/>
      <point x="873" y="243"/>
      <point x="873" y="327" type="curve"/>
      <point x="833" y="327"/>
      <point x="873" y="327"/>
      <point x="833" y="327" type="curve"/>
      <point x="833" y="243"/>
      <point x="833" y="161"/>
      <point x="833" y="77" type="curve"/>
      <point x="873" y="77"/>
      <point x="833" y="77"/>
    </contour>
    <contour>
      <point x="851" y="643" type="curve"/>
      <point x="732" y="703"/>
      <point x="627" y="727"/>
      <point x="494" y="727" type="curve"/>
      <point x="238" y="727"/>
      <point x="67" y="608"/>
      <point x="67" y="364" type="curve"/>
      <point x="67" y="114"/>
      <point x="245" y="-5"/>
      <point x="508" y="-5" type="curve"/>
      <point x="651" y="-5"/>
      <point x="743" y="20"/>
      <point x="873" y="77" type="curve"/>
      <point x="850" y="104"/>
      <point x="873" y="77"/>
      <point x="850" y="104" type="curve"/>
      <point x="732" y="52"/>
      <point x="640" y="34"/>
      <point x="509" y="34" type="curve"/>
      <point x="271" y="34"/>
      <point x="110" y="142"/>
      <point x="110" y="368" type="curve"/>
      <point x="110" y="583"/>
      <point x="267" y="690"/>
      <point x="495" y="690" type="curve"/>
      <point x="619" y="690"/>
      <point x="717" y="667"/>
      <point x="831" y="612" type="curve"/>
      <point x="851" y="643"/>
      <point x="831" y="612"/>
    </contour>
    <contour>
      <point x="495" y="818" type="move" name="top"/>
    </contour>
    <contour>
      <point x="524" y="-1" type="move" name="bottom"/>
    </contour>
  </outline>
</glyph>
<glyph name="H" format="1">
  <advance width="927"/>
  <unicode hex="0048"/>
  <outline>
    <contour>
      <point x="162" y="0" type="curve"/>
      <point x="162" y="722" type="line"/>
      <point x="119" y="722"/>
      <point x="162" y="722"/>
      <point x="119" y="722" type="curve"/>
      <point x="119" y="481"/>
      <point x="119" y="241"/>
      <point x="119" y="0" type="curve"/>
      <point x="162" y="0"/>
      <point x="119" y="0"/>
    </contour>
    <contour>
      <point x="784" y="381" type="curve"/>
      <point x="569" y="381"/>
      <point x="355" y="381"/>
      <point x="140" y="381" type="curve"/>
      <point x="140" y="345"/>
      <point x="140" y="381"/>
      <point x="140" y="345" type="curve"/>
      <point x="355" y="345"/>
      <point x="569" y="345"/>
      <point x="784" y="345" type="curve"/>
      <point x="784" y="381"/>
      <point x="784" y="345"/>
    </contour>
    <contour>
      <point x="808" y="1" type="curve"/>
      <point x="808" y="236"/>
      <point x="808" y="486"/>
      <point x="808" y="721" type="curve"/>
      <point x="765" y="721"/>
      <point x="808" y="721"/>
      <point x="765" y="721" type="curve"/>
      <point x="765" y="1" type="line"/>
      <point x="808" y="1"/>
      <point x="765" y="1"/>
    </contour>
  </outline>
</glyph>
<glyph name="J" format="1">
  <advance width="521"/>
  <unicode hex="004A"/>
  <outline>
    <contour>
      <point x="13" y="43" type="curve"/>
      <point x="51" y="22"/>
      <point x="104" y="-1"/>
      <point x="167" y="-1" type="curve"/>
      <point x="318" y="-1"/>
      <point x="410" y="75"/>
      <point x="410" y="223" type="curve"/>
      <point x="410" y="390"/>
      <point x="410" y="554"/>
      <point x="410" y="722" type="curve"/>
      <point x="367" y="722"/>
      <point x="409" y="722"/>
      <point x="366" y="722" type="curve"/>
      <point x="366" y="554"/>
      <point x="366" y="390"/>
      <point x="366" y="223" type="curve"/>
      <point x="366" y="102"/>
      <point x="291" y="35"/>
      <point x="167" y="35" type="curve"/>
      <point x="114" y="35"/>
      <point x="78" y="51"/>
      <point x="33" y="71" type="curve"/>
      <point x="14" y="44"/>
      <point x="33" y="70"/>
    </contour>
  </outline>
</glyph>
<glyph name="K" format="1">
  <advance width="655"/>
  <unicode hex="004B"/>
  <outline>
    <contour>
      <point x="554" y="722" type="curve"/>
      <point x="144" y="380" type="line"/>
      <point x="205" y="380"/>
      <point x="146" y="380"/>
      <point x="207" y="380" type="curve"/>
      <point x="618" y="722" type="line"/>
      <point x="553" y="722"/>
      <point x="619" y="722"/>
    </contour>
    <contour>
      <point x="163" y="0" type="curve"/>
      <point x="163" y="722" type="line"/>
      <point x="119" y="722"/>
      <point x="163" y="722"/>
      <point x="119" y="722" type="curve"/>
      <point x="119" y="481"/>
      <point x="119" y="241"/>
      <point x="119" y="0" type="curve"/>
      <point x="163" y="0"/>
      <point x="119" y="0"/>
    </contour>
    <contour>
      <point x="651" y="0" type="curve"/>
      <point x="207" y="380" type="line"/>
      <point x="146" y="380"/>
      <point x="205" y="380"/>
      <point x="144" y="380" type="curve"/>
      <point x="583" y="0" type="line"/>
      <point x="652" y="0"/>
      <point x="582" y="0"/>
    </contour>
    <contour>
      <point x="434" y="-5" type="move" name="bottom"/>
    </contour>
  </outline>
</glyph>
<glyph name="L" format="1">
  <advance width="690"/>
  <unicode hex="004C"/>
  <outline>
    <contour>
      <point x="163" y="0" type="curve"/>
      <point x="163" y="241"/>
      <point x="163" y="481"/>
      <point x="163" y="722" type="curve"/>
      <point x="119" y="722"/>
      <point x="163" y="722"/>
      <point x="119" y="722" type="curve"/>
      <point x="119" y="481"/>
      <point x="119" y="241"/>
      <point x="119" y="0" type="curve"/>
      <point x="163" y="0"/>
      <point x="119" y="0"/>
    </contour>
    <contour>
      <point x="139" y="0" type="curve"/>
      <point x="320" y="0"/>
      <point x="499" y="0"/>
      <point x="679" y="0" type="curve"/>
      <point x="679" y="36"/>
      <point x="679" y="0"/>
      <point x="679" y="36" type="curve"/>
      <point x="499" y="36"/>
      <point x="320" y="36"/>
      <point x="139" y="36" type="curve"/>
      <point x="139" y="0"/>
      <point x="139" y="36"/>
    </contour>
    <contour>
      <point x="142" y="818" type="move" name="top"/>
    </contour>
    <contour>
      <point x="370" y="-1" type="move" name="bottom"/>
    </contour>
  </outline>
</glyph>
<glyph name="M" format="1">
  <advance width="1091"/>
  <unicode hex="004D"/>
  <outline>
    <contour>
      <point x="1009" y="0" type="curve"/>
      <point x="983" y="241"/>
      <point x="955" y="481"/>
      <point x="929" y="722" type="curve"/>
      <point x="890" y="722"/>
      <point x="929" y="722"/>
      <point x="890" y="722" type="curve"/>
      <point x="915" y="481"/>
      <point x="940" y="241"/>
      <point x="965" y="0" type="curve"/>
      <point x="1009" y="0"/>
      <point x="965" y="0"/>
    </contour>
    <contour>
      <point x="128" y="0" type="curve"/>
      <point x="152" y="241"/>
      <point x="176" y="481"/>
      <point x="201" y="722" type="curve"/>
      <point x="159" y="722"/>
      <point x="201" y="722"/>
      <point x="159" y="722" type="curve"/>
      <point x="134" y="481"/>
      <point x="109" y="241"/>
      <point x="84" y="0" type="curve"/>
      <point x="128" y="0"/>
      <point x="84" y="0"/>
    </contour>
    <contour>
      <point x="565" y="0" type="curve"/>
      <point x="446" y="241"/>
      <point x="327" y="481"/>
      <point x="205" y="722" type="curve"/>
      <point x="163" y="722"/>
      <point x="203" y="722"/>
      <point x="162" y="722" type="curve"/>
      <point x="281" y="481"/>
      <point x="401" y="241"/>
      <point x="520" y="0" type="curve"/>
      <point x="563" y="0"/>
      <point x="522" y="0"/>
    </contour>
    <contour>
      <point x="575" y="0" type="curve"/>
      <point x="692" y="241"/>
      <point x="810" y="481"/>
      <point x="927" y="722" type="curve"/>
      <point x="886" y="722"/>
      <point x="926" y="722"/>
      <point x="884" y="722" type="curve"/>
      <point x="764" y="481"/>
      <point x="647" y="241"/>
      <point x="529" y="0" type="curve"/>
      <point x="573" y="0"/>
      <point x="531" y="0"/>
    </contour>
  </outline>
</glyph>
<glyph name="P" format="1">
  <advance width="681"/>
  <unicode hex="0050"/>
  <outline>
    <contour>
      <point x="137" y="320" type="curve"/>
      <point x="205" y="294"/>
      <point x="270" y="275"/>
      <point x="344" y="275" type="curve"/>
      <point x="506" y="277"/>
      <point x="627" y="343"/>
      <point x="627" y="492" type="curve"/>
      <point x="627" y="651"/>
      <point x="487" y="722"/>
      <point x="311" y="722" type="curve"/>
      <point x="256" y="722"/>
      <point x="201" y="722"/>
      <point x="146" y="722" type="curve"/>
      <point x="146" y="686"/>
      <point x="146" y="722"/>
      <point x="146" y="686" type="curve"/>
      <point x="199" y="686"/>
      <point x="252" y="686"/>
      <point x="305" y="686" type="curve"/>
      <point x="460" y="686"/>
      <point x="583" y="630"/>
      <point x="583" y="492" type="curve"/>
      <point x="583" y="367"/>
      <point x="478" y="310"/>
      <point x="344" y="310" type="curve"/>
      <point x="271" y="310"/>
      <point x="218" y="326"/>
      <point x="151" y="353" type="curve"/>
      <point x="137" y="321"/>
      <point x="151" y="353"/>
    </contour>
    <contour>
      <point x="163" y="0" type="curve"/>
      <point x="163" y="241"/>
      <point x="163" y="481"/>
      <point x="163" y="722" type="curve"/>
      <point x="119" y="722"/>
      <point x="163" y="722"/>
      <point x="119" y="722" type="curve"/>
      <point x="119" y="481"/>
      <point x="119" y="241"/>
      <point x="119" y="0" type="curve"/>
      <point x="163" y="0"/>
      <point x="119" y="0"/>
    </contour>
  </outline>
</glyph>
<glyph name="Q" format="1">
  <advance width="1039"/>
  <unicode hex="0051"/>
  <outline>
    <contour>
      <point x="451" y="7" type="curve"/>
      <point x="591" y="-188"/>
      <point x="746" y="-236"/>
      <point x="975" y="-236" type="curve"/>
      <point x="975" y="-198"/>
      <point x="975" y="-236"/>
      <point x="975" y="-198" type="curve"/>
      <point x="764" y="-198"/>
      <point x="620" y="-156"/>
      <point x="488" y="25" type="curve"/>
      <point x="451" y="7"/>
      <point x="488" y="25"/>
    </contour>
    <contour>
      <point x="111" y="360" type="curve"/>
      <point x="111" y="564"/>
      <point x="250" y="688"/>
      <point x="458" y="688" type="curve"/>
      <point x="668" y="688"/>
      <point x="806" y="566"/>
      <point x="806" y="363" type="curve"/>
      <point x="806" y="158"/>
      <point x="670" y="33"/>
      <point x="462" y="33" type="curve"/>
      <point x="251" y="33"/>
      <point x="111" y="155"/>
      <point x="111" y="360" type="curve"/>
      <point x="67" y="360"/>
      <point x="111" y="360"/>
      <point x="67" y="360" type="curve"/>
      <point x="67" y="131"/>
      <point x="225" y="-5"/>
      <point x="460" y="-5" type="curve"/>
      <point x="694" y="-5"/>
      <point x="850" y="134"/>
      <point x="850" y="364" type="curve"/>
      <point x="850" y="593"/>
      <point x="694" y="728"/>
      <point x="460" y="728" type="curve"/>
      <point x="225" y="728"/>
      <point x="67" y="590"/>
      <point x="67" y="360" type="curve"/>
      <point x="111" y="360"/>
      <point x="67" y="360"/>
    </contour>
  </outline>
</glyph>
<glyph name="R" format="1">
  <advance width="724"/>
  <unicode hex="0052"/>
  <outline>
    <contour>
      <point x="377" y="354" type="curve"/>
      <point x="398" y="327"/>
      <point x="645" y="27"/>
      <point x="666" y="0" type="curve"/>
      <point x="715" y="0"/>
      <point x="671" y="0"/>
      <point x="720" y="0" type="curve"/>
      <point x="701" y="26"/>
      <point x="451" y="328"/>
      <point x="431" y="354" type="curve"/>
      <point x="379" y="354"/>
      <point x="430" y="354"/>
    </contour>
    <contour>
      <point x="163" y="0" type="curve"/>
      <point x="163" y="241"/>
      <point x="163" y="481"/>
      <point x="163" y="722" type="curve"/>
      <point x="119" y="722"/>
      <point x="163" y="722"/>
      <point x="119" y="722" type="curve"/>
      <point x="119" y="481"/>
      <point x="119" y="241"/>
      <point x="119" y="0" type="curve"/>
      <point x="163" y="0"/>
      <point x="119" y="0"/>
    </contour>
    <contour>
      <point x="143" y="333" type="curve"/>
      <point x="216" y="333"/>
      <point x="288" y="333"/>
      <point x="360" y="333" type="curve"/>
      <point x="526" y="333"/>
      <point x="647" y="385"/>
      <point x="647" y="534" type="curve"/>
      <point x="647" y="676"/>
      <point x="530" y="722"/>
      <point x="372" y="722" type="curve"/>
      <point x="295" y="722"/>
      <point x="220" y="722"/>
      <point x="143" y="722" type="curve"/>
      <point x="143" y="686"/>
      <point x="143" y="722"/>
      <point x="143" y="686" type="curve"/>
      <point x="217" y="686"/>
      <point x="290" y="686"/>
      <point x="364" y="686" type="curve"/>
      <point x="501" y="686"/>
      <point x="604" y="651"/>
      <point x="604" y="531" type="curve"/>
      <point x="604" y="409"/>
      <point x="501" y="369"/>
      <point x="365" y="369" type="curve"/>
      <point x="292" y="369"/>
      <point x="217" y="369"/>
      <point x="143" y="369" type="curve"/>
      <point x="143" y="333"/>
      <point x="143" y="369"/>
    </contour>
    <contour>
      <point x="325" y="818" type="move" name="top"/>
    </contour>
    <contour>
      <point x="413" y="-4" type="move" name="bottom"/>
    </contour>
  </outline>
</glyph>
<glyph name="T" format="1">
  <advance width="814"/>
  <unicode hex="0054"/>
  <outline>
    <contour>
      <point x="429" y="0" type="curve"/>
      <point x="429" y="237"/>
      <point x="429" y="473"/>
      <point x="429" y="710" type="curve"/>
      <point x="385" y="710"/>
      <point x="429" y="710"/>
      <point x="385" y="710" type="curve"/>
      <point x="385" y="473"/>
      <point x="385" y="237"/>
      <point x="385" y="0" type="curve"/>
      <point x="429" y="0"/>
      <point x="385" y="0"/>
    </contour>
    <contour>
      <point x="10" y="684" type="curve"/>
      <point x="275" y="684"/>
      <point x="539" y="684"/>
      <point x="803" y="684" type="curve"/>
      <point x="803" y="723"/>
      <point x="803" y="683"/>
      <point x="803" y="722" type="curve"/>
      <point x="539" y="722"/>
      <point x="275" y="722"/>
      <point x="10" y="722" type="curve"/>
      <point x="10" y="683"/>
      <point x="10" y="723"/>
    </contour>
    <contour>
      <point x="404" y="818" type="move" name="top"/>
    </contour>
    <contour>
      <point x="423" y="-6" type="move" name="bottom"/>
    </contour>
  </outline>
</glyph>
<glyph name="V" format="1">
  <advance width="800"/>
  <unicode hex="0056"/>
  <outline>
    <contour>
      <point x="737" y="722" type="curve"/>
      <point x="619" y="481"/>
      <point x="500" y="241"/>
      <point x="382" y="0" type="curve"/>
      <point x="429" y="0"/>
      <point x="382" y="0"/>
      <point x="429" y="0" type="curve"/>
      <point x="547" y="241"/>
      <point x="665" y="481"/>
      <point x="784" y="722" type="curve"/>
      <point x="737" y="722"/>
      <point x="784" y="722"/>
    </contour>
    <contour>
      <point x="13" y="722" type="curve"/>
      <point x="134" y="481"/>
      <point x="254" y="241"/>
      <point x="374" y="0" type="curve"/>
      <point x="421" y="0"/>
      <point x="375" y="0"/>
      <point x="421" y="0" type="curve"/>
      <point x="301" y="241"/>
      <point x="181" y="481"/>
      <point x="62" y="722" type="curve"/>
      <point x="14" y="722"/>
      <point x="61" y="722"/>
    </contour>
  </outline>
</glyph>
<glyph name="W" format="1">
  <advance width="1077"/>
  <unicode hex="0057"/>
  <outline>
    <contour>
      <point x="309" y="0" type="curve"/>
      <point x="394" y="241"/>
      <point x="480" y="481"/>
      <point x="565" y="722" type="curve"/>
      <point x="522" y="722"/>
      <point x="566" y="722"/>
      <point x="523" y="722" type="curve"/>
      <point x="439" y="481"/>
      <point x="354" y="241"/>
      <point x="269" y="0" type="curve"/>
      <point x="307" y="0"/>
      <point x="272" y="0"/>
    </contour>
    <contour>
      <point x="532" y="722" type="curve"/>
      <point x="609" y="481"/>
      <point x="685" y="241"/>
      <point x="762" y="0" type="curve"/>
      <point x="800" y="0"/>
      <point x="764" y="0"/>
      <point x="802" y="0" type="curve"/>
      <point x="727" y="241"/>
      <point x="651" y="481"/>
      <point x="574" y="722" type="curve"/>
      <point x="531" y="722"/>
      <point x="575" y="722"/>
    </contour>
    <contour>
      <point x="31" y="722" type="curve"/>
      <point x="108" y="481"/>
      <point x="186" y="241"/>
      <point x="263" y="0" type="curve"/>
      <point x="301" y="0"/>
      <point x="267" y="0"/>
      <point x="304" y="0" type="curve"/>
      <point x="229" y="240"/>
      <point x="152" y="482"/>
      <point x="76" y="722" type="curve"/>
      <point x="31" y="722"/>
      <point x="76" y="722"/>
    </contour>
    <contour>
      <point x="1005" y="722" type="curve"/>
      <point x="925" y="481"/>
      <point x="846" y="241"/>
      <point x="768" y="0" type="curve"/>
      <point x="807" y="0"/>
      <point x="770" y="0"/>
      <point x="809" y="0" type="curve"/>
      <point x="889" y="241"/>
      <point x="970" y="481"/>
      <point x="1050" y="722" type="curve"/>
      <point x="1005" y="722"/>
      <point x="1050" y="722"/>
    </contour>
  </outline>
</glyph>
<glyph name="X" format="1">
  <advance width="738"/>
  <unicode hex="0058"/>
  <outline>
    <contour>
      <point x="645" y="722" type="curve"/>
      <point x="435" y="483"/>
      <point x="216" y="239"/>
      <point x="6" y="0" type="curve"/>
      <point x="58" y="0"/>
      <point x="12" y="0"/>
      <point x="64" y="0" type="curve"/>
      <point x="274" y="239"/>
      <point x="489" y="483"/>
      <point x="699" y="722" type="curve"/>
      <point x="651" y="722"/>
      <point x="693" y="722"/>
    </contour>
    <contour>
      <point x="45" y="722" type="curve"/>
      <point x="253" y="483"/>
      <point x="465" y="239"/>
      <point x="674" y="0" type="curve"/>
      <point x="725" y="0"/>
      <point x="678" y="0"/>
      <point x="730" y="0" type="curve"/>
      <point x="521" y="240"/>
      <point x="307" y="482"/>
      <point x="98" y="722" type="curve"/>
      <point x="50" y="722"/>
      <point x="93" y="722"/>
    </contour>
  </outline>
</glyph>
<glyph name="Y" format="1">
  <advance width="700"/>
  <unicode hex="0059"/>
  <outline>
    <contour>
      <point x="23" y="722" type="curve"/>
      <point x="122" y="596"/>
      <point x="227" y="463"/>
      <point x="326" y="337" type="curve"/>
      <point x="373" y="337"/>
      <point x="326" y="340"/>
      <point x="372" y="340" type="curve"/>
      <point x="273" y="467"/>
      <point x="174" y="595"/>
      <point x="75" y="722" type="curve"/>
      <point x="30" y="722"/>
      <point x="68" y="722"/>
    </contour>
    <contour>
      <point x="640" y="722" type="curve"/>
      <point x="535" y="595"/>
      <point x="431" y="467"/>
      <point x="327" y="340" type="curve"/>
      <point x="372" y="340"/>
      <point x="326" y="337"/>
      <point x="372" y="337" type="curve"/>
      <point x="477" y="463"/>
      <point x="585" y="596"/>
      <point x="690" y="722" type="curve"/>
      <point x="645" y="722"/>
      <point x="685" y="722"/>
    </contour>
    <contour>
      <point x="373" y="0" type="curve"/>
      <point x="373" y="115"/>
      <point x="373" y="231"/>
      <point x="373" y="346" type="curve"/>
      <point x="325" y="346"/>
      <point x="373" y="346"/>
      <point x="325" y="346" type="curve"/>
      <point x="325" y="231"/>
      <point x="325" y="115"/>
      <point x="325" y="0" type="curve"/>
      <point x="373" y="0"/>
      <point x="325" y="0"/>
    </contour>
    <contour>
      <point x="351" y="818" type="move" name="top"/>
    </contour>
  </outline>
</glyph>
<glyph name="Z" format="1">
  <advance width="762"/>
  <unicode hex="005A"/>
  <outline>
    <contour>
      <point x="70" y="686" type="curve"/>
      <point x="276" y="686"/>
      <point x="490" y="686"/>
      <point x="697" y="686" type="curve"/>
      <point x="694" y="691"/>
      <point x="688" y="691"/>
      <point x="684" y="695" type="curve"/>
      <point x="681" y="699"/>
      <point x="679" y="702"/>
      <point x="676" y="705" type="curve"/>
      <point x="673" y="701"/>
      <point x="667" y="699"/>
      <point x="663" y="694" type="curve"/>
      <point x="21" y="36" type="line"/>
      <point x="21" y="17"/>
      <point x="21" y="36"/>
      <point x="21" y="17" type="curve"/>
      <point x="21" y="0"/>
      <point x="21" y="17"/>
      <point x="21" y="0" type="curve"/>
      <point x="33" y="0"/>
      <point x="21" y="0"/>
      <point x="33" y="0" type="curve"/>
      <point x="772" y="0"/>
      <point x="511" y="0"/>
      <point x="757" y="0" type="curve"/>
      <point x="757" y="36"/>
      <point x="757" y="0"/>
      <point x="757" y="36" type="curve"/>
      <point x="511" y="36"/>
      <point x="279" y="36"/>
      <point x="33" y="36" type="curve"/>
      <point x="37" y="33"/>
      <point x="41" y="31"/>
      <point x="44" y="28" type="curve"/>
      <point x="48" y="25"/>
      <point x="51" y="20"/>
      <point x="55" y="17" type="curve"/>
      <point x="59" y="21"/>
      <point x="66" y="23"/>
      <point x="72" y="28" type="curve"/>
      <point x="714" y="686" type="line"/>
      <point x="714" y="705"/>
      <point x="714" y="686"/>
      <point x="714" y="705" type="curve"/>
      <point x="714" y="722"/>
      <point x="714" y="705"/>
      <point x="714" y="722" type="curve"/>
      <point x="695" y="722"/>
      <point x="714" y="722"/>
      <point x="695" y="722" type="curve"/>
      <point x="488" y="722"/>
      <point x="275" y="722"/>
      <point x="70" y="722" type="curve"/>
      <point x="70" y="686"/>
      <point x="70" y="722"/>
    </contour>
    <contour>
      <point x="393" y="818" type="move" name="top"/>
    </contour>
  </outline>
</glyph>
<glyph name="bracketleft" format="1">
  <advance width="328"/>
  <unicode hex="005B"/>
  <outline>
    <contour>
      <point x="299" y="771" type="curve"/>
      <point x="234" y="771"/>
      <point x="169" y="771"/>
      <point x="103" y="771" type="curve"/>
      <point x="99" y="771"/>
      <point x="95" y="771"/>
      <point x="90" y="771" type="curve"/>
      <point x="90" y="767"/>
      <point x="90" y="761"/>
      <point x="90" y="757" type="curve"/>
      <point x="90" y="468"/>
      <point x="90" y="179"/>
      <point x="90" y="-111" type="curve"/>
      <point x="90" y="-114"/>
      <point x="90" y="-119"/>
      <point x="90" y="-122" type="curve"/>
      <point x="94" y="-122"/>
      <point x="98" y="-122"/>
      <point x="102" y="-122" type="curve"/>
      <point x="168" y="-122"/>
      <point x="233" y="-122"/>
      <point x="299" y="-122" type="curve"/>
      <point x="299" y="-83"/>
      <point x="299" y="-122"/>
      <point x="299" y="-83" type="curve"/>
      <point x="233" y="-83"/>
      <point x="168" y="-83"/>
      <point x="102" y="-83" type="curve"/>
      <point x="134" y="-83"/>
      <point x="102" y="-83"/>
      <point x="134" y="-83" type="curve"/>
      <point x="134" y="-111"/>
      <point x="134" y="-83"/>
      <point x="134" y="-111" type="curve"/>
      <point x="134" y="179"/>
      <point x="134" y="468"/>
      <point x="134" y="757" type="curve"/>
      <point x="134" y="732"/>
      <point x="134" y="757"/>
      <point x="134" y="732" type="curve"/>
      <point x="103" y="732"/>
      <point x="134" y="732"/>
      <point x="103" y="732" type="curve"/>
      <point x="169" y="732"/>
      <point x="234" y="732"/>
      <point x="299" y="732" type="curve"/>
      <point x="299" y="771"/>
      <point x="299" y="732"/>
    </contour>
  </outline>
</glyph>
<glyph name="backslash" format="1">
  <advance width="609"/>
  <unicode hex="005C"/>
  <outline>
    <contour>
      <point x="578" y="-68" type="curve"/>
      <point x="411" y="236"/>
      <point x="244" y="540"/>
      <point x="77" y="844" type="curve"/>
      <point x="31" y="844"/>
      <point x="77" y="844"/>
      <point x="31" y="844" type="curve"/>
      <point x="198" y="540"/>
      <point x="365" y="236"/>
      <point x="532" y="-68" type="curve"/>
      <point x="578" y="-68"/>
      <point x="532" y="-68"/>
    </contour>
  </outline>
</glyph>
<glyph name="bracketright" format="1">
  <advance width="327"/>
  <unicode hex="005D"/>
  <outline>
    <contour>
      <point x="29" y="732" type="curve"/>
      <point x="94" y="732"/>
      <point x="159" y="732"/>
      <point x="224" y="732" type="curve"/>
      <point x="219" y="736"/>
      <point x="213" y="739"/>
      <point x="208" y="743" type="curve"/>
      <point x="203" y="747"/>
      <point x="198" y="753"/>
      <point x="194" y="757" type="curve"/>
      <point x="194" y="468"/>
      <point x="194" y="179"/>
      <point x="194" y="-111" type="curve"/>
      <point x="199" y="-106"/>
      <point x="204" y="-100"/>
      <point x="210" y="-95" type="curve"/>
      <point x="215" y="-92"/>
      <point x="220" y="-87"/>
      <point x="226" y="-83" type="curve"/>
      <point x="160" y="-83"/>
      <point x="94" y="-83"/>
      <point x="29" y="-83" type="curve"/>
      <point x="29" y="-122"/>
      <point x="29" y="-83"/>
      <point x="29" y="-122" type="curve"/>
      <point x="94" y="-122"/>
      <point x="160" y="-122"/>
      <point x="226" y="-122" type="curve"/>
      <point x="237" y="-122"/>
      <point x="226" y="-122"/>
      <point x="237" y="-122" type="curve"/>
      <point x="237" y="-111"/>
      <point x="237" y="-122"/>
      <point x="237" y="-111" type="curve"/>
      <point x="237" y="179"/>
      <point x="237" y="468"/>
      <point x="237" y="757" type="curve"/>
      <point x="237" y="771"/>
      <point x="237" y="757"/>
      <point x="237" y="771" type="curve"/>
      <point x="224" y="771"/>
      <point x="237" y="771"/>
      <point x="224" y="771" type="curve"/>
      <point x="159" y="771"/>
      <point x="94" y="771"/>
      <point x="29" y="771" type="curve"/>
      <point x="29" y="732"/>
      <point x="29" y="771"/>
    </contour>
  </outline>
</glyph>
<glyph name="asciicircum" format="1">
  <advance width="607"/>
  <unicode hex="005E"/>
  <outline>
    <contour>
      <point x="101" y="464" type="curve"/>
      <point x="175" y="577"/>
      <point x="250" y="688"/>
      <point x="324" y="801" type="curve"/>
      <point x="281" y="801"/>
      <point x="323" y="801"/>
      <point x="280" y="801" type="curve"/>
      <point x="206" y="688"/>
      <point x="131" y="577"/>
      <point x="57" y="464" type="curve"/>
      <point x="100" y="464"/>
      <point x="59" y="464"/>
    </contour>
    <contour>
      <point x="550" y="464" type="curve"/>
      <point x="477" y="573"/>
      <point x="399" y="692"/>
      <point x="326" y="801" type="curve"/>
      <point x="283" y="801"/>
      <point x="324" y="801"/>
      <point x="281" y="801" type="curve"/>
      <point x="354" y="692"/>
      <point x="433" y="573"/>
      <point x="506" y="464" type="curve"/>
      <point x="549" y="464"/>
      <point x="508" y="464"/>
    </contour>
  </outline>
</glyph>
<glyph name="b" format="1">
  <advance width="743"/>
  <unicode hex="0062"/>
  <outline>
    <contour>
      <point x="133" y="393" type="curve"/>
      <point x="189" y="449"/>
      <point x="282" y="502"/>
      <point x="393" y="502" type="curve"/>
      <point x="538" y="502"/>
      <point x="637" y="410"/>
      <point x="637" y="263" type="curve"/>
      <point x="637" y="122"/>
      <point x="537" y="30"/>
      <point x="392" y="31" type="curve"/>
      <point x="291" y="31"/>
      <point x="213" y="61"/>
      <point x="137" y="126" type="curve"/>
      <point x="117" y="111"/>
      <point x="129" y="121"/>
      <point x="110" y="105" type="curve"/>
      <point x="196" y="28"/>
      <point x="281" y="-5"/>
      <point x="398" y="-5" type="curve"/>
      <point x="566" y="-5"/>
      <point x="681" y="97"/>
      <point x="681" y="265" type="curve"/>
      <point x="681" y="433"/>
      <point x="566" y="538"/>
      <point x="399" y="538" type="curve"/>
      <point x="277" y="538"/>
      <point x="176" y="483"/>
      <point x="112" y="420" type="curve"/>
      <point x="127" y="401"/>
      <point x="118" y="412"/>
    </contour>
    <contour>
      <point x="145" y="0" type="curve"/>
      <point x="145" y="273"/>
      <point x="145" y="527"/>
      <point x="145" y="800" type="curve"/>
      <point x="114" y="800"/>
      <point x="132" y="800"/>
      <point x="101" y="800" type="curve"/>
      <point x="101" y="527"/>
      <point x="101" y="273"/>
      <point x="101" y="0" type="curve"/>
      <point x="132" y="0"/>
      <point x="114" y="0"/>
    </contour>
  </outline>
</glyph>
<glyph name="c" format="1">
  <advance width="633"/>
  <unicode hex="0063"/>
  <outline>
    <contour>
      <point x="581" y="472" type="curve"/>
      <point x="520" y="511"/>
      <point x="445" y="538"/>
      <point x="370" y="538" type="curve"/>
      <point x="183" y="538"/>
      <point x="62" y="449"/>
      <point x="62" y="267" type="curve"/>
      <point x="62" y="85"/>
      <point x="180" y="-5"/>
      <point x="367" y="-5" type="curve"/>
      <point x="451" y="-5"/>
      <point x="533" y="25"/>
      <point x="592" y="81" type="curve"/>
      <point x="565" y="108"/>
      <point x="592" y="81"/>
      <point x="565" y="108" type="curve"/>
      <point x="511" y="58"/>
      <point x="441" y="31"/>
      <point x="368" y="31" type="curve"/>
      <point x="210" y="31"/>
      <point x="105" y="108"/>
      <point x="105" y="267" type="curve"/>
      <point x="105" y="425"/>
      <point x="210" y="502"/>
      <point x="368" y="502" type="curve"/>
      <point x="434" y="502"/>
      <point x="499" y="481"/>
      <point x="558" y="447" type="curve"/>
      <point x="581" y="472"/>
      <point x="558" y="447"/>
    </contour>
    <contour>
      <point x="362" y="662" type="move" name="top"/>
    </contour>
    <contour>
      <point x="374" y="0" type="move" name="bottom"/>
    </contour>
  </outline>
</glyph>
<glyph name="d" format="1">
  <advance width="748"/>
  <unicode hex="0064"/>
  <outline>
    <contour>
      <point x="634" y="440" type="curve"/>
      <point x="561" y="506"/>
      <point x="474" y="538"/>
      <point x="371" y="538" type="curve"/>
      <point x="191" y="538"/>
      <point x="61" y="440"/>
      <point x="61" y="264" type="curve"/>
      <point x="61" y="89"/>
      <point x="194" y="-5"/>
      <point x="374" y="-5" type="curve"/>
      <point x="486" y="-5"/>
      <point x="565" y="37"/>
      <point x="634" y="125" type="curve"/>
      <point x="612" y="147"/>
      <point x="633" y="125"/>
      <point x="610" y="147" type="curve"/>
      <point x="544" y="68"/>
      <point x="475" y="31"/>
      <point x="376" y="31" type="curve"/>
      <point x="220" y="31"/>
      <point x="106" y="113"/>
      <point x="106" y="265" type="curve"/>
      <point x="106" y="419"/>
      <point x="220" y="502"/>
      <point x="375" y="502" type="curve"/>
      <point x="468" y="502"/>
      <point x="549" y="473"/>
      <point x="612" y="415" type="curve"/>
      <point x="635" y="439"/>
      <point x="611" y="416"/>
    </contour>
    <contour>
      <point x="647" y="0" type="curve"/>
      <point x="647" y="267"/>
      <point x="647" y="533"/>
      <point x="647" y="800" type="curve"/>
      <point x="601" y="800"/>
      <point x="647" y="800"/>
      <point x="601" y="800" type="curve"/>
      <point x="601" y="533"/>
      <point x="601" y="267"/>
      <point x="601" y="0" type="curve"/>
      <point x="647" y="0"/>
      <point x="601" y="0"/>
    </contour>
  </outline>
</glyph>
<glyph name="f" format="1">
  <advance width="574"/>
  <unicode hex="0066"/>
  <outline>
    <contour>
      <point x="22" y="497" type="curve"/>
      <point x="547" y="497" type="line"/>
      <point x="547" y="533"/>
      <point x="547" y="497"/>
      <point x="547" y="533" type="curve"/>
      <point x="22" y="533" type="line"/>
      <point x="22" y="497"/>
      <point x="22" y="533"/>
    </contour>
    <contour>
      <point x="278" y="0" type="curve"/>
      <point x="278" y="634" type="line"/>
      <point x="278" y="722"/>
      <point x="340" y="769"/>
      <point x="432" y="769" type="curve"/>
      <point x="474" y="769"/>
      <point x="515" y="758"/>
      <point x="554" y="743" type="curve"/>
      <point x="571" y="771"/>
      <point x="554" y="743"/>
      <point x="571" y="771" type="curve"/>
      <point x="527" y="789"/>
      <point x="479" y="804"/>
      <point x="432" y="804" type="curve"/>
      <point x="316" y="804"/>
      <point x="234" y="746"/>
      <point x="234" y="634" type="curve"/>
      <point x="234" y="0" type="line"/>
      <point x="278" y="0"/>
      <point x="234" y="0"/>
    </contour>
  </outline>
</glyph>
<glyph name="g" format="1">
  <advance width="633"/>
  <unicode hex="0067"/>
  <outline>
    <contour>
      <point x="431" y="491" type="curve"/>
      <point x="623" y="566" type="line"/>
      <point x="622" y="568"/>
      <point x="605" y="600"/>
      <point x="603" y="602" type="curve"/>
      <point x="408" y="517" type="line"/>
      <point x="431" y="491"/>
      <point x="408" y="517"/>
    </contour>
    <contour>
      <point x="112" y="355" type="curve"/>
      <point x="112" y="454"/>
      <point x="202" y="503"/>
      <point x="314" y="503" type="curve"/>
      <point x="425" y="503"/>
      <point x="511" y="457"/>
      <point x="511" y="357" type="curve"/>
      <point x="511" y="262"/>
      <point x="423" y="216"/>
      <point x="312" y="216" type="curve"/>
      <point x="204" y="216"/>
      <point x="112" y="257"/>
      <point x="112" y="355" type="curve"/>
      <point x="67" y="353"/>
      <point x="112" y="355"/>
      <point x="67" y="353" type="curve"/>
      <point x="67" y="233"/>
      <point x="176" y="182"/>
      <point x="309" y="182" type="curve"/>
      <point x="445" y="182"/>
      <point x="555" y="235"/>
      <point x="555" y="359" type="curve"/>
      <point x="555" y="481"/>
      <point x="448" y="538"/>
      <point x="314" y="538" type="curve"/>
      <point x="176" y="538"/>
      <point x="67" y="478"/>
      <point x="67" y="353" type="curve"/>
      <point x="112" y="355"/>
      <point x="67" y="353"/>
    </contour>
    <contour>
      <point x="175" y="230" type="curve"/>
      <point x="117" y="206"/>
      <point x="73" y="172"/>
      <point x="73" y="110" type="curve"/>
      <point x="73" y="5"/>
      <point x="185" y="-8"/>
      <point x="304" y="-16" type="curve"/>
      <point x="443" y="-25"/>
      <point x="583" y="-23"/>
      <point x="583" y="-140" type="curve"/>
      <point x="583" y="-250"/>
      <point x="450" y="-269"/>
      <point x="310" y="-269" type="curve"/>
      <point x="177" y="-269"/>
      <point x="57" y="-238"/>
      <point x="57" y="-129" type="curve"/>
      <point x="57" y="-53"/>
      <point x="117" y="-15"/>
      <point x="189" y="8" type="curve"/>
      <point x="167" y="30"/>
      <point x="189" y="8"/>
      <point x="167" y="30" type="curve"/>
      <point x="82" y="3"/>
      <point x="14" y="-41"/>
      <point x="14" y="-131" type="curve"/>
      <point x="14" y="-268"/>
      <point x="151" y="-304"/>
      <point x="308" y="-304" type="curve"/>
      <point x="473" y="-304"/>
      <point x="626" y="-281"/>
      <point x="623" y="-137" type="curve"/>
      <point x="623" y="5"/>
      <point x="469" y="8"/>
      <point x="311" y="18" type="curve"/>
      <point x="212" y="23"/>
      <point x="116" y="28"/>
      <point x="116" y="114" type="curve"/>
      <point x="116" y="162"/>
      <point x="150" y="188"/>
      <point x="195" y="209" type="curve"/>
      <point x="175" y="230"/>
      <point x="195" y="209"/>
    </contour>
    <contour>
      <point x="314" y="662" type="move" name="top"/>
    </contour>
  </outline>
</glyph>
<glyph name="h" format="1">
  <advance width="714"/>
  <unicode hex="0068"/>
  <outline>
    <contour>
      <point x="135" y="342" type="curve"/>
      <point x="181" y="442"/>
      <point x="282" y="502"/>
      <point x="390" y="502" type="curve"/>
      <point x="506" y="502"/>
      <point x="577" y="446"/>
      <point x="577" y="334" type="curve"/>
      <point x="577" y="223"/>
      <point x="577" y="112"/>
      <point x="577" y="0" type="curve"/>
      <point x="620" y="0"/>
      <point x="577" y="0"/>
      <point x="620" y="0" type="curve"/>
      <point x="620" y="114"/>
      <point x="620" y="226"/>
      <point x="620" y="340" type="curve"/>
      <point x="620" y="474"/>
      <point x="535" y="538"/>
      <point x="397" y="538" type="curve"/>
      <point x="274" y="538"/>
      <point x="159" y="476"/>
      <point x="114" y="359" type="curve"/>
      <point x="136" y="341"/>
      <point x="113" y="360"/>
    </contour>
    <contour>
      <point x="145" y="0" type="curve"/>
      <point x="145" y="267"/>
      <point x="145" y="533"/>
      <point x="145" y="800" type="curve"/>
      <point x="101" y="800"/>
      <point x="145" y="800"/>
      <point x="101" y="800" type="curve"/>
      <point x="101" y="533"/>
      <point x="101" y="267"/>
      <point x="101" y="0" type="curve"/>
      <point x="145" y="0"/>
      <point x="101" y="0"/>
    </contour>
  </outline>
</glyph>
<glyph name="i" format="1">
  <advance width="259"/>
  <unicode hex="0069"/>
  <outline>
    <contour>
      <point x="151" y="0" type="curve"/>
      <point x="151" y="178"/>
      <point x="151" y="355"/>
      <point x="151" y="533" type="curve"/>
      <point x="104" y="533"/>
      <point x="151" y="533"/>
      <point x="104" y="533" type="curve"/>
      <point x="104" y="355"/>
      <point x="104" y="178"/>
      <point x="104" y="0" type="curve"/>
      <point x="151" y="0"/>
      <point x="104" y="0"/>
    </contour>
    <contour>
      <point x="159" y="686" type="curve"/>
      <point x="159" y="704"/>
      <point x="146" y="714"/>
      <point x="127" y="714" type="curve"/>
      <point x="109" y="714"/>
      <point x="97" y="703"/>
      <point x="97" y="686" type="curve"/>
      <point x="139" y="686"/>
      <point x="117" y="686"/>
      <point x="159" y="686" type="curve"/>
      <point x="159" y="668"/>
      <point x="146" y="658"/>
      <point x="127" y="658" type="curve"/>
      <point x="109" y="658"/>
      <point x="97" y="668"/>
      <point x="97" y="686" type="curve"/>
      <point x="139" y="686"/>
      <point x="117" y="686"/>
    </contour>
    <contour>
      <point x="126" y="661" type="move" name="top"/>
    </contour>
    <contour>
      <point x="149" y="2" type="move" name="bottom"/>
    </contour>
  </outline>
</glyph>
<glyph name="j" format="1">
  <advance width="261"/>
  <unicode hex="006A"/>
  <outline>
    <contour>
      <point x="-94" y="-301" type="curve"/>
      <point x="-83" y="-301"/>
      <point x="-69" y="-304"/>
      <point x="-55" y="-304" type="curve"/>
      <point x="61" y="-304"/>
      <point x="155" y="-250"/>
      <point x="155" y="-139" type="curve"/>
      <point x="155" y="85"/>
      <point x="155" y="309"/>
      <point x="155" y="533" type="curve"/>
      <point x="112" y="533"/>
      <point x="155" y="533"/>
      <point x="112" y="533" type="curve"/>
      <point x="112" y="309"/>
      <point x="112" y="85"/>
      <point x="112" y="-139" type="curve"/>
      <point x="112" y="-225"/>
      <point x="38" y="-269"/>
      <point x="-54" y="-269" type="curve"/>
      <point x="-65" y="-269"/>
      <point x="-80" y="-267"/>
      <point x="-87" y="-266" type="curve"/>
      <point x="-93" y="-301"/>
      <point x="-87" y="-266"/>
    </contour>
    <contour>
      <point x="167" y="685" type="curve"/>
      <point x="167" y="703"/>
      <point x="154" y="713"/>
      <point x="135" y="713" type="curve"/>
      <point x="117" y="713"/>
      <point x="105" y="702"/>
      <point x="105" y="685" type="curve"/>
      <point x="147" y="685"/>
      <point x="125" y="685"/>
      <point x="167" y="685" type="curve"/>
      <point x="167" y="667"/>
      <point x="154" y="657"/>
      <point x="135" y="657" type="curve"/>
      <point x="117" y="657"/>
      <point x="105" y="668"/>
      <point x="105" y="685" type="curve"/>
      <point x="147" y="685"/>
      <point x="125" y="685"/>
    </contour>
  </outline>
</glyph>
<glyph name="k" format="1">
  <advance width="582"/>
  <unicode hex="006B"/>
  <outline>
    <contour>
      <point x="145" y="0" type="curve"/>
      <point x="145" y="800" type="line"/>
      <point x="101" y="800"/>
      <point x="145" y="800"/>
      <point x="101" y="800" type="curve"/>
      <point x="101" y="533"/>
      <point x="101" y="267"/>
      <point x="101" y="0" type="curve"/>
      <point x="145" y="0"/>
      <point x="101" y="0"/>
    </contour>
    <contour>
      <point x="477" y="533" type="curve"/>
      <point x="129" y="275" type="line"/>
      <point x="193" y="275"/>
      <point x="128" y="275"/>
      <point x="193" y="275" type="curve"/>
      <point x="542" y="533" type="line"/>
      <point x="475" y="533"/>
      <point x="544" y="533"/>
    </contour>
    <contour>
      <point x="574" y="0" type="curve"/>
      <point x="192" y="275" type="line"/>
      <point x="128" y="275"/>
      <point x="193" y="275"/>
      <point x="129" y="275" type="curve"/>
      <point x="507" y="0" type="line"/>
      <point x="578" y="0"/>
      <point x="504" y="0"/>
    </contour>
    <contour>
      <point x="381" y="-5" type="move" name="bottom"/>
    </contour>
  </outline>
</glyph>
<glyph name="m" format="1">
  <advance width="1089"/>
  <unicode hex="006D"/>
  <outline>
    <contour>
      <point x="560" y="340" type="curve"/>
      <point x="607" y="440"/>
      <point x="683" y="502"/>
      <point x="787" y="502" type="curve"/>
      <point x="899" y="502"/>
      <point x="950" y="450"/>
      <point x="950" y="336" type="curve"/>
      <point x="950" y="225"/>
      <point x="950" y="112"/>
      <point x="950" y="0" type="curve"/>
      <point x="994" y="0"/>
      <point x="950" y="0"/>
      <point x="994" y="0" type="curve"/>
      <point x="994" y="114"/>
      <point x="994" y="226"/>
      <point x="994" y="340" type="curve"/>
      <point x="994" y="476"/>
      <point x="932" y="538"/>
      <point x="796" y="538" type="curve"/>
      <point x="676" y="538"/>
      <point x="585" y="474"/>
      <point x="538" y="358" type="curve"/>
      <point x="560" y="340"/>
      <point x="538" y="358"/>
    </contour>
    <contour>
      <point x="135" y="341" type="curve"/>
      <point x="183" y="442"/>
      <point x="257" y="502"/>
      <point x="362" y="502" type="curve"/>
      <point x="473" y="502"/>
      <point x="525" y="450"/>
      <point x="525" y="336" type="curve"/>
      <point x="525" y="225"/>
      <point x="525" y="112"/>
      <point x="525" y="0" type="curve"/>
      <point x="569" y="0"/>
      <point x="525" y="0"/>
      <point x="569" y="0" type="curve"/>
      <point x="569" y="114"/>
      <point x="569" y="226"/>
      <point x="569" y="340" type="curve"/>
      <point x="569" y="476"/>
      <point x="507" y="538"/>
      <point x="372" y="538" type="curve"/>
      <point x="250" y="538"/>
      <point x="164" y="476"/>
      <point x="113" y="359" type="curve"/>
      <point x="135" y="341"/>
      <point x="113" y="359"/>
    </contour>
    <contour>
      <point x="145" y="0" type="curve"/>
      <point x="145" y="178"/>
      <point x="145" y="355"/>
      <point x="145" y="533" type="curve"/>
      <point x="101" y="533"/>
      <point x="145" y="533"/>
      <point x="101" y="533" type="curve"/>
      <point x="101" y="355"/>
      <point x="101" y="178"/>
      <point x="101" y="0" type="curve"/>
      <point x="145" y="0"/>
      <point x="101" y="0"/>
    </contour>
  </outline>
</glyph>
<glyph name="n" format="1">
  <advance width="714"/>
  <unicode hex="006E"/>
  <outline>
    <contour>
      <point x="135" y="337" type="curve"/>
      <point x="180" y="440"/>
      <point x="278" y="502"/>
      <point x="388" y="502" type="curve"/>
      <point x="503" y="502"/>
      <point x="577" y="447"/>
      <point x="577" y="336" type="curve"/>
      <point x="577" y="223"/>
      <point x="577" y="113"/>
      <point x="577" y="0" type="curve"/>
      <point x="608" y="0"/>
      <point x="590" y="0"/>
      <point x="621" y="0" type="curve"/>
      <point x="621" y="115"/>
      <point x="621" y="225"/>
      <point x="621" y="340" type="curve"/>
      <point x="621" y="474"/>
      <point x="536" y="538"/>
      <point x="397" y="538" type="curve"/>
      <point x="271" y="538"/>
      <point x="157" y="475"/>
      <point x="113" y="355" type="curve"/>
      <point x="128" y="341"/>
      <point x="120" y="350"/>
    </contour>
    <contour>
      <point x="145" y="0" type="curve"/>
      <point x="145" y="178"/>
      <point x="145" y="355"/>
      <point x="145" y="533" type="curve"/>
      <point x="101" y="533"/>
      <point x="145" y="533"/>
      <point x="101" y="533" type="curve"/>
      <point x="101" y="355"/>
      <point x="101" y="178"/>
      <point x="101" y="0" type="curve"/>
      <point x="145" y="0"/>
      <point x="101" y="0"/>
    </contour>
    <contour>
      <point x="367" y="661" type="move" name="top"/>
    </contour>
    <contour>
      <point x="401" y="-2" type="move" name="bottom"/>
    </contour>
  </outline>
</glyph>
<glyph name="p" format="1">
  <advance width="741"/>
  <unicode hex="0070"/>
  <outline>
    <contour>
      <point x="131" y="401" type="curve"/>
      <point x="186" y="459"/>
      <point x="283" y="503"/>
      <point x="393" y="503" type="curve"/>
      <point x="538" y="503"/>
      <point x="637" y="415"/>
      <point x="637" y="274" type="curve"/>
      <point x="640" y="126"/>
      <point x="542" y="29"/>
      <point x="394" y="31" type="curve"/>
      <point x="289" y="31"/>
      <point x="213" y="68"/>
      <point x="133" y="133" type="curve"/>
      <point x="115" y="119"/>
      <point x="127" y="125"/>
      <point x="109" y="111" type="curve"/>
      <point x="195" y="36"/>
      <point x="280" y="-5"/>
      <point x="396" y="-5" type="curve"/>
      <point x="568" y="-5"/>
      <point x="681" y="106"/>
      <point x="680" y="276" type="curve"/>
      <point x="680" y="438"/>
      <point x="564" y="538"/>
      <point x="398" y="538" type="curve"/>
      <point x="277" y="538"/>
      <point x="174" y="492"/>
      <point x="112" y="426" type="curve"/>
      <point x="127" y="408"/>
      <point x="116" y="419"/>
    </contour>
    <contour>
      <point x="144" y="-300" type="curve"/>
      <point x="144" y="-22"/>
      <point x="144" y="255"/>
      <point x="144" y="533" type="curve"/>
      <point x="101" y="533"/>
      <point x="144" y="533"/>
      <point x="101" y="533" type="curve"/>
      <point x="101" y="255"/>
      <point x="101" y="-22"/>
      <point x="101" y="-300" type="curve"/>
      <point x="144" y="-300"/>
      <point x="101" y="-300"/>
    </contour>
  </outline>
</glyph>
<glyph name="q" format="1">
  <advance width="750"/>
  <unicode hex="0071"/>
  <outline>
    <contour>
      <point x="637" y="433" type="curve"/>
      <point x="558" y="499"/>
      <point x="455" y="538"/>
      <point x="349" y="538" type="curve"/>
      <point x="176" y="538"/>
      <point x="62" y="434"/>
      <point x="62" y="264" type="curve"/>
      <point x="62" y="94"/>
      <point x="180" y="-5"/>
      <point x="353" y="-5" type="curve"/>
      <point x="466" y="-5"/>
      <point x="566" y="45"/>
      <point x="640" y="126" type="curve"/>
      <point x="621" y="142"/>
      <point x="636" y="136"/>
      <point x="618" y="152" type="curve"/>
      <point x="550" y="74"/>
      <point x="458" y="31"/>
      <point x="356" y="31" type="curve"/>
      <point x="209" y="31"/>
      <point x="106" y="118"/>
      <point x="106" y="265" type="curve"/>
      <point x="106" y="413"/>
      <point x="205" y="502"/>
      <point x="354" y="502" type="curve"/>
      <point x="451" y="502"/>
      <point x="546" y="465"/>
      <point x="620" y="407" type="curve"/>
      <point x="636" y="424"/>
      <point x="622" y="416"/>
    </contour>
    <contour>
      <point x="649" y="-300" type="curve"/>
      <point x="649" y="-18"/>
      <point x="649" y="251"/>
      <point x="649" y="533" type="curve"/>
      <point x="616" y="533"/>
      <point x="635" y="533"/>
      <point x="602" y="533" type="curve"/>
      <point x="602" y="251"/>
      <point x="602" y="-18"/>
      <point x="602" y="-300" type="curve"/>
      <point x="635" y="-300"/>
      <point x="616" y="-300"/>
    </contour>
  </outline>
</glyph>
<glyph name="r" format="1">
  <advance width="455"/>
  <unicode hex="0072"/>
  <outline>
    <contour>
      <point x="145" y="0" type="curve"/>
      <point x="145" y="182"/>
      <point x="145" y="351"/>
      <point x="145" y="533" type="curve"/>
      <point x="114" y="533"/>
      <point x="132" y="533"/>
      <point x="101" y="533" type="curve"/>
      <point x="101" y="351"/>
      <point x="101" y="182"/>
      <point x="101" y="0" type="curve"/>
      <point x="132" y="0"/>
      <point x="114" y="0"/>
    </contour>
    <contour>
      <point x="133" y="339" type="curve"/>
      <point x="200" y="462"/>
      <point x="314" y="499"/>
      <point x="443" y="499" type="curve"/>
      <point x="443" y="527"/>
      <point x="443" y="510"/>
      <point x="443" y="538" type="curve"/>
      <point x="306" y="538"/>
      <point x="176" y="487"/>
      <point x="120" y="370" type="curve"/>
      <point x="134" y="349"/>
      <point x="119" y="359"/>
    </contour>
    <contour>
      <point x="138" y="662" type="move" name="top"/>
    </contour>
    <contour>
      <point x="153" y="0" type="move" name="bottom"/>
    </contour>
  </outline>
</glyph>
<glyph name="s" format="1">
  <advance width="555"/>
  <unicode hex="0073"/>
  <outline>
    <contour>
      <point x="47" y="50" type="curve"/>
      <point x="128" y="18"/>
      <point x="200" y="-5"/>
      <point x="284" y="-5" type="curve"/>
      <point x="410" y="-5"/>
      <point x="503" y="30"/>
      <point x="503" y="143" type="curve"/>
      <point x="502" y="255"/>
      <point x="398" y="265"/>
      <point x="280" y="293" type="curve" smooth="yes"/>
      <point x="191" y="315"/>
      <point x="113" y="334"/>
      <point x="113" y="411" type="curve"/>
      <point x="113" y="482"/>
      <point x="178" y="502"/>
      <point x="263" y="502" type="curve"/>
      <point x="325" y="502"/>
      <point x="399" y="482"/>
      <point x="445" y="459" type="curve"/>
      <point x="463" y="490"/>
      <point x="445" y="460"/>
      <point x="463" y="491" type="curve"/>
      <point x="415" y="515"/>
      <point x="333" y="538"/>
      <point x="264" y="538" type="curve"/>
      <point x="155" y="538"/>
      <point x="73" y="508"/>
      <point x="73" y="411" type="curve"/>
      <point x="73" y="310"/>
      <point x="158" y="285"/>
      <point x="265" y="259" type="curve" smooth="yes"/>
      <point x="365" y="233"/>
      <point x="461" y="229"/>
      <point x="461" y="142" type="curve"/>
      <point x="461" y="58"/>
      <point x="387" y="31"/>
      <point x="291" y="31" type="curve"/>
      <point x="211" y="31"/>
      <point x="146" y="53"/>
      <point x="66" y="84" type="curve"/>
      <point x="47" y="50"/>
      <point x="66" y="84"/>
    </contour>
    <contour>
      <point x="266" y="662" type="move" name="top"/>
    </contour>
    <contour>
      <point x="304" y="-6" type="move" name="bottom"/>
    </contour>
  </outline>
</glyph>
<glyph name="t" format="1">
  <advance width="518"/>
  <unicode hex="0074"/>
  <outline>
    <contour>
      <point x="15" y="497" type="curve"/>
      <point x="508" y="497" type="line"/>
      <point x="508" y="533"/>
      <point x="508" y="497"/>
      <point x="508" y="533" type="curve"/>
      <point x="15" y="533" type="line"/>
      <point x="15" y="497"/>
      <point x="15" y="533"/>
    </contour>
    <contour>
      <point x="481" y="60" type="curve"/>
      <point x="438" y="42"/>
      <point x="406" y="32"/>
      <point x="360" y="32" type="curve"/>
      <point x="279" y="32"/>
      <point x="234" y="67"/>
      <point x="234" y="150" type="curve"/>
      <point x="234" y="676" type="line"/>
      <point x="213" y="664"/>
      <point x="210" y="663"/>
      <point x="190" y="650" type="curve"/>
      <point x="190" y="147" type="line"/>
      <point x="190" y="44"/>
      <point x="252" y="-5"/>
      <point x="356" y="-5" type="curve"/>
      <point x="410" y="-5"/>
      <point x="447" y="9"/>
      <point x="495" y="28" type="curve"/>
      <point x="481" y="60"/>
      <point x="495" y="28"/>
    </contour>
    <contour>
      <point x="368" y="-5" type="move" name="bottom"/>
    </contour>
  </outline>
</glyph>
<glyph name="u" format="1">
  <advance width="705"/>
  <unicode hex="0075"/>
  <outline>
    <contour>
      <point x="604" y="0" type="curve"/>
      <point x="604" y="180"/>
      <point x="604" y="353"/>
      <point x="604" y="533" type="curve"/>
      <point x="574" y="533"/>
      <point x="591" y="533"/>
      <point x="560" y="533" type="curve"/>
      <point x="560" y="353"/>
      <point x="560" y="180"/>
      <point x="560" y="0" type="curve"/>
      <point x="591" y="0"/>
      <point x="574" y="0"/>
    </contour>
    <contour>
      <point x="571" y="180" type="curve"/>
      <point x="521" y="95"/>
      <point x="432" y="31"/>
      <point x="334" y="31" type="curve"/>
      <point x="214" y="31"/>
      <point x="137" y="79"/>
      <point x="137" y="192" type="curve"/>
      <point x="137" y="307"/>
      <point x="137" y="418"/>
      <point x="137" y="533" type="curve"/>
      <point x="107" y="533"/>
      <point x="124" y="533"/>
      <point x="93" y="533" type="curve"/>
      <point x="93" y="417"/>
      <point x="93" y="305"/>
      <point x="93" y="189" type="curve"/>
      <point x="93" y="54"/>
      <point x="185" y="-5"/>
      <point x="328" y="-5" type="curve"/>
      <point x="441" y="-5"/>
      <point x="540" y="65"/>
      <point x="595" y="160" type="curve"/>
      <point x="576" y="173"/>
      <point x="590" y="167"/>
    </contour>
    <contour>
      <point x="332" y="662" type="move" name="top"/>
    </contour>
    <contour>
      <point x="598" y="3" type="move" name="bottom"/>
    </contour>
  </outline>
</glyph>
<glyph name="v" format="1">
  <advance width="650"/>
  <unicode hex="0076"/>
  <outline>
    <contour>
      <point x="31" y="533" type="curve"/>
      <point x="119" y="355"/>
      <point x="208" y="178"/>
      <point x="296" y="0" type="curve"/>
      <point x="340" y="0"/>
      <point x="296" y="0"/>
      <point x="340" y="0" type="curve"/>
      <point x="252" y="178"/>
      <point x="165" y="355"/>
      <point x="77" y="533" type="curve"/>
      <point x="31" y="533"/>
      <point x="77" y="533"/>
    </contour>
    <contour>
      <point x="581" y="533" type="curve"/>
      <point x="302" y="0" type="line"/>
      <point x="347" y="0"/>
      <point x="302" y="0"/>
      <point x="347" y="0" type="curve"/>
      <point x="440" y="178"/>
      <point x="532" y="355"/>
      <point x="625" y="533" type="curve"/>
      <point x="581" y="533"/>
      <point x="625" y="533"/>
    </contour>
  </outline>
</glyph>
<glyph name="w" format="1">
  <advance width="1080"/>
  <unicode hex="0077"/>
  <outline>
    <contour>
      <point x="310" y="0" type="curve"/>
      <point x="398" y="178"/>
      <point x="484" y="355"/>
      <point x="570" y="533" type="curve"/>
      <point x="523" y="533"/>
      <point x="570" y="533"/>
      <point x="523" y="533" type="curve"/>
      <point x="438" y="355"/>
      <point x="352" y="178"/>
      <point x="267" y="0" type="curve"/>
      <point x="310" y="0"/>
      <point x="267" y="0"/>
    </contour>
    <contour>
      <point x="1005" y="533" type="curve"/>
      <point x="925" y="355"/>
      <point x="845" y="178"/>
      <point x="766" y="0" type="curve"/>
      <point x="810" y="0"/>
      <point x="766" y="0"/>
      <point x="810" y="0" type="curve"/>
      <point x="890" y="178"/>
      <point x="971" y="355"/>
      <point x="1052" y="533" type="curve"/>
      <point x="1005" y="533"/>
      <point x="1052" y="533"/>
    </contour>
    <contour>
      <point x="531" y="533" type="curve"/>
      <point x="609" y="355"/>
      <point x="686" y="178"/>
      <point x="764" y="0" type="curve"/>
      <point x="808" y="0"/>
      <point x="764" y="0"/>
      <point x="808" y="0" type="curve"/>
      <point x="731" y="178"/>
      <point x="654" y="355"/>
      <point x="577" y="533" type="curve"/>
      <point x="531" y="533"/>
      <point x="577" y="533"/>
    </contour>
    <contour>
      <point x="32" y="533" type="curve"/>
      <point x="110" y="355"/>
      <point x="188" y="178"/>
      <point x="266" y="0" type="curve"/>
      <point x="309" y="0"/>
      <point x="266" y="0"/>
      <point x="309" y="0" type="curve"/>
      <point x="233" y="178"/>
      <point x="156" y="355"/>
      <point x="79" y="533" type="curve"/>
      <point x="32" y="533"/>
      <point x="79" y="533"/>
    </contour>
  </outline>
</glyph>
<glyph name="x" format="1">
  <advance width="649"/>
  <unicode hex="0078"/>
  <outline>
    <contour>
      <point x="631" y="0" type="curve"/>
      <point x="478" y="152"/>
      <point x="242" y="381"/>
      <point x="89" y="533" type="curve"/>
      <point x="25" y="533"/>
      <point x="102" y="533"/>
      <point x="37" y="533" type="curve"/>
      <point x="189" y="381"/>
      <point x="423" y="152"/>
      <point x="574" y="0" type="curve"/>
      <point x="631" y="0"/>
      <point x="574" y="0"/>
    </contour>
    <contour>
      <point x="563" y="533" type="curve"/>
      <point x="409" y="381"/>
      <point x="170" y="152"/>
      <point x="15" y="0" type="curve"/>
      <point x="73" y="0"/>
      <point x="15" y="0"/>
      <point x="73" y="0" type="curve"/>
      <point x="226" y="152"/>
      <point x="463" y="381"/>
      <point x="616" y="533" type="curve"/>
      <point x="546" y="533"/>
      <point x="633" y="533"/>
    </contour>
  </outline>
</glyph>
<glyph name="y" format="1">
  <advance width="709"/>
  <unicode hex="0079"/>
  <outline>
    <contour>
      <point x="366" y="6" type="curve"/>
      <point x="284" y="143"/>
      <point x="155" y="396"/>
      <point x="72" y="533" type="curve"/>
      <point x="25" y="533"/>
      <point x="72" y="533"/>
      <point x="25" y="533" type="curve"/>
      <point x="110" y="395"/>
      <point x="242" y="137"/>
      <point x="326" y="0" type="curve"/>
      <point x="366" y="0"/>
      <point x="326" y="6"/>
    </contour>
    <contour>
      <point x="186" y="-300" type="curve"/>
      <point x="328" y="-82"/>
      <point x="553" y="315"/>
      <point x="695" y="533" type="curve"/>
      <point x="648" y="533"/>
      <point x="695" y="533"/>
      <point x="648" y="533" type="curve"/>
      <point x="506" y="315"/>
      <point x="281" y="-82"/>
      <point x="139" y="-300" type="curve"/>
      <point x="186" y="-300"/>
      <point x="139" y="-300"/>
    </contour>
    <contour>
      <point x="350" y="661" type="move" name="top"/>
    </contour>
  </outline>
</glyph>
<glyph name="braceright" format="1">
  <advance width="340"/>
  <unicode hex="007D"/>
  <outline>
    <contour>
      <point x="28" y="-122" type="curve"/>
      <point x="130" y="-122"/>
      <point x="196" y="-65"/>
      <point x="196" y="34" type="curve"/>
      <point x="196" y="92"/>
      <point x="196" y="151"/>
      <point x="196" y="209" type="curve"/>
      <point x="196" y="281"/>
      <point x="248" y="320"/>
      <point x="324" y="320" type="curve"/>
      <point x="324" y="357"/>
      <point x="324" y="320"/>
      <point x="324" y="357" type="curve"/>
      <point x="224" y="357"/>
      <point x="157" y="301"/>
      <point x="157" y="205" type="curve"/>
      <point x="157" y="148"/>
      <point x="157" y="90"/>
      <point x="157" y="32" type="curve"/>
      <point x="157" y="-43"/>
      <point x="106" y="-87"/>
      <point x="28" y="-87" type="curve"/>
      <point x="28" y="-122"/>
      <point x="28" y="-87"/>
    </contour>
    <contour>
      <point x="28" y="763" type="curve"/>
      <point x="106" y="763"/>
      <point x="156" y="720"/>
      <point x="156" y="644" type="curve"/>
      <point x="156" y="587"/>
      <point x="156" y="529"/>
      <point x="156" y="472" type="curve"/>
      <point x="156" y="374"/>
      <point x="224" y="320"/>
      <point x="324" y="320" type="curve"/>
      <point x="324" y="357"/>
      <point x="324" y="320"/>
      <point x="324" y="357" type="curve"/>
      <point x="248" y="357"/>
      <point x="195" y="394"/>
      <point x="195" y="467" type="curve"/>
      <point x="195" y="526"/>
      <point x="195" y="585"/>
      <point x="195" y="644" type="curve"/>
      <point x="195" y="743"/>
      <point x="129" y="798"/>
      <point x="28" y="798" type="curve"/>
      <point x="28" y="763"/>
      <point x="28" y="798"/>
    </contour>
  </outline>
</glyph>
<glyph name="asciitilde" format="1">
  <advance width="819"/>
  <unicode hex="007E"/>
  <outline>
    <contour>
      <point x="697" y="349" type="curve"/>
      <point x="673" y="297"/>
      <point x="637" y="251"/>
      <point x="570" y="251" type="curve"/>
      <point x="510" y="251"/>
      <point x="470" y="264"/>
      <point x="421" y="297" type="curve"/>
      <point x="367" y="332"/>
      <point x="325" y="352"/>
      <point x="262" y="352" type="curve"/>
      <point x="167" y="352"/>
      <point x="116" y="312"/>
      <point x="87" y="230" type="curve"/>
      <point x="110" y="220"/>
      <point x="97" y="225"/>
      <point x="120" y="216" type="curve"/>
      <point x="142" y="278"/>
      <point x="184" y="317"/>
      <point x="259" y="317" type="curve"/>
      <point x="311" y="317"/>
      <point x="346" y="305"/>
      <point x="389" y="275" type="curve"/>
      <point x="449" y="237"/>
      <point x="494" y="217"/>
      <point x="566" y="216" type="curve"/>
      <point x="655" y="216"/>
      <point x="699" y="263"/>
      <point x="732" y="336" type="curve"/>
      <point x="708" y="345"/>
      <point x="721" y="341"/>
    </contour>
  </outline>
</glyph>
<glyph name="exclamdown" format="1">
  <advance width="246"/>
  <unicode hex="00A1"/>
  <outline>
    <contour>
      <point x="106" y="314" type="line"/>
      <point x="99" y="-179" type="line"/>
      <point x="150" y="-179" type="line"/>
      <point x="144" y="314" type="line"/>
    </contour>
    <contour>
      <point x="93" y="523" type="curve"/>
      <point x="93" y="506"/>
      <point x="106" y="497"/>
      <point x="124" y="497" type="curve"/>
      <point x="141" y="497"/>
      <point x="152" y="507"/>
      <point x="152" y="523" type="curve"/>
      <point x="111" y="523"/>
      <point x="134" y="523"/>
      <point x="93" y="523" type="curve"/>
      <point x="93" y="540"/>
      <point x="106" y="549"/>
      <point x="124" y="549" type="curve"/>
      <point x="141" y="549"/>
      <point x="152" y="540"/>
      <point x="152" y="523" type="curve"/>
      <point x="111" y="523"/>
      <point x="134" y="523"/>
    </contour>
  </outline>
</glyph>
<glyph name="cent" format="1">
  <advance width="767"/>
  <unicode hex="00A2"/>
  <outline>
    <contour>
      <point x="421" y="-53" type="curve"/>
      <point x="421" y="-13"/>
      <point x="421" y="27"/>
      <point x="421" y="67" type="curve"/>
      <point x="378" y="67"/>
      <point x="421" y="67"/>
      <point x="378" y="67" type="curve"/>
      <point x="378" y="27"/>
      <point x="378" y="-13"/>
      <point x="378" y="-53" type="curve"/>
      <point x="421" y="-53"/>
      <point x="378" y="-53"/>
    </contour>
    <contour>
      <point x="404" y="778" type="curve"/>
      <point x="404" y="742"/>
      <point x="404" y="706"/>
      <point x="404" y="670" type="curve"/>
      <point x="447" y="670"/>
      <point x="404" y="670"/>
      <point x="447" y="670" type="curve"/>
      <point x="447" y="706"/>
      <point x="447" y="742"/>
      <point x="447" y="778" type="curve"/>
      <point x="404" y="778"/>
      <point x="447" y="778"/>
    </contour>
    <contour>
      <point x="708" y="610" type="curve"/>
      <point x="614" y="661"/>
      <point x="539" y="680"/>
      <point x="432" y="680" type="curve"/>
      <point x="212" y="680"/>
      <point x="56" y="573"/>
      <point x="56" y="366" type="curve"/>
      <point x="56" y="168"/>
      <point x="192" y="53"/>
      <point x="396" y="53" type="curve"/>
      <point x="518" y="53"/>
      <point x="603" y="81"/>
      <point x="706" y="145" type="curve"/>
      <point x="681" y="174"/>
      <point x="706" y="145"/>
      <point x="681" y="174" type="curve"/>
      <point x="587" y="114"/>
      <point x="510" y="89"/>
      <point x="400" y="89" type="curve"/>
      <point x="219" y="89"/>
      <point x="99" y="192"/>
      <point x="99" y="367" type="curve"/>
      <point x="99" y="550"/>
      <point x="236" y="644"/>
      <point x="428" y="644" type="curve"/>
      <point x="528" y="644"/>
      <point x="598" y="627"/>
      <point x="687" y="579" type="curve"/>
      <point x="708" y="610"/>
      <point x="687" y="579"/>
    </contour>
  </outline>
</glyph>
<glyph name="sterling" format="1">
  <advance width="630"/>
  <unicode hex="00A3"/>
  <outline>
    <contour>
      <point x="557" y="36" type="curve"/>
      <point x="384" y="36"/>
      <point x="213" y="36"/>
      <point x="41" y="36" type="curve"/>
      <point x="41" y="1"/>
      <point x="41" y="36"/>
      <point x="41" y="1" type="curve"/>
      <point x="213" y="1"/>
      <point x="385" y="1"/>
      <point x="557" y="1" type="curve"/>
      <point x="557" y="36"/>
      <point x="557" y="1"/>
    </contour>
    <contour>
      <point x="496" y="395" type="curve"/>
      <point x="360" y="395"/>
      <point x="222" y="395"/>
      <point x="86" y="395" type="curve"/>
      <point x="86" y="360"/>
      <point x="86" y="395"/>
      <point x="86" y="360" type="curve"/>
      <point x="222" y="360"/>
      <point x="360" y="360"/>
      <point x="496" y="360" type="curve"/>
      <point x="496" y="395"/>
      <point x="496" y="360"/>
    </contour>
    <contour>
      <point x="573" y="672" type="curve"/>
      <point x="513" y="707"/>
      <point x="467" y="722"/>
      <point x="398" y="722" type="curve"/>
      <point x="229" y="722"/>
      <point x="149" y="565"/>
      <point x="200" y="373" type="curve"/>
      <point x="248" y="192"/>
      <point x="191" y="36"/>
      <point x="41" y="36" type="curve"/>
      <point x="41" y="1"/>
      <point x="41" y="36"/>
      <point x="41" y="1" type="curve"/>
      <point x="226" y="1"/>
      <point x="296" y="175"/>
      <point x="243" y="380" type="curve"/>
      <point x="199" y="547"/>
      <point x="264" y="689"/>
      <point x="396" y="689" type="curve"/>
      <point x="457" y="689"/>
      <point x="499" y="676"/>
      <point x="551" y="645" type="curve"/>
      <point x="573" y="672"/>
      <point x="551" y="645"/>
    </contour>
  </outline>
</glyph>
<glyph name="currency" format="1">
  <advance width="726"/>
  <unicode hex="00A4"/>
  <outline>
    <contour>
      <point x="197" y="311" type="curve"/>
      <point x="197" y="402"/>
      <point x="268" y="449"/>
      <point x="364" y="449" type="curve"/>
      <point x="462" y="449"/>
      <point x="529" y="401"/>
      <point x="529" y="311" type="curve"/>
      <point x="529" y="220"/>
      <point x="464" y="167"/>
      <point x="369" y="167" type="curve"/>
      <point x="268" y="167"/>
      <point x="197" y="216"/>
      <point x="197" y="311" type="curve"/>
      <point x="154" y="311"/>
      <point x="197" y="311"/>
      <point x="154" y="311" type="curve"/>
      <point x="154" y="193"/>
      <point x="243" y="132"/>
      <point x="368" y="132" type="curve"/>
      <point x="488" y="132"/>
      <point x="572" y="197"/>
      <point x="572" y="312" type="curve"/>
      <point x="572" y="425"/>
      <point x="487" y="484"/>
      <point x="368" y="484" type="curve"/>
      <point x="244" y="484"/>
      <point x="154" y="427"/>
      <point x="154" y="311" type="curve"/>
      <point x="197" y="311"/>
      <point x="154" y="311"/>
    </contour>
    <contour>
      <point x="517" y="392" type="line"/>
      <point x="658" y="526" type="line"/>
      <point x="622" y="563" type="line"/>
      <point x="487" y="422" type="line"/>
    </contour>
    <contour>
      <point x="486" y="198" type="line"/>
      <point x="621" y="58" type="line"/>
      <point x="657" y="95" type="line"/>
      <point x="516" y="229" type="line"/>
    </contour>
    <contour>
      <point x="207" y="229" type="line"/>
      <point x="67" y="95" type="line"/>
      <point x="103" y="58" type="line"/>
      <point x="238" y="199" type="line"/>
    </contour>
    <contour>
      <point x="238" y="423" type="line"/>
      <point x="103" y="563" type="line"/>
      <point x="67" y="526" type="line"/>
      <point x="208" y="392" type="line"/>
    </contour>
  </outline>
</glyph>
<glyph name="yen" format="1">
  <advance width="757"/>
  <unicode hex="00A5"/>
  <outline>
    <contour>
      <point x="664" y="383" type="curve"/>
      <point x="574" y="383"/>
      <point x="484" y="383"/>
      <point x="394" y="383" type="curve"/>
      <point x="394" y="344"/>
      <point x="394" y="383"/>
      <point x="394" y="344" type="curve"/>
      <point x="484" y="344"/>
      <point x="574" y="344"/>
      <point x="664" y="344" type="curve"/>
      <point x="664" y="383"/>
      <point x="664" y="344"/>
    </contour>
    <contour>
      <point x="357" y="383" type="curve"/>
      <point x="269" y="383"/>
      <point x="180" y="383"/>
      <point x="92" y="383" type="curve"/>
      <point x="92" y="344"/>
      <point x="92" y="383"/>
      <point x="92" y="344" type="curve"/>
      <point x="180" y="344"/>
      <point x="269" y="344"/>
      <point x="357" y="344" type="curve"/>
      <point x="357" y="383"/>
      <point x="357" y="344"/>
    </contour>
    <contour>
      <point x="664" y="256" type="curve"/>
      <point x="474" y="256"/>
      <point x="282" y="256"/>
      <point x="92" y="256" type="curve"/>
      <point x="92" y="218"/>
      <point x="92" y="256"/>
      <point x="92" y="218" type="curve"/>
      <point x="282" y="218"/>
      <point x="474" y="218"/>
      <point x="664" y="218" type="curve"/>
      <point x="664" y="256"/>
      <point x="664" y="218"/>
    </contour>
    <contour>
      <point x="48" y="722" type="curve"/>
      <point x="147" y="596"/>
      <point x="252" y="463"/>
      <point x="351" y="337" type="curve"/>
      <point x="398" y="337"/>
      <point x="351" y="340"/>
      <point x="397" y="340" type="curve"/>
      <point x="298" y="467"/>
      <point x="199" y="595"/>
      <point x="100" y="722" type="curve"/>
      <point x="55" y="722"/>
      <point x="93" y="722"/>
    </contour>
    <contour>
      <point x="666" y="722" type="curve"/>
      <point x="560" y="595"/>
      <point x="456" y="467"/>
      <point x="352" y="340" type="curve"/>
      <point x="397" y="340"/>
      <point x="351" y="337"/>
      <point x="397" y="337" type="curve"/>
      <point x="502" y="463"/>
      <point x="610" y="596"/>
      <point x="715" y="722" type="curve"/>
      <point x="670" y="722"/>
      <point x="710" y="722"/>
    </contour>
    <contour>
      <point x="398" y="0" type="curve"/>
      <point x="398" y="115"/>
      <point x="398" y="231"/>
      <point x="398" y="346" type="curve"/>
      <point x="350" y="346"/>
      <point x="398" y="346"/>
      <point x="350" y="346" type="curve"/>
      <point x="350" y="231"/>
      <point x="350" y="115"/>
      <point x="350" y="0" type="curve"/>
      <point x="398" y="0"/>
      <point x="350" y="0"/>
    </contour>
  </outline>
</glyph>
<glyph name="section" format="1">
  <advance width="582"/>
  <unicode hex="00A7"/>
  <outline>
    <contour>
      <point x="482" y="708" type="curve"/>
      <point x="416" y="737"/>
      <point x="366" y="751"/>
      <point x="293" y="751" type="curve"/>
      <point x="186" y="751"/>
      <point x="106" y="713"/>
      <point x="106" y="622" type="curve"/>
      <point x="106" y="535"/>
      <point x="178" y="501"/>
      <point x="268" y="476" type="curve"/>
      <point x="370" y="448"/>
      <point x="481" y="451"/>
      <point x="481" y="360" type="curve"/>
      <point x="481" y="284"/>
      <point x="414" y="249"/>
      <point x="326" y="236" type="curve"/>
      <point x="351" y="208"/>
      <point x="326" y="236"/>
      <point x="351" y="208" type="curve"/>
      <point x="450" y="228"/>
      <point x="524" y="267"/>
      <point x="524" y="361" type="curve"/>
      <point x="523" y="475"/>
      <point x="407" y="480"/>
      <point x="289" y="509" type="curve"/>
      <point x="215" y="528"/>
      <point x="149" y="552"/>
      <point x="149" y="622" type="curve"/>
      <point x="149" y="690"/>
      <point x="209" y="716"/>
      <point x="289" y="716" type="curve"/>
      <point x="356" y="716"/>
      <point x="401" y="705"/>
      <point x="465" y="678" type="curve"/>
      <point x="482" y="708"/>
      <point x="465" y="678"/>
    </contour>
    <contour>
      <point x="227" y="515" type="curve"/>
      <point x="135" y="493"/>
      <point x="63" y="457"/>
      <point x="63" y="367" type="curve"/>
      <point x="63" y="260"/>
      <point x="166" y="243"/>
      <point x="278" y="216" type="curve"/>
      <point x="362" y="193"/>
      <point x="444" y="179"/>
      <point x="444" y="104" type="curve"/>
      <point x="444" y="36"/>
      <point x="378" y="6"/>
      <point x="295" y="6" type="curve"/>
      <point x="219" y="6"/>
      <point x="168" y="22"/>
      <point x="100" y="56" type="curve"/>
      <point x="78" y="29"/>
      <point x="100" y="56"/>
      <point x="78" y="29" type="curve"/>
      <point x="151" y="-12"/>
      <point x="209" y="-29"/>
      <point x="293" y="-29" type="curve"/>
      <point x="401" y="-29"/>
      <point x="487" y="7"/>
      <point x="487" y="105" type="curve"/>
      <point x="485" y="198"/>
      <point x="403" y="226"/>
      <point x="305" y="248" type="curve"/>
      <point x="207" y="274"/>
      <point x="106" y="282"/>
      <point x="106" y="369" type="curve"/>
      <point x="106" y="443"/>
      <point x="169" y="470"/>
      <point x="248" y="490" type="curve"/>
      <point x="227" y="515"/>
      <point x="248" y="490"/>
    </contour>
  </outline>
</glyph>
<glyph name="dieresis" format="1">
  <advance width="453"/>
  <unicode hex="00A8"/>
  <outline>
    <contour>
      <point x="156" y="656" type="curve"/>
      <point x="156" y="673"/>
      <point x="143" y="682"/>
      <point x="125" y="682" type="curve"/>
      <point x="108" y="682"/>
      <point x="97" y="672"/>
      <point x="97" y="656" type="curve"/>
      <point x="137" y="656"/>
      <point x="115" y="656"/>
      <point x="156" y="656" type="curve"/>
      <point x="156" y="639"/>
      <point x="143" y="630"/>
      <point x="125" y="630" type="curve"/>
      <point x="108" y="630"/>
      <point x="97" y="639"/>
      <point x="97" y="656" type="curve"/>
      <point x="137" y="656"/>
      <point x="115" y="656"/>
    </contour>
    <contour>
      <point x="322" y="656" type="curve"/>
      <point x="322" y="673"/>
      <point x="309" y="682"/>
      <point x="291" y="682" type="curve"/>
      <point x="274" y="682"/>
      <point x="263" y="672"/>
      <point x="263" y="656" type="curve"/>
      <point x="304" y="656"/>
      <point x="281" y="656"/>
      <point x="322" y="656" type="curve"/>
      <point x="322" y="639"/>
      <point x="309" y="630"/>
      <point x="291" y="630" type="curve"/>
      <point x="274" y="630"/>
      <point x="263" y="639"/>
      <point x="263" y="656" type="curve"/>
      <point x="304" y="656"/>
      <point x="281" y="656"/>
    </contour>
    <contour>
      <point x="209" y="630" type="move" name="_top"/>
    </contour>
  </outline>
</glyph>
<glyph name="copyright" format="1">
  <advance width="947"/>
  <unicode hex="00A9"/>
  <outline>
    <contour>
      <point x="106" y="320" type="curve"/>
      <point x="106" y="513"/>
      <point x="271" y="614"/>
      <point x="478" y="614" type="curve"/>
      <point x="680" y="614"/>
      <point x="841" y="510"/>
      <point x="841" y="319" type="curve"/>
      <point x="841" y="132"/>
      <point x="684" y="29"/>
      <point x="486" y="29" type="curve"/>
      <point x="278" y="29"/>
      <point x="106" y="126"/>
      <point x="106" y="320" type="curve"/>
      <point x="68" y="320"/>
      <point x="106" y="320"/>
      <point x="68" y="320" type="curve"/>
      <point x="68" y="108"/>
      <point x="253" y="-2"/>
      <point x="484" y="-2" type="curve"/>
      <point x="706" y="-2"/>
      <point x="879" y="112"/>
      <point x="879" y="320" type="curve"/>
      <point x="879" y="530"/>
      <point x="702" y="645"/>
      <point x="478" y="645" type="curve"/>
      <point x="250" y="645"/>
      <point x="68" y="533"/>
      <point x="68" y="320" type="curve"/>
      <point x="106" y="320"/>
      <point x="68" y="320"/>
    </contour>
    <contour>
      <point x="633" y="464" type="curve"/>
      <point x="585" y="488"/>
      <point x="542" y="499"/>
      <point x="485" y="499" type="curve"/>
      <point x="361" y="499"/>
      <point x="271" y="437"/>
      <point x="271" y="320" type="curve"/>
      <point x="271" y="207"/>
      <point x="352" y="145"/>
      <point x="469" y="145" type="curve"/>
      <point x="539" y="145"/>
      <point x="589" y="155"/>
      <point x="647" y="192" type="curve"/>
      <point x="627" y="216"/>
      <point x="647" y="192"/>
      <point x="627" y="216" type="curve"/>
      <point x="575" y="185"/>
      <point x="531" y="176"/>
      <point x="471" y="176" type="curve"/>
      <point x="375" y="176"/>
      <point x="310" y="228"/>
      <point x="310" y="321" type="curve"/>
      <point x="310" y="417"/>
      <point x="381" y="467"/>
      <point x="484" y="467" type="curve"/>
      <point x="531" y="467"/>
      <point x="566" y="460"/>
      <point x="618" y="439" type="curve"/>
      <point x="633" y="464"/>
      <point x="618" y="439"/>
    </contour>
  </outline>
</glyph>
<glyph name="ordfeminine" format="1">
  <advance width="474"/>
  <unicode hex="00AA"/>
  <outline>
    <contour>
      <point x="387" y="426" type="curve"/>
      <point x="387" y="519"/>
      <point x="387" y="586"/>
      <point x="387" y="678" type="curve"/>
      <point x="387" y="752"/>
      <point x="318" y="768"/>
      <point x="235" y="768" type="curve"/>
      <point x="173" y="768"/>
      <point x="117" y="747"/>
      <point x="80" y="717" type="curve"/>
      <point x="89" y="701"/>
      <point x="85" y="707"/>
      <point x="94" y="691" type="curve"/>
      <point x="126" y="715"/>
      <point x="175" y="738"/>
      <point x="230" y="738" type="curve"/>
      <point x="295" y="738"/>
      <point x="351" y="727"/>
      <point x="351" y="670" type="curve"/>
      <point x="351" y="581"/>
      <point x="351" y="515"/>
      <point x="351" y="426" type="curve"/>
      <point x="374" y="426"/>
      <point x="364" y="426"/>
    </contour>
    <contour>
      <point x="367" y="635" type="curve"/>
      <point x="304" y="628"/>
      <point x="260" y="627"/>
      <point x="196" y="620" type="curve"/>
      <point x="122" y="613"/>
      <point x="65" y="586"/>
      <point x="65" y="517" type="curve"/>
      <point x="65" y="448"/>
      <point x="123" y="420"/>
      <point x="200" y="420" type="curve"/>
      <point x="279" y="420"/>
      <point x="334" y="463"/>
      <point x="377" y="521" type="curve"/>
      <point x="366" y="530"/>
      <point x="370" y="528"/>
      <point x="359" y="537" type="curve"/>
      <point x="323" y="489"/>
      <point x="274" y="449"/>
      <point x="207" y="449" type="curve"/>
      <point x="148" y="449"/>
      <point x="101" y="467"/>
      <point x="101" y="519" type="curve"/>
      <point x="101" y="568"/>
      <point x="142" y="587"/>
      <point x="195" y="593" type="curve"/>
      <point x="259" y="600"/>
      <point x="305" y="602"/>
      <point x="369" y="609" type="curve"/>
      <point x="368" y="624"/>
      <point x="368" y="619"/>
    </contour>
  </outline>
</glyph>
<glyph name="guillemotleft" format="1">
  <advance width="704"/>
  <unicode hex="00AB"/>
  <outline>
    <contour>
      <point x="333" y="410" type="curve"/>
      <point x="322" y="405"/>
      <point x="59" y="302"/>
      <point x="49" y="297" type="curve"/>
      <point x="49" y="259"/>
      <point x="49" y="297"/>
      <point x="49" y="259" type="curve"/>
      <point x="59" y="264"/>
      <point x="322" y="366"/>
      <point x="333" y="371" type="curve"/>
      <point x="333" y="410"/>
      <point x="333" y="371"/>
    </contour>
    <contour>
      <point x="333" y="185" type="curve"/>
      <point x="322" y="190"/>
      <point x="59" y="292"/>
      <point x="49" y="297" type="curve"/>
      <point x="49" y="259"/>
      <point x="49" y="297"/>
      <point x="49" y="259" type="curve"/>
      <point x="59" y="254"/>
      <point x="322" y="152"/>
      <point x="333" y="147" type="curve"/>
      <point x="333" y="185"/>
      <point x="333" y="147"/>
    </contour>
    <contour>
      <point x="624" y="410" type="curve"/>
      <point x="614" y="405"/>
      <point x="351" y="302"/>
      <point x="341" y="297" type="curve"/>
      <point x="341" y="259"/>
      <point x="341" y="297"/>
      <point x="341" y="259" type="curve"/>
      <point x="351" y="264"/>
      <point x="614" y="366"/>
      <point x="624" y="371" type="curve"/>
      <point x="624" y="410"/>
      <point x="624" y="371"/>
    </contour>
    <contour>
      <point x="624" y="185" type="curve"/>
      <point x="614" y="190"/>
      <point x="351" y="292"/>
      <point x="341" y="297" type="curve"/>
      <point x="341" y="259"/>
      <point x="341" y="297"/>
      <point x="341" y="259" type="curve"/>
      <point x="351" y="254"/>
      <point x="614" y="152"/>
      <point x="624" y="147" type="curve"/>
      <point x="624" y="185"/>
      <point x="624" y="147"/>
    </contour>
  </outline>
</glyph>
<glyph name="logicalnot" format="1">
  <advance width="788"/>
  <unicode hex="00AC"/>
  <outline>
    <contour>
      <point x="89" y="290" type="curve"/>
      <point x="696" y="290" type="line"/>
      <point x="696" y="329"/>
      <point x="696" y="290"/>
      <point x="696" y="329" type="curve"/>
      <point x="89" y="329" type="line"/>
      <point x="89" y="290"/>
      <point x="89" y="329"/>
    </contour>
    <contour>
      <point x="696" y="151" type="curve"/>
      <point x="696" y="329" type="line"/>
      <point x="653" y="329"/>
      <point x="698" y="329"/>
      <point x="654" y="329" type="curve"/>
      <point x="654" y="151" type="line"/>
      <point x="698" y="151"/>
      <point x="653" y="151"/>
    </contour>
  </outline>
</glyph>
<glyph name="registered" format="1">
  <advance width="946"/>
  <unicode hex="00AE"/>
  <outline>
    <contour>
      <point x="106" y="320" type="curve"/>
      <point x="106" y="515"/>
      <point x="269" y="616"/>
      <point x="478" y="616" type="curve"/>
      <point x="681" y="616"/>
      <point x="841" y="512"/>
      <point x="841" y="319" type="curve"/>
      <point x="841" y="130"/>
      <point x="685" y="28"/>
      <point x="486" y="28" type="curve"/>
      <point x="276" y="28"/>
      <point x="106" y="124"/>
      <point x="106" y="320" type="curve"/>
      <point x="79" y="320"/>
      <point x="95" y="320"/>
      <point x="69" y="320" type="curve"/>
      <point x="69" y="106"/>
      <point x="252" y="-3"/>
      <point x="484" y="-3" type="curve"/>
      <point x="706" y="-3"/>
      <point x="877" y="111"/>
      <point x="877" y="320" type="curve"/>
      <point x="877" y="532"/>
      <point x="703" y="645"/>
      <point x="478" y="645" type="curve"/>
      <point x="249" y="645"/>
      <point x="69" y="534"/>
      <point x="69" y="320" type="curve"/>
      <point x="95" y="320"/>
      <point x="79" y="320"/>
    </contour>
    <contour>
      <point x="481" y="310" type="curve"/>
      <point x="489" y="298"/>
      <point x="587" y="160"/>
      <point x="595" y="148" type="curve"/>
      <point x="618" y="148"/>
      <point x="608" y="148"/>
      <point x="636" y="148" type="curve"/>
      <point x="628" y="160"/>
      <point x="531" y="297"/>
      <point x="523" y="310" type="curve"/>
      <point x="479" y="309"/>
      <point x="525" y="310"/>
    </contour>
    <contour>
      <point x="398" y="148" type="curve"/>
      <point x="398" y="257"/>
      <point x="398" y="384"/>
      <point x="398" y="494" type="curve"/>
      <point x="376" y="494"/>
      <point x="384" y="494"/>
      <point x="360" y="494" type="curve"/>
      <point x="360" y="384"/>
      <point x="360" y="257"/>
      <point x="360" y="148" type="curve"/>
      <point x="384" y="148"/>
      <point x="377" y="148"/>
    </contour>
    <contour>
      <point x="382" y="291" type="curve"/>
      <point x="408" y="291"/>
      <point x="435" y="291"/>
      <point x="461" y="291" type="curve"/>
      <point x="548" y="291"/>
      <point x="613" y="312"/>
      <point x="613" y="392" type="curve"/>
      <point x="613" y="464"/>
      <point x="552" y="494"/>
      <point x="473" y="494" type="curve"/>
      <point x="449" y="494"/>
      <point x="422" y="494"/>
      <point x="397" y="494" type="curve"/>
      <point x="360" y="463"/>
      <point x="399" y="494"/>
      <point x="360" y="462" type="curve"/>
      <point x="396" y="462"/>
      <point x="431" y="462"/>
      <point x="466" y="462" type="curve"/>
      <point x="527" y="462"/>
      <point x="575" y="444"/>
      <point x="575" y="390" type="curve"/>
      <point x="575" y="333"/>
      <point x="528" y="322"/>
      <point x="466" y="322" type="curve"/>
      <point x="438" y="322"/>
      <point x="410" y="322"/>
      <point x="382" y="322" type="curve"/>
      <point x="382" y="291"/>
      <point x="382" y="322"/>
    </contour>
  </outline>
</glyph>
<glyph name="macron" format="1">
  <advance width="392"/>
  <unicode hex="00AF"/>
  <outline>
    <contour>
      <point x="327" y="677" type="curve"/>
      <point x="231" y="677"/>
      <point x="135" y="677"/>
      <point x="39" y="677" type="curve"/>
      <point x="39" y="642"/>
      <point x="39" y="677"/>
      <point x="39" y="642" type="curve"/>
      <point x="135" y="642"/>
      <point x="231" y="642"/>
      <point x="327" y="642" type="curve"/>
      <point x="327" y="677"/>
      <point x="327" y="642"/>
    </contour>
    <contour>
      <point x="187" y="642" type="move" name="_top"/>
    </contour>
  </outline>
</glyph>
<glyph name="degree" format="1">
  <advance width="563"/>
  <unicode hex="00B0"/>
  <outline>
    <contour>
      <point x="495" y="441" type="curve"/>
      <point x="495" y="570"/>
      <point x="412" y="648"/>
      <point x="281" y="648" type="curve"/>
      <point x="152" y="648"/>
      <point x="69" y="570"/>
      <point x="69" y="443" type="curve"/>
      <point x="107" y="443"/>
      <point x="70" y="443"/>
      <point x="108" y="443" type="curve"/>
      <point x="108" y="548"/>
      <point x="173" y="614"/>
      <point x="279" y="614" type="curve"/>
      <point x="386" y="614"/>
      <point x="456" y="548"/>
      <point x="456" y="441" type="curve"/>
      <point x="456" y="331"/>
      <point x="390" y="261"/>
      <point x="282" y="261" type="curve"/>
      <point x="173" y="261"/>
      <point x="108" y="333"/>
      <point x="108" y="443" type="curve"/>
      <point x="70" y="443"/>
      <point x="107" y="443"/>
      <point x="69" y="443" type="curve"/>
      <point x="69" y="311"/>
      <point x="149" y="226"/>
      <point x="280" y="226" type="curve"/>
      <point x="413" y="226"/>
      <point x="495" y="309"/>
    </contour>
  </outline>
</glyph>
<glyph name="plusminus" format="1">
  <advance width="745"/>
  <unicode hex="00B1"/>
  <outline>
    <contour>
      <point x="68" y="18" type="line"/>
      <point x="677" y="18" type="line"/>
      <point x="677" y="58" type="line"/>
      <point x="68" y="58" type="line"/>
    </contour>
    <contour>
      <point x="68" y="290" type="curve"/>
      <point x="677" y="290" type="line"/>
      <point x="677" y="329"/>
      <point x="677" y="290"/>
      <point x="677" y="329" type="curve"/>
      <point x="68" y="329" type="line"/>
      <point x="68" y="290"/>
      <point x="68" y="329"/>
    </contour>
    <contour>
      <point x="390" y="19" type="curve"/>
      <point x="390" y="588" type="line"/>
      <point x="346" y="588"/>
      <point x="391" y="588"/>
      <point x="348" y="588" type="curve"/>
      <point x="348" y="19" type="line"/>
      <point x="391" y="19"/>
      <point x="346" y="19"/>
    </contour>
  </outline>
</glyph>
<glyph name="twosuperior" format="1">
  <advance width="548"/>
  <unicode hex="00B2"/>
  <outline>
    <contour>
      <point x="63" y="291" type="curve"/>
      <point x="213" y="291"/>
      <point x="344" y="291"/>
      <point x="476" y="291" type="curve"/>
      <point x="476" y="311"/>
      <point x="476" y="307"/>
      <point x="476" y="325" type="curve"/>
      <point x="344" y="325"/>
      <point x="196" y="325"/>
      <point x="63" y="325" type="curve"/>
      <point x="63" y="291"/>
      <point x="63" y="325"/>
    </contour>
    <contour>
      <point x="126" y="605" type="curve"/>
      <point x="165" y="653"/>
      <point x="211" y="676"/>
      <point x="277" y="676" type="curve"/>
      <point x="350" y="676"/>
      <point x="407" y="651"/>
      <point x="407" y="587" type="curve"/>
      <point x="407" y="529"/>
      <point x="361" y="507"/>
      <point x="312" y="475" type="curve"/>
      <point x="229" y="425"/>
      <point x="146" y="375"/>
      <point x="63" y="325" type="curve"/>
      <point x="72" y="292"/>
      <point x="64" y="325"/>
      <point x="72" y="292" type="curve"/>
      <point x="164" y="346"/>
      <point x="251" y="396"/>
      <point x="337" y="447" type="curve"/>
      <point x="396" y="489"/>
      <point x="449" y="518"/>
      <point x="449" y="588" type="curve"/>
      <point x="449" y="674"/>
      <point x="375" y="710"/>
      <point x="280" y="710" type="curve"/>
      <point x="199" y="710"/>
      <point x="139" y="687"/>
      <point x="96" y="625" type="curve"/>
      <point x="126" y="605"/>
      <point x="96" y="625"/>
    </contour>
    <contour>
      <point x="289" y="709" type="move" name="_top"/>
    </contour>
    <contour>
      <point x="263" y="290" type="move" name="_bottom"/>
    </contour>
  </outline>
</glyph>
<glyph name="threesuperior" format="1">
  <advance width="484"/>
  <unicode hex="00B3"/>
  <outline>
    <contour>
      <point x="96" y="632" type="curve"/>
      <point x="134" y="660"/>
      <point x="177" y="676"/>
      <point x="222" y="676" type="curve"/>
      <point x="296" y="676"/>
      <point x="356" y="662"/>
      <point x="356" y="598" type="curve"/>
      <point x="356" y="520"/>
      <point x="259" y="522"/>
      <point x="166" y="517" type="curve"/>
      <point x="166" y="488"/>
      <point x="166" y="517"/>
      <point x="166" y="488" type="curve"/>
      <point x="287" y="489"/>
      <point x="398" y="497"/>
      <point x="398" y="601" type="curve"/>
      <point x="398" y="685"/>
      <point x="322" y="709"/>
      <point x="227" y="709" type="curve"/>
      <point x="169" y="709"/>
      <point x="115" y="690"/>
      <point x="74" y="656" type="curve"/>
      <point x="96" y="632"/>
      <point x="74" y="656"/>
    </contour>
    <contour>
      <point x="66" y="319" type="curve"/>
      <point x="114" y="296"/>
      <point x="161" y="285"/>
      <point x="213" y="285" type="curve"/>
      <point x="327" y="282"/>
      <point x="421" y="304"/>
      <point x="418" y="402" type="curve"/>
      <point x="418" y="516"/>
      <point x="295" y="507"/>
      <point x="166" y="509" type="curve"/>
      <point x="166" y="484"/>
      <point x="166" y="509"/>
      <point x="166" y="484" type="curve"/>
      <point x="275" y="480"/>
      <point x="376" y="485"/>
      <point x="376" y="402" type="curve"/>
      <point x="376" y="329"/>
      <point x="304" y="316"/>
      <point x="217" y="318" type="curve"/>
      <point x="172" y="318"/>
      <point x="129" y="326"/>
      <point x="85" y="345" type="curve"/>
      <point x="66" y="319"/>
      <point x="85" y="345"/>
    </contour>
    <contour>
      <point x="238" y="709" type="move" name="_top"/>
    </contour>
    <contour>
      <point x="228" y="284" type="move" name="_bottom"/>
    </contour>
  </outline>
</glyph>
<glyph name="acute" format="1">
  <advance width="295"/>
  <unicode hex="00B4"/>
  <outline>
    <contour>
      <point x="59" y="590" type="line"/>
      <point x="245" y="756" type="line"/>
      <point x="181" y="756" type="line"/>
      <point x="11" y="590" type="line"/>
    </contour>
    <contour>
      <point x="37" y="590" type="move" name="_top"/>
    </contour>
  </outline>
</glyph>
<glyph name="paragraph" format="1">
  <advance width="848"/>
  <unicode hex="00B6"/>
  <outline>
    <contour>
      <point x="530" y="686" type="curve"/>
      <point x="721" y="686"/>
      <point x="530" y="686"/>
      <point x="721" y="686" type="curve"/>
      <point x="721" y="722"/>
      <point x="721" y="686"/>
      <point x="721" y="722" type="curve"/>
      <point x="658" y="722"/>
      <point x="593" y="722"/>
      <point x="530" y="722" type="curve"/>
      <point x="530" y="686"/>
      <point x="530" y="722"/>
    </contour>
    <contour>
      <point x="521" y="353" type="curve"/>
      <point x="454" y="326"/>
      <point x="401" y="310"/>
      <point x="328" y="310" type="curve"/>
      <point x="194" y="310"/>
      <point x="89" y="367"/>
      <point x="89" y="490" type="curve"/>
      <point x="89" y="630"/>
      <point x="212" y="686"/>
      <point x="367" y="686" type="curve"/>
      <point x="420" y="686"/>
      <point x="473" y="686"/>
      <point x="526" y="686" type="curve"/>
      <point x="526" y="722"/>
      <point x="526" y="686"/>
      <point x="526" y="722" type="curve"/>
      <point x="471" y="722"/>
      <point x="416" y="722"/>
      <point x="361" y="722" type="curve"/>
      <point x="185" y="722"/>
      <point x="45" y="651"/>
      <point x="45" y="492" type="curve"/>
      <point x="45" y="343"/>
      <point x="170" y="277"/>
      <point x="333" y="275" type="curve"/>
      <point x="406" y="275"/>
      <point x="467" y="294"/>
      <point x="535" y="320" type="curve"/>
      <point x="521" y="353"/>
      <point x="535" y="321"/>
    </contour>
    <contour>
      <point x="553" y="0" type="curve"/>
      <point x="553" y="241"/>
      <point x="553" y="481"/>
      <point x="553" y="722" type="curve"/>
      <point x="509" y="722"/>
      <point x="553" y="722"/>
      <point x="509" y="722" type="curve"/>
      <point x="509" y="481"/>
      <point x="509" y="241"/>
      <point x="509" y="0" type="curve"/>
      <point x="553" y="0"/>
      <point x="509" y="0"/>
    </contour>
    <contour>
      <point x="753" y="0" type="curve"/>
      <point x="753" y="241"/>
      <point x="753" y="481"/>
      <point x="753" y="722" type="curve"/>
      <point x="709" y="722"/>
      <point x="753" y="722"/>
      <point x="709" y="722" type="curve"/>
      <point x="709" y="481"/>
      <point x="709" y="241"/>
      <point x="709" y="0" type="curve"/>
      <point x="753" y="0"/>
      <point x="709" y="0"/>
    </contour>
  </outline>
</glyph>
<glyph name="periodcentered" format="1">
  <advance width="217"/>
  <unicode hex="00B7"/>
  <outline>
    <contour>
      <point x="138" y="440" type="curve"/>
      <point x="138" y="457"/>
      <point x="125" y="466"/>
      <point x="107" y="466" type="curve"/>
      <point x="90" y="466"/>
      <point x="79" y="456"/>
      <point x="79" y="440" type="curve"/>
      <point x="119" y="440"/>
      <point x="97" y="440"/>
      <point x="138" y="440" type="curve"/>
      <point x="138" y="423"/>
      <point x="125" y="414"/>
      <point x="107" y="414" type="curve"/>
      <point x="90" y="414"/>
      <point x="79" y="423"/>
      <point x="79" y="440" type="curve"/>
      <point x="119" y="440"/>
      <point x="97" y="440"/>
    </contour>
  </outline>
</glyph>
<glyph name="cedilla" format="1">
  <advance width="355"/>
  <unicode hex="00B8"/>
  <outline>
    <contour>
      <point x="195" y="41" type="curve"/>
      <point x="176" y="15"/>
      <point x="148" y="-23"/>
      <point x="129" y="-49" type="curve"/>
      <point x="159" y="-77"/>
      <point x="129" y="-49"/>
      <point x="159" y="-77" type="curve"/>
      <point x="178" y="-49"/>
      <point x="208" y="-10"/>
      <point x="227" y="17" type="curve"/>
      <point x="195" y="41"/>
      <point x="227" y="17"/>
    </contour>
    <contour>
      <point x="159" y="-78" type="curve"/>
      <point x="177" y="-68"/>
      <point x="192" y="-66"/>
      <point x="213" y="-66" type="curve"/>
      <point x="250" y="-66"/>
      <point x="276" y="-82"/>
      <point x="276" y="-116" type="curve"/>
      <point x="276" y="-154"/>
      <point x="241" y="-165"/>
      <point x="197" y="-165" type="curve"/>
      <point x="164" y="-165"/>
      <point x="139" y="-162"/>
      <point x="107" y="-148" type="curve"/>
      <point x="92" y="-175"/>
      <point x="107" y="-148"/>
      <point x="92" y="-175" type="curve"/>
      <point x="128" y="-190"/>
      <point x="156" y="-197"/>
      <point x="195" y="-197" type="curve"/>
      <point x="263" y="-197"/>
      <point x="317" y="-177"/>
      <point x="317" y="-115" type="curve"/>
      <point x="317" y="-60"/>
      <point x="274" y="-32"/>
      <point x="216" y="-32" type="curve"/>
      <point x="184" y="-32"/>
      <point x="161" y="-38"/>
      <point x="130" y="-50" type="curve"/>
      <point x="159" y="-78"/>
      <point x="130" y="-50"/>
    </contour>
    <contour>
      <point x="222" y="17" type="move" name="_bottom"/>
    </contour>
  </outline>
</glyph>
<glyph name="onesuperior" format="1">
  <advance width="328"/>
  <unicode hex="00B9"/>
  <outline>
    <contour>
      <point x="49" y="567" type="line"/>
      <point x="236" y="695" type="line"/>
      <point x="194" y="704" type="line"/>
      <point x="30" y="594" type="line"/>
    </contour>
    <contour>
      <point x="236" y="291" type="curve"/>
      <point x="236" y="704" type="line"/>
      <point x="194" y="704" type="line"/>
      <point x="194" y="291" type="line"/>
      <point x="227" y="291"/>
      <point x="211" y="291"/>
    </contour>
    <contour>
      <point x="214" y="701" type="move" name="_top"/>
    </contour>
    <contour>
      <point x="215" y="291" type="move" name="_bottom"/>
    </contour>
  </outline>
</glyph>
<glyph name="ordmasculine" format="1">
  <advance width="507"/>
  <unicode hex="00BA"/>
  <outline>
    <contour>
      <point x="95" y="601" type="curve"/>
      <point x="95" y="691"/>
      <point x="158" y="742"/>
      <point x="253" y="742" type="curve"/>
      <point x="348" y="742"/>
      <point x="411" y="690"/>
      <point x="411" y="599" type="curve"/>
      <point x="411" y="505"/>
      <point x="351" y="448"/>
      <point x="258" y="448" type="curve"/>
      <point x="160" y="448"/>
      <point x="95" y="504"/>
      <point x="95" y="601" type="curve"/>
      <point x="72" y="601"/>
      <point x="82" y="601"/>
      <point x="59" y="601" type="curve"/>
      <point x="59" y="484"/>
      <point x="138" y="417"/>
      <point x="257" y="417" type="curve"/>
      <point x="372" y="417"/>
      <point x="448" y="485"/>
      <point x="448" y="599" type="curve"/>
      <point x="448" y="710"/>
      <point x="370" y="772"/>
      <point x="254" y="772" type="curve"/>
      <point x="138" y="772"/>
      <point x="59" y="710"/>
      <point x="59" y="601" type="curve"/>
      <point x="82" y="601"/>
      <point x="72" y="601"/>
    </contour>
  </outline>
</glyph>
<glyph name="guillemotright" format="1">
  <advance width="718"/>
  <unicode hex="00BB"/>
  <outline>
    <contour>
      <point x="381" y="410" type="curve"/>
      <point x="391" y="405"/>
      <point x="654" y="302"/>
      <point x="664" y="297" type="curve"/>
      <point x="664" y="259"/>
      <point x="664" y="297"/>
      <point x="664" y="259" type="curve"/>
      <point x="654" y="264"/>
      <point x="391" y="366"/>
      <point x="381" y="371" type="curve"/>
      <point x="381" y="410"/>
      <point x="381" y="371"/>
    </contour>
    <contour>
      <point x="381" y="185" type="curve"/>
      <point x="391" y="190"/>
      <point x="654" y="292"/>
      <point x="664" y="297" type="curve"/>
      <point x="664" y="259"/>
      <point x="664" y="297"/>
      <point x="664" y="259" type="curve"/>
      <point x="654" y="254"/>
      <point x="391" y="152"/>
      <point x="381" y="147" type="curve"/>
      <point x="381" y="185"/>
      <point x="381" y="147"/>
    </contour>
    <contour>
      <point x="89" y="410" type="curve"/>
      <point x="99" y="405"/>
      <point x="362" y="302"/>
      <point x="372" y="297" type="curve"/>
      <point x="372" y="259"/>
      <point x="372" y="297"/>
      <point x="372" y="259" type="curve"/>
      <point x="362" y="264"/>
      <point x="99" y="366"/>
      <point x="89" y="371" type="curve"/>
      <point x="89" y="410"/>
      <point x="89" y="371"/>
    </contour>
    <contour>
      <point x="89" y="185" type="curve"/>
      <point x="99" y="190"/>
      <point x="362" y="292"/>
      <point x="372" y="297" type="curve"/>
      <point x="372" y="259"/>
      <point x="372" y="297"/>
      <point x="372" y="259" type="curve"/>
      <point x="362" y="254"/>
      <point x="99" y="152"/>
      <point x="89" y="147" type="curve"/>
      <point x="89" y="185"/>
      <point x="89" y="147"/>
    </contour>
  </outline>
</glyph>
<glyph name="onequarter" format="1">
  <advance width="1222"/>
  <unicode hex="00BC"/>
  <outline>
    <contour>
      <point x="381" y="-84" type="line"/>
      <point x="926" y="749" type="line"/>
      <point x="882" y="749" type="line"/>
      <point x="337" y="-84" type="line"/>
    </contour>
    <contour>
      <point x="52" y="616" type="line"/>
      <point x="239" y="744" type="line"/>
      <point x="197" y="752" type="line"/>
      <point x="33" y="643" type="line"/>
    </contour>
    <contour>
      <point x="239" y="339" type="curve"/>
      <point x="239" y="752" type="line"/>
      <point x="197" y="752" type="line"/>
      <point x="197" y="339" type="line"/>
      <point x="230" y="339"/>
      <point x="214" y="339"/>
    </contour>
    <contour>
      <point x="1185" y="59" type="line"/>
      <point x="729" y="59" type="line"/>
      <point x="729" y="26" type="line"/>
      <point x="1185" y="26" type="line"/>
    </contour>
    <contour>
      <point x="746" y="30" type="line"/>
      <point x="1057" y="333" type="line"/>
      <point x="1020" y="343" type="line"/>
      <point x="729" y="59" type="line"/>
    </contour>
    <contour>
      <point x="1062" y="-95" type="line"/>
      <point x="1062" y="343" type="line"/>
      <point x="1020" y="343" type="line"/>
      <point x="1020" y="-95" type="line"/>
    </contour>
  </outline>
</glyph>
<glyph name="onehalf" format="1">
  <advance width="1283"/>
  <unicode hex="00BD"/>
  <outline>
    <contour>
      <point x="383" y="-84" type="line"/>
      <point x="928" y="749" type="line"/>
      <point x="884" y="749" type="line"/>
      <point x="339" y="-84" type="line"/>
    </contour>
    <contour>
      <point x="52" y="616" type="line"/>
      <point x="239" y="744" type="line"/>
      <point x="197" y="752" type="line"/>
      <point x="33" y="643" type="line"/>
    </contour>
    <contour>
      <point x="239" y="339" type="curve"/>
      <point x="239" y="752" type="line"/>
      <point x="197" y="752" type="line"/>
      <point x="197" y="339" type="line"/>
      <point x="230" y="339"/>
      <point x="214" y="339"/>
    </contour>
    <contour>
      <point x="826" y="-89" type="curve"/>
      <point x="976" y="-89"/>
      <point x="1107" y="-89"/>
      <point x="1239" y="-89" type="curve"/>
      <point x="1239" y="-69"/>
      <point x="1239" y="-72"/>
      <point x="1239" y="-54" type="curve"/>
      <point x="1107" y="-54"/>
      <point x="959" y="-54"/>
      <point x="826" y="-54" type="curve"/>
      <point x="826" y="-88"/>
      <point x="826" y="-54"/>
    </contour>
    <contour>
      <point x="889" y="226" type="curve"/>
      <point x="928" y="274"/>
      <point x="974" y="297"/>
      <point x="1040" y="297" type="curve"/>
      <point x="1113" y="297"/>
      <point x="1170" y="272"/>
      <point x="1170" y="207" type="curve"/>
      <point x="1170" y="150"/>
      <point x="1124" y="128"/>
      <point x="1075" y="95" type="curve"/>
      <point x="992" y="46"/>
      <point x="909" y="-4"/>
      <point x="826" y="-54" type="curve"/>
      <point x="835" y="-87"/>
      <point x="827" y="-54"/>
      <point x="835" y="-87" type="curve"/>
      <point x="927" y="-34"/>
      <point x="1015" y="17"/>
      <point x="1100" y="68" type="curve"/>
      <point x="1159" y="109"/>
      <point x="1212" y="139"/>
      <point x="1212" y="209" type="curve"/>
      <point x="1212" y="295"/>
      <point x="1138" y="331"/>
      <point x="1043" y="331" type="curve"/>
      <point x="962" y="331"/>
      <point x="902" y="308"/>
      <point x="859" y="245" type="curve"/>
      <point x="889" y="226"/>
      <point x="859" y="245"/>
    </contour>
  </outline>
</glyph>
<glyph name="threequarters" format="1">
  <advance width="1225"/>
  <unicode hex="00BE"/>
  <outline>
    <contour>
      <point x="388" y="-84" type="line"/>
      <point x="933" y="749" type="line"/>
      <point x="889" y="749" type="line"/>
      <point x="344" y="-84" type="line"/>
    </contour>
    <contour>
      <point x="80" y="672" type="curve"/>
      <point x="119" y="701"/>
      <point x="161" y="717"/>
      <point x="207" y="717" type="curve"/>
      <point x="280" y="717"/>
      <point x="341" y="702"/>
      <point x="341" y="639" type="curve"/>
      <point x="341" y="561"/>
      <point x="244" y="563"/>
      <point x="151" y="557" type="curve"/>
      <point x="151" y="528"/>
      <point x="151" y="557"/>
      <point x="151" y="528" type="curve"/>
      <point x="272" y="529"/>
      <point x="383" y="538"/>
      <point x="383" y="641" type="curve"/>
      <point x="383" y="726"/>
      <point x="307" y="750"/>
      <point x="212" y="750" type="curve"/>
      <point x="154" y="750"/>
      <point x="100" y="731"/>
      <point x="59" y="696" type="curve"/>
      <point x="80" y="672"/>
      <point x="59" y="696"/>
    </contour>
    <contour>
      <point x="51" y="360" type="curve"/>
      <point x="99" y="337"/>
      <point x="145" y="326"/>
      <point x="197" y="326" type="curve"/>
      <point x="312" y="323"/>
      <point x="406" y="345"/>
      <point x="403" y="443" type="curve"/>
      <point x="403" y="557"/>
      <point x="280" y="548"/>
      <point x="151" y="550" type="curve"/>
      <point x="151" y="525"/>
      <point x="151" y="550"/>
      <point x="151" y="525" type="curve"/>
      <point x="260" y="520"/>
      <point x="360" y="526"/>
      <point x="360" y="442" type="curve"/>
      <point x="360" y="369"/>
      <point x="289" y="357"/>
      <point x="201" y="359" type="curve"/>
      <point x="156" y="359"/>
      <point x="114" y="367"/>
      <point x="70" y="386" type="curve"/>
      <point x="51" y="360"/>
      <point x="70" y="386"/>
    </contour>
    <contour>
      <point x="1190" y="59" type="line"/>
      <point x="734" y="59" type="line"/>
      <point x="734" y="26" type="line"/>
      <point x="1190" y="26" type="line"/>
    </contour>
    <contour>
      <point x="750" y="30" type="line"/>
      <point x="1061" y="333" type="line"/>
      <point x="1024" y="343" type="line"/>
      <point x="734" y="59" type="line"/>
    </contour>
    <contour>
      <point x="1067" y="-95" type="line"/>
      <point x="1067" y="343" type="line"/>
      <point x="1024" y="343" type="line"/>
      <point x="1024" y="-95" type="line"/>
    </contour>
  </outline>
</glyph>
<glyph name="questiondown" format="1">
  <advance width="564"/>
  <unicode hex="00BF"/>
  <outline>
    <contour>
      <point x="350" y="366" type="curve"/>
      <point x="350" y="403"/>
      <point x="350" y="449"/>
      <point x="350" y="486" type="curve"/>
      <point x="306" y="486"/>
      <point x="350" y="486"/>
      <point x="306" y="486" type="curve"/>
      <point x="306" y="449"/>
      <point x="306" y="403"/>
      <point x="306" y="366" type="curve"/>
      <point x="350" y="366"/>
      <point x="306" y="366"/>
    </contour>
    <contour>
      <point x="485" y="88" type="line"/>
      <point x="444" y="55"/>
      <point x="383" y="27"/>
      <point x="313" y="27" type="curve"/>
      <point x="194" y="27"/>
      <point x="101" y="77"/>
      <point x="101" y="188" type="curve"/>
      <point x="101" y="311"/>
      <point x="209" y="366"/>
      <point x="347" y="366" type="curve"/>
      <point x="347" y="380"/>
      <point x="347" y="388"/>
      <point x="347" y="403" type="curve"/>
      <point x="185" y="403"/>
      <point x="59" y="334"/>
      <point x="59" y="188" type="curve"/>
      <point x="59" y="55"/>
      <point x="168" y="-9"/>
      <point x="310" y="-9" type="curve"/>
      <point x="391" y="-9"/>
      <point x="458" y="19"/>
      <point x="509" y="60" type="curve"/>
    </contour>
    <contour>
      <point x="302" y="695" type="curve"/>
      <point x="302" y="679"/>
      <point x="312" y="671"/>
      <point x="328" y="671" type="curve"/>
      <point x="343" y="671"/>
      <point x="353" y="680"/>
      <point x="353" y="695" type="curve"/>
      <point x="302" y="695"/>
      <point x="353" y="695"/>
      <point x="302" y="695" type="curve"/>
      <point x="302" y="710"/>
      <point x="312" y="717"/>
      <point x="328" y="717" type="curve"/>
      <point x="343" y="717"/>
      <point x="353" y="709"/>
      <point x="353" y="695" type="curve"/>
      <point x="302" y="695"/>
      <point x="353" y="695"/>
    </contour>
  </outline>
</glyph>
<glyph name="Acircumflex" format="1">
  <advance width="804"/>
  <unicode hex="00C2"/>
  <outline>
    <contour>
      <point x="625" y="283" type="curve"/>
      <point x="477" y="283"/>
      <point x="329" y="283"/>
      <point x="182" y="283" type="curve"/>
      <point x="164" y="245"/>
      <point x="182" y="283"/>
      <point x="164" y="245" type="curve"/>
      <point x="322" y="245"/>
      <point x="481" y="245"/>
      <point x="639" y="245" type="curve"/>
      <point x="625" y="283"/>
      <point x="639" y="245"/>
    </contour>
    <contour>
      <point x="781" y="0" type="curve"/>
      <point x="665" y="241"/>
      <point x="549" y="481"/>
      <point x="434" y="722" type="curve"/>
      <point x="394" y="722"/>
      <point x="434" y="722"/>
      <point x="394" y="722" type="curve"/>
      <point x="508" y="481"/>
      <point x="621" y="241"/>
      <point x="734" y="0" type="curve"/>
      <point x="781" y="0"/>
      <point x="734" y="0"/>
    </contour>
    <contour>
      <point x="52" y="0" type="curve"/>
      <point x="179" y="241"/>
      <point x="304" y="481"/>
      <point x="432" y="722" type="curve"/>
      <point x="392" y="722"/>
      <point x="432" y="722"/>
      <point x="392" y="722" type="curve"/>
      <point x="263" y="481"/>
      <point x="133" y="241"/>
      <point x="4" y="0" type="curve"/>
      <point x="52" y="0"/>
      <point x="4" y="0"/>
    </contour>
    <contour>
      <point x="250" y="819" type="line"/>
      <point x="435" y="985" type="line"/>
      <point x="372" y="985" type="line"/>
      <point x="202" y="819" type="line"/>
    </contour>
    <contour>
      <point x="622" y="819" type="line"/>
      <point x="451" y="985" type="line"/>
      <point x="388" y="985" type="line"/>
      <point x="574" y="819" type="line"/>
    </contour>
  </outline>
</glyph>
<glyph name="Atilde" format="1">
  <advance width="804"/>
  <unicode hex="00C3"/>
  <outline>
    <contour>
      <point x="625" y="283" type="curve"/>
      <point x="477" y="283"/>
      <point x="329" y="283"/>
      <point x="182" y="283" type="curve"/>
      <point x="164" y="245"/>
      <point x="182" y="283"/>
      <point x="164" y="245" type="curve"/>
      <point x="322" y="245"/>
      <point x="481" y="245"/>
      <point x="639" y="245" type="curve"/>
      <point x="625" y="283"/>
      <point x="639" y="245"/>
    </contour>
    <contour>
      <point x="781" y="0" type="curve"/>
      <point x="665" y="241"/>
      <point x="549" y="481"/>
      <point x="434" y="722" type="curve"/>
      <point x="394" y="722"/>
      <point x="434" y="722"/>
      <point x="394" y="722" type="curve"/>
      <point x="508" y="481"/>
      <point x="621" y="241"/>
      <point x="734" y="0" type="curve"/>
      <point x="781" y="0"/>
      <point x="734" y="0"/>
    </contour>
    <contour>
      <point x="52" y="0" type="curve"/>
      <point x="179" y="241"/>
      <point x="304" y="481"/>
      <point x="432" y="722" type="curve"/>
      <point x="392" y="722"/>
      <point x="432" y="722"/>
      <point x="392" y="722" type="curve"/>
      <point x="263" y="481"/>
      <point x="133" y="241"/>
      <point x="4" y="0" type="curve"/>
      <point x="52" y="0"/>
      <point x="4" y="0"/>
    </contour>
    <contour>
      <point x="621" y="950" type="curve"/>
      <point x="604" y="897"/>
      <point x="582" y="852"/>
      <point x="530" y="852" type="curve"/>
      <point x="484" y="852"/>
      <point x="454" y="867"/>
      <point x="419" y="898" type="curve"/>
      <point x="380" y="932"/>
      <point x="349" y="952"/>
      <point x="298" y="952" type="curve"/>
      <point x="225" y="952"/>
      <point x="184" y="905"/>
      <point x="163" y="830" type="curve"/>
      <point x="196" y="817"/>
      <point x="163" y="830"/>
      <point x="196" y="817" type="curve"/>
      <point x="214" y="876"/>
      <point x="243" y="916"/>
      <point x="299" y="916" type="curve"/>
      <point x="341" y="916"/>
      <point x="366" y="898"/>
      <point x="397" y="870" type="curve"/>
      <point x="439" y="835"/>
      <point x="475" y="816"/>
      <point x="529" y="816" type="curve"/>
      <point x="601" y="816"/>
      <point x="633" y="868"/>
      <point x="657" y="939" type="curve"/>
      <point x="622" y="950"/>
      <point x="656" y="938"/>
    </contour>
  </outline>
</glyph>
<glyph name="Adieresis" format="1">
  <advance width="804"/>
  <unicode hex="00C4"/>
  <outline>
    <contour>
      <point x="625" y="283" type="curve"/>
      <point x="477" y="283"/>
      <point x="329" y="283"/>
      <point x="182" y="283" type="curve"/>
      <point x="164" y="245"/>
      <point x="182" y="283"/>
      <point x="164" y="245" type="curve"/>
      <point x="322" y="245"/>
      <point x="481" y="245"/>
      <point x="639" y="245" type="curve"/>
      <point x="625" y="283"/>
      <point x="639" y="245"/>
    </contour>
    <contour>
      <point x="781" y="0" type="curve"/>
      <point x="665" y="241"/>
      <point x="549" y="481"/>
      <point x="434" y="722" type="curve"/>
      <point x="394" y="722"/>
      <point x="434" y="722"/>
      <point x="394" y="722" type="curve"/>
      <point x="508" y="481"/>
      <point x="621" y="241"/>
      <point x="734" y="0" type="curve"/>
      <point x="781" y="0"/>
      <point x="734" y="0"/>
    </contour>
    <contour>
      <point x="52" y="0" type="curve"/>
      <point x="179" y="241"/>
      <point x="304" y="481"/>
      <point x="432" y="722" type="curve"/>
      <point x="392" y="722"/>
      <point x="432" y="722"/>
      <point x="392" y="722" type="curve"/>
      <point x="263" y="481"/>
      <point x="133" y="241"/>
      <point x="4" y="0" type="curve"/>
      <point x="52" y="0"/>
      <point x="4" y="0"/>
    </contour>
    <contour>
      <point x="359" y="844" type="curve"/>
      <point x="359" y="861"/>
      <point x="346" y="870"/>
      <point x="328" y="870" type="curve"/>
      <point x="311" y="870"/>
      <point x="300" y="860"/>
      <point x="300" y="844" type="curve"/>
      <point x="341" y="844"/>
      <point x="318" y="844"/>
      <point x="359" y="844" type="curve"/>
      <point x="359" y="827"/>
      <point x="346" y="818"/>
      <point x="328" y="818" type="curve"/>
      <point x="311" y="818"/>
      <point x="300" y="827"/>
      <point x="300" y="844" type="curve"/>
      <point x="341" y="844"/>
      <point x="318" y="844"/>
    </contour>
    <contour>
      <point x="525" y="844" type="curve"/>
      <point x="525" y="861"/>
      <point x="513" y="870"/>
      <point x="495" y="870" type="curve"/>
      <point x="477" y="870"/>
      <point x="466" y="860"/>
      <point x="466" y="844" type="curve"/>
      <point x="507" y="844"/>
      <point x="485" y="844"/>
      <point x="525" y="844" type="curve"/>
      <point x="525" y="827"/>
      <point x="513" y="818"/>
      <point x="495" y="818" type="curve"/>
      <point x="477" y="818"/>
      <point x="466" y="827"/>
      <point x="466" y="844" type="curve"/>
      <point x="507" y="844"/>
      <point x="485" y="844"/>
    </contour>
  </outline>
</glyph>
<glyph name="Aring" format="1">
  <advance width="804"/>
  <unicode hex="00C5"/>
  <outline>
    <contour>
      <point x="625" y="283" type="curve"/>
      <point x="477" y="283"/>
      <point x="329" y="283"/>
      <point x="182" y="283" type="curve"/>
      <point x="164" y="245"/>
      <point x="182" y="283"/>
      <point x="164" y="245" type="curve"/>
      <point x="322" y="245"/>
      <point x="481" y="245"/>
      <point x="639" y="245" type="curve"/>
      <point x="625" y="283"/>
      <point x="639" y="245"/>
    </contour>
    <contour>
      <point x="781" y="0" type="curve"/>
      <point x="665" y="241"/>
      <point x="549" y="481"/>
      <point x="434" y="722" type="curve"/>
      <point x="394" y="722"/>
      <point x="434" y="722"/>
      <point x="394" y="722" type="curve"/>
      <point x="508" y="481"/>
      <point x="621" y="241"/>
      <point x="734" y="0" type="curve"/>
      <point x="781" y="0"/>
      <point x="734" y="0"/>
    </contour>
    <contour>
      <point x="52" y="0" type="curve"/>
      <point x="179" y="241"/>
      <point x="304" y="481"/>
      <point x="432" y="722" type="curve"/>
      <point x="392" y="722"/>
      <point x="432" y="722"/>
      <point x="392" y="722" type="curve"/>
      <point x="263" y="481"/>
      <point x="133" y="241"/>
      <point x="4" y="0" type="curve"/>
      <point x="52" y="0"/>
      <point x="4" y="0"/>
    </contour>
    <contour>
      <point x="261" y="938" type="curve"/>
      <point x="261" y="857"/>
      <point x="325" y="817"/>
      <point x="412" y="817" type="curve"/>
      <point x="501" y="817"/>
      <point x="567" y="855"/>
      <point x="567" y="938" type="curve"/>
      <point x="567" y="1021"/>
      <point x="500" y="1060"/>
      <point x="409" y="1060" type="curve"/>
      <point x="323" y="1060"/>
      <point x="261" y="1020"/>
      <point x="261" y="938" type="curve"/>
      <point x="299" y="938"/>
      <point x="261" y="938"/>
      <point x="299" y="938" type="curve"/>
      <point x="299" y="998"/>
      <point x="345" y="1028"/>
      <point x="409" y="1028" type="curve"/>
      <point x="478" y="1028"/>
      <point x="528" y="1001"/>
      <point x="528" y="938" type="curve"/>
      <point x="528" y="877"/>
      <point x="479" y="849"/>
      <point x="412" y="849" type="curve"/>
      <point x="347" y="849"/>
      <point x="299" y="877"/>
      <point x="299" y="938" type="curve"/>
      <point x="261" y="938"/>
      <point x="299" y="938"/>
    </contour>
  </outline>
</glyph>
<glyph name="AE" format="1">
  <advance width="1089"/>
  <unicode hex="00C6"/>
  <outline>
    <contour>
      <point x="501" y="249" type="curve"/>
      <point x="353" y="249"/>
      <point x="326" y="249"/>
      <point x="179" y="249" type="curve"/>
      <point x="161" y="211"/>
      <point x="179" y="249"/>
      <point x="161" y="211" type="curve"/>
      <point x="319" y="211"/>
      <point x="357" y="211"/>
      <point x="515" y="211" type="curve"/>
      <point x="501" y="249"/>
      <point x="515" y="211"/>
    </contour>
    <contour>
      <point x="46" y="0" type="curve"/>
      <point x="535" y="722" type="line"/>
      <point x="495" y="722"/>
      <point x="531" y="722"/>
      <point x="491" y="722" type="curve"/>
      <point x="-4" y="0" type="line"/>
      <point x="44" y="0"/>
      <point x="-2" y="0"/>
    </contour>
    <contour>
      <point x="521" y="356" type="curve"/>
      <point x="660" y="356"/>
      <point x="800" y="356"/>
      <point x="941" y="356" type="curve"/>
      <point x="941" y="392"/>
      <point x="941" y="356"/>
      <point x="941" y="392" type="curve"/>
      <point x="800" y="392"/>
      <point x="660" y="392"/>
      <point x="521" y="392" type="curve"/>
      <point x="521" y="356"/>
      <point x="521" y="392"/>
    </contour>
    <contour>
      <point x="501" y="686" type="curve"/>
      <point x="674" y="686"/>
      <point x="848" y="686"/>
      <point x="1021" y="686" type="curve"/>
      <point x="1021" y="722"/>
      <point x="1021" y="686"/>
      <point x="1021" y="722" type="curve"/>
      <point x="848" y="722"/>
      <point x="674" y="722"/>
      <point x="501" y="722" type="curve"/>
      <point x="501" y="686"/>
      <point x="501" y="722"/>
    </contour>
    <contour>
      <point x="534" y="0" type="curve"/>
      <point x="534" y="722" type="line"/>
      <point x="490" y="722"/>
      <point x="534" y="722"/>
      <point x="490" y="722" type="curve"/>
      <point x="490" y="481"/>
      <point x="490" y="241"/>
      <point x="490" y="0" type="curve"/>
      <point x="534" y="0"/>
      <point x="490" y="0"/>
    </contour>
    <contour>
      <point x="501" y="0" type="curve"/>
      <point x="689" y="0"/>
      <point x="876" y="0"/>
      <point x="1064" y="0" type="curve"/>
      <point x="1064" y="36"/>
      <point x="1064" y="0"/>
      <point x="1064" y="36" type="curve"/>
      <point x="876" y="36"/>
      <point x="689" y="36"/>
      <point x="501" y="36" type="curve"/>
      <point x="501" y="0"/>
      <point x="501" y="36"/>
    </contour>
  </outline>
</glyph>
<glyph name="Ccedilla" format="1">
  <advance width="830"/>
  <unicode hex="00C7"/>
  <outline>
    <contour>
      <point x="777" y="655" type="curve"/>
      <point x="688" y="697"/>
      <point x="593" y="727"/>
      <point x="486" y="727" type="curve"/>
      <point x="232" y="727"/>
      <point x="67" y="592"/>
      <point x="67" y="344" type="curve"/>
      <point x="67" y="115"/>
      <point x="221" y="-5"/>
      <point x="458" y="-5" type="curve"/>
      <point x="597" y="-5"/>
      <point x="687" y="25"/>
      <point x="798" y="95" type="curve"/>
      <point x="776" y="124"/>
      <point x="798" y="95"/>
      <point x="776" y="124" type="curve"/>
      <point x="672" y="58"/>
      <point x="585" y="34"/>
      <point x="460" y="34" type="curve"/>
      <point x="249" y="34"/>
      <point x="110" y="142"/>
      <point x="110" y="346" type="curve"/>
      <point x="110" y="567"/>
      <point x="258" y="690"/>
      <point x="484" y="690" type="curve"/>
      <point x="582" y="690"/>
      <point x="672" y="667"/>
      <point x="757" y="626" type="curve"/>
      <point x="777" y="655"/>
      <point x="757" y="626"/>
    </contour>
    <contour>
      <point x="435" y="25" type="curve"/>
      <point x="416" y="-1"/>
      <point x="388" y="-39"/>
      <point x="370" y="-65" type="curve"/>
      <point x="399" y="-93"/>
      <point x="370" y="-65"/>
      <point x="399" y="-93" type="curve"/>
      <point x="419" y="-65"/>
      <point x="448" y="-26"/>
      <point x="467" y="1" type="curve"/>
      <point x="435" y="25"/>
      <point x="467" y="1"/>
    </contour>
    <contour>
      <point x="399" y="-94" type="curve"/>
      <point x="417" y="-84"/>
      <point x="433" y="-82"/>
      <point x="454" y="-82" type="curve"/>
      <point x="490" y="-82"/>
      <point x="516" y="-98"/>
      <point x="516" y="-132" type="curve"/>
      <point x="516" y="-170"/>
      <point x="481" y="-181"/>
      <point x="437" y="-181" type="curve"/>
      <point x="404" y="-181"/>
      <point x="379" y="-178"/>
      <point x="347" y="-164" type="curve"/>
      <point x="333" y="-191"/>
      <point x="347" y="-164"/>
      <point x="333" y="-191" type="curve"/>
      <point x="368" y="-206"/>
      <point x="397" y="-213"/>
      <point x="435" y="-213" type="curve"/>
      <point x="504" y="-213"/>
      <point x="557" y="-193"/>
      <point x="557" y="-131" type="curve"/>
      <point x="557" y="-76"/>
      <point x="515" y="-48"/>
      <point x="456" y="-48" type="curve"/>
      <point x="424" y="-48"/>
      <point x="401" y="-54"/>
      <point x="370" y="-66" type="curve"/>
      <point x="399" y="-94"/>
      <point x="370" y="-66"/>
    </contour>
  </outline>
</glyph>
<glyph name="Egrave" format="1">
  <advance width="717"/>
  <unicode hex="00C8"/>
  <outline>
    <contour>
      <point x="150" y="356" type="curve"/>
      <point x="289" y="356"/>
      <point x="429" y="356"/>
      <point x="569" y="356" type="curve"/>
      <point x="569" y="392"/>
      <point x="569" y="356"/>
      <point x="569" y="392" type="curve"/>
      <point x="429" y="392"/>
      <point x="289" y="392"/>
      <point x="150" y="392" type="curve"/>
      <point x="150" y="356"/>
      <point x="150" y="392"/>
    </contour>
    <contour>
      <point x="130" y="686" type="curve"/>
      <point x="303" y="686"/>
      <point x="476" y="686"/>
      <point x="650" y="686" type="curve"/>
      <point x="650" y="722"/>
      <point x="650" y="686"/>
      <point x="650" y="722" type="curve"/>
      <point x="476" y="722"/>
      <point x="303" y="722"/>
      <point x="130" y="722" type="curve"/>
      <point x="130" y="686"/>
      <point x="130" y="722"/>
    </contour>
    <contour>
      <point x="163" y="0" type="curve"/>
      <point x="163" y="722" type="line"/>
      <point x="119" y="722"/>
      <point x="163" y="722"/>
      <point x="119" y="722" type="curve"/>
      <point x="119" y="481"/>
      <point x="119" y="241"/>
      <point x="119" y="0" type="curve"/>
      <point x="163" y="0"/>
      <point x="119" y="0"/>
    </contour>
    <contour>
      <point x="130" y="0" type="curve"/>
      <point x="318" y="0"/>
      <point x="505" y="0"/>
      <point x="693" y="0" type="curve"/>
      <point x="693" y="36"/>
      <point x="693" y="0"/>
      <point x="693" y="36" type="curve"/>
      <point x="505" y="36"/>
      <point x="318" y="36"/>
      <point x="130" y="36" type="curve"/>
      <point x="130" y="0"/>
      <point x="130" y="36"/>
    </contour>
    <contour>
      <point x="385" y="818" type="line"/>
      <point x="215" y="984" type="line"/>
      <point x="151" y="984" type="line"/>
      <point x="337" y="818" type="line"/>
    </contour>
  </outline>
</glyph>
<glyph name="Ecircumflex" format="1">
  <advance width="711"/>
  <unicode hex="00CA"/>
  <outline>
    <contour>
      <point x="145" y="356" type="curve"/>
      <point x="285" y="356"/>
      <point x="425" y="356"/>
      <point x="565" y="356" type="curve"/>
      <point x="565" y="392"/>
      <point x="565" y="356"/>
      <point x="565" y="392" type="curve"/>
      <point x="425" y="392"/>
      <point x="285" y="392"/>
      <point x="145" y="392" type="curve"/>
      <point x="145" y="356"/>
      <point x="145" y="392"/>
    </contour>
    <contour>
      <point x="126" y="686" type="curve"/>
      <point x="299" y="686"/>
      <point x="472" y="686"/>
      <point x="646" y="686" type="curve"/>
      <point x="646" y="722"/>
      <point x="646" y="686"/>
      <point x="646" y="722" type="curve"/>
      <point x="472" y="722"/>
      <point x="299" y="722"/>
      <point x="126" y="722" type="curve"/>
      <point x="126" y="686"/>
      <point x="126" y="722"/>
    </contour>
    <contour>
      <point x="159" y="0" type="curve"/>
      <point x="159" y="722" type="line"/>
      <point x="115" y="722"/>
      <point x="159" y="722"/>
      <point x="115" y="722" type="curve"/>
      <point x="115" y="481"/>
      <point x="115" y="241"/>
      <point x="115" y="0" type="curve"/>
      <point x="159" y="0"/>
      <point x="115" y="0"/>
    </contour>
    <contour>
      <point x="126" y="0" type="curve"/>
      <point x="313" y="0"/>
      <point x="501" y="0"/>
      <point x="689" y="0" type="curve"/>
      <point x="689" y="36"/>
      <point x="689" y="0"/>
      <point x="689" y="36" type="curve"/>
      <point x="501" y="36"/>
      <point x="313" y="36"/>
      <point x="126" y="36" type="curve"/>
      <point x="126" y="0"/>
      <point x="126" y="36"/>
    </contour>
    <contour>
      <point x="191" y="819" type="line"/>
      <point x="377" y="985" type="line"/>
      <point x="313" y="985" type="line"/>
      <point x="143" y="819" type="line"/>
    </contour>
    <contour>
      <point x="563" y="819" type="line"/>
      <point x="392" y="985" type="line"/>
      <point x="329" y="985" type="line"/>
      <point x="515" y="819" type="line"/>
    </contour>
  </outline>
</glyph>
<glyph name="Edieresis" format="1">
  <advance width="717"/>
  <unicode hex="00CB"/>
  <outline>
    <contour>
      <point x="149" y="356" type="curve"/>
      <point x="288" y="356"/>
      <point x="428" y="356"/>
      <point x="569" y="356" type="curve"/>
      <point x="569" y="392"/>
      <point x="569" y="356"/>
      <point x="569" y="392" type="curve"/>
      <point x="428" y="392"/>
      <point x="288" y="392"/>
      <point x="149" y="392" type="curve"/>
      <point x="149" y="356"/>
      <point x="149" y="392"/>
    </contour>
    <contour>
      <point x="129" y="686" type="curve"/>
      <point x="302" y="686"/>
      <point x="476" y="686"/>
      <point x="649" y="686" type="curve"/>
      <point x="649" y="722"/>
      <point x="649" y="686"/>
      <point x="649" y="722" type="curve"/>
      <point x="476" y="722"/>
      <point x="302" y="722"/>
      <point x="129" y="722" type="curve"/>
      <point x="129" y="686"/>
      <point x="129" y="722"/>
    </contour>
    <contour>
      <point x="162" y="0" type="curve"/>
      <point x="162" y="722" type="line"/>
      <point x="118" y="722"/>
      <point x="162" y="722"/>
      <point x="118" y="722" type="curve"/>
      <point x="118" y="481"/>
      <point x="118" y="241"/>
      <point x="118" y="0" type="curve"/>
      <point x="162" y="0"/>
      <point x="118" y="0"/>
    </contour>
    <contour>
      <point x="129" y="0" type="curve"/>
      <point x="317" y="0"/>
      <point x="504" y="0"/>
      <point x="692" y="0" type="curve"/>
      <point x="692" y="36"/>
      <point x="692" y="0"/>
      <point x="692" y="36" type="curve"/>
      <point x="504" y="36"/>
      <point x="317" y="36"/>
      <point x="129" y="36" type="curve"/>
      <point x="129" y="0"/>
      <point x="129" y="36"/>
    </contour>
    <contour>
      <point x="304" y="844" type="curve"/>
      <point x="304" y="861"/>
      <point x="291" y="870"/>
      <point x="273" y="870" type="curve"/>
      <point x="256" y="870"/>
      <point x="244" y="860"/>
      <point x="244" y="844" type="curve"/>
      <point x="285" y="844"/>
      <point x="263" y="844"/>
      <point x="304" y="844" type="curve"/>
      <point x="304" y="827"/>
      <point x="291" y="818"/>
      <point x="273" y="818" type="curve"/>
      <point x="255" y="818"/>
      <point x="244" y="827"/>
      <point x="244" y="844" type="curve"/>
      <point x="285" y="844"/>
      <point x="263" y="844"/>
    </contour>
    <contour>
      <point x="470" y="844" type="curve"/>
      <point x="470" y="861"/>
      <point x="457" y="870"/>
      <point x="439" y="870" type="curve"/>
      <point x="422" y="870"/>
      <point x="411" y="860"/>
      <point x="411" y="844" type="curve"/>
      <point x="451" y="844"/>
      <point x="429" y="844"/>
      <point x="470" y="844" type="curve"/>
      <point x="470" y="827"/>
      <point x="457" y="818"/>
      <point x="439" y="818" type="curve"/>
      <point x="422" y="818"/>
      <point x="411" y="827"/>
      <point x="411" y="844" type="curve"/>
      <point x="451" y="844"/>
      <point x="429" y="844"/>
    </contour>
  </outline>
</glyph>
<glyph name="Igrave" format="1">
  <advance width="302"/>
  <unicode hex="00CC"/>
  <outline>
    <contour>
      <point x="176" y="0" type="curve"/>
      <point x="176" y="241"/>
      <point x="176" y="481"/>
      <point x="176" y="722" type="curve"/>
      <point x="132" y="722"/>
      <point x="176" y="722"/>
      <point x="132" y="722" type="curve"/>
      <point x="132" y="481"/>
      <point x="132" y="241"/>
      <point x="132" y="0" type="curve"/>
      <point x="176" y="0"/>
      <point x="132" y="0"/>
    </contour>
    <contour>
      <point x="183" y="818" type="line"/>
      <point x="12" y="984" type="line"/>
      <point x="-51" y="984" type="line"/>
      <point x="135" y="818" type="line"/>
    </contour>
  </outline>
</glyph>
<glyph name="Iacute" format="1">
  <advance width="295"/>
  <unicode hex="00CD"/>
  <outline>
    <contour>
      <point x="166" y="0" type="curve"/>
      <point x="166" y="241"/>
      <point x="166" y="481"/>
      <point x="166" y="722" type="curve"/>
      <point x="123" y="722"/>
      <point x="166" y="722"/>
      <point x="123" y="722" type="curve"/>
      <point x="123" y="481"/>
      <point x="123" y="241"/>
      <point x="123" y="0" type="curve"/>
      <point x="166" y="0"/>
      <point x="123" y="0"/>
    </contour>
    <contour>
      <point x="167" y="818" type="line"/>
      <point x="353" y="984" type="line"/>
      <point x="289" y="984" type="line"/>
      <point x="119" y="818" type="line"/>
    </contour>
  </outline>
</glyph>
<glyph name="Icircumflex" format="1">
  <advance width="298"/>
  <unicode hex="00CE"/>
  <outline>
    <contour>
      <point x="179" y="0" type="curve"/>
      <point x="179" y="241"/>
      <point x="179" y="481"/>
      <point x="179" y="722" type="curve"/>
      <point x="135" y="722"/>
      <point x="179" y="722"/>
      <point x="135" y="722" type="curve"/>
      <point x="135" y="481"/>
      <point x="135" y="241"/>
      <point x="135" y="0" type="curve"/>
      <point x="179" y="0"/>
      <point x="135" y="0"/>
    </contour>
    <contour>
      <point x="-4" y="819" type="line"/>
      <point x="181" y="985" type="line"/>
      <point x="118" y="985" type="line"/>
      <point x="-52" y="819" type="line"/>
    </contour>
    <contour>
      <point x="368" y="819" type="line"/>
      <point x="197" y="985" type="line"/>
      <point x="134" y="985" type="line"/>
      <point x="319" y="819" type="line"/>
    </contour>
  </outline>
</glyph>
<glyph name="Idieresis" format="1">
  <advance width="283"/>
  <unicode hex="00CF"/>
  <outline>
    <contour>
      <point x="164" y="0" type="curve"/>
      <point x="164" y="241"/>
      <point x="164" y="481"/>
      <point x="164" y="722" type="curve"/>
      <point x="121" y="722"/>
      <point x="164" y="722"/>
      <point x="121" y="722" type="curve"/>
      <point x="121" y="481"/>
      <point x="121" y="241"/>
      <point x="121" y="0" type="curve"/>
      <point x="164" y="0"/>
      <point x="121" y="0"/>
    </contour>
    <contour>
      <point x="91" y="844" type="curve"/>
      <point x="91" y="861"/>
      <point x="78" y="870"/>
      <point x="60" y="870" type="curve"/>
      <point x="43" y="870"/>
      <point x="31" y="860"/>
      <point x="31" y="844" type="curve"/>
      <point x="72" y="844"/>
      <point x="50" y="844"/>
      <point x="91" y="844" type="curve"/>
      <point x="91" y="827"/>
      <point x="78" y="818"/>
      <point x="60" y="818" type="curve"/>
      <point x="43" y="818"/>
      <point x="31" y="827"/>
      <point x="31" y="844" type="curve"/>
      <point x="72" y="844"/>
      <point x="50" y="844"/>
    </contour>
    <contour>
      <point x="257" y="844" type="curve"/>
      <point x="257" y="861"/>
      <point x="244" y="870"/>
      <point x="226" y="870" type="curve"/>
      <point x="209" y="870"/>
      <point x="198" y="860"/>
      <point x="198" y="844" type="curve"/>
      <point x="238" y="844"/>
      <point x="216" y="844"/>
      <point x="257" y="844" type="curve"/>
      <point x="257" y="827"/>
      <point x="244" y="818"/>
      <point x="226" y="818" type="curve"/>
      <point x="209" y="818"/>
      <point x="198" y="827"/>
      <point x="198" y="844" type="curve"/>
      <point x="238" y="844"/>
      <point x="216" y="844"/>
    </contour>
  </outline>
</glyph>
<glyph name="Ntilde" format="1">
  <advance width="978"/>
  <unicode hex="00D1"/>
  <outline>
    <contour>
      <point x="858" y="0" type="curve"/>
      <point x="630" y="241"/>
      <point x="403" y="481"/>
      <point x="175" y="722" type="curve"/>
      <point x="122" y="722"/>
      <point x="172" y="722"/>
      <point x="119" y="722" type="curve"/>
      <point x="347" y="481"/>
      <point x="574" y="241"/>
      <point x="802" y="0" type="curve"/>
      <point x="855" y="0"/>
      <point x="805" y="0"/>
    </contour>
    <contour>
      <point x="815" y="722" type="curve"/>
      <point x="815" y="481"/>
      <point x="815" y="241"/>
      <point x="815" y="0" type="curve"/>
      <point x="859" y="0"/>
      <point x="815" y="0"/>
      <point x="859" y="0" type="curve"/>
      <point x="859" y="241"/>
      <point x="859" y="481"/>
      <point x="859" y="722" type="curve"/>
      <point x="815" y="722"/>
      <point x="859" y="722"/>
    </contour>
    <contour>
      <point x="163" y="0" type="curve"/>
      <point x="163" y="241"/>
      <point x="163" y="481"/>
      <point x="163" y="722" type="curve"/>
      <point x="119" y="722"/>
      <point x="163" y="722"/>
      <point x="119" y="722" type="curve"/>
      <point x="119" y="481"/>
      <point x="119" y="241"/>
      <point x="119" y="0" type="curve"/>
      <point x="163" y="0"/>
      <point x="119" y="0"/>
    </contour>
    <contour>
      <point x="710" y="950" type="curve"/>
      <point x="693" y="897"/>
      <point x="670" y="852"/>
      <point x="618" y="852" type="curve"/>
      <point x="572" y="852"/>
      <point x="542" y="867"/>
      <point x="508" y="898" type="curve"/>
      <point x="469" y="932"/>
      <point x="438" y="952"/>
      <point x="387" y="952" type="curve"/>
      <point x="313" y="952"/>
      <point x="272" y="905"/>
      <point x="251" y="830" type="curve"/>
      <point x="285" y="817"/>
      <point x="252" y="830"/>
      <point x="285" y="817" type="curve"/>
      <point x="302" y="876"/>
      <point x="332" y="916"/>
      <point x="388" y="916" type="curve"/>
      <point x="430" y="916"/>
      <point x="455" y="898"/>
      <point x="486" y="870" type="curve"/>
      <point x="528" y="835"/>
      <point x="563" y="816"/>
      <point x="618" y="816" type="curve"/>
      <point x="689" y="816"/>
      <point x="722" y="868"/>
      <point x="745" y="939" type="curve"/>
      <point x="710" y="950"/>
      <point x="745" y="938"/>
    </contour>
  </outline>
</glyph>
<glyph name="Ocircumflex" format="1">
  <advance width="915"/>
  <unicode hex="00D4"/>
  <outline>
    <contour>
      <point x="111" y="360" type="curve" name="FullCurve"/>
      <point x="111" y="564"/>
      <point x="246" y="690"/>
      <point x="455" y="690" type="curve" name="FullCurve"/>
      <point x="665" y="690"/>
      <point x="803" y="567"/>
      <point x="803" y="363" type="curve" name="FullCurve"/>
      <point x="803" y="159"/>
      <point x="668" y="33"/>
      <point x="459" y="33" type="curve" name="FullCurve"/>
      <point x="248" y="33"/>
      <point x="111" y="155"/>
      <point x="111" y="360" type="curve" name="FullCurve"/>
      <point x="67" y="360"/>
      <point x="111" y="360"/>
      <point x="67" y="360" type="curve" name="FullCurve"/>
      <point x="67" y="131"/>
      <point x="223" y="-5"/>
      <point x="457" y="-5" type="curve" name="FullCurve"/>
      <point x="692" y="-5"/>
      <point x="848" y="132"/>
      <point x="848" y="363" type="curve" name="FullCurve"/>
      <point x="848" y="591"/>
      <point x="692" y="727"/>
      <point x="458" y="727" type="curve" name="FullCurve"/>
      <point x="222" y="727"/>
      <point x="67" y="590"/>
      <point x="67" y="360" type="curve" name="FullCurve"/>
      <point x="111" y="360"/>
      <point x="67" y="360"/>
    </contour>
    <contour>
      <point x="295" y="819" type="line"/>
      <point x="481" y="985" type="line"/>
      <point x="417" y="985" type="line"/>
      <point x="247" y="819" type="line"/>
    </contour>
    <contour>
      <point x="667" y="819" type="line"/>
      <point x="496" y="985" type="line"/>
      <point x="433" y="985" type="line"/>
      <point x="619" y="819" type="line"/>
    </contour>
  </outline>
</glyph>
<glyph name="Otilde" format="1">
  <advance width="915"/>
  <unicode hex="00D5"/>
  <outline>
    <contour>
      <point x="111" y="360" type="curve" name="FullCurve"/>
      <point x="111" y="564"/>
      <point x="246" y="690"/>
      <point x="455" y="690" type="curve" name="FullCurve"/>
      <point x="665" y="690"/>
      <point x="803" y="567"/>
      <point x="803" y="363" type="curve" name="FullCurve"/>
      <point x="803" y="159"/>
      <point x="668" y="33"/>
      <point x="459" y="33" type="curve" name="FullCurve"/>
      <point x="248" y="33"/>
      <point x="111" y="155"/>
      <point x="111" y="360" type="curve" name="FullCurve"/>
      <point x="67" y="360"/>
      <point x="111" y="360"/>
      <point x="67" y="360" type="curve" name="FullCurve"/>
      <point x="67" y="131"/>
      <point x="223" y="-5"/>
      <point x="457" y="-5" type="curve" name="FullCurve"/>
      <point x="692" y="-5"/>
      <point x="848" y="132"/>
      <point x="848" y="363" type="curve" name="FullCurve"/>
      <point x="848" y="591"/>
      <point x="692" y="727"/>
      <point x="458" y="727" type="curve" name="FullCurve"/>
      <point x="222" y="727"/>
      <point x="67" y="590"/>
      <point x="67" y="360" type="curve" name="FullCurve"/>
      <point x="111" y="360"/>
      <point x="67" y="360"/>
    </contour>
    <contour>
      <point x="666" y="950" type="curve"/>
      <point x="649" y="897"/>
      <point x="627" y="852"/>
      <point x="575" y="852" type="curve"/>
      <point x="529" y="852"/>
      <point x="499" y="867"/>
      <point x="464" y="898" type="curve"/>
      <point x="425" y="932"/>
      <point x="394" y="952"/>
      <point x="344" y="952" type="curve"/>
      <point x="270" y="952"/>
      <point x="229" y="905"/>
      <point x="208" y="830" type="curve"/>
      <point x="241" y="817"/>
      <point x="208" y="830"/>
      <point x="242" y="817" type="curve"/>
      <point x="259" y="876"/>
      <point x="288" y="916"/>
      <point x="344" y="916" type="curve"/>
      <point x="386" y="916"/>
      <point x="411" y="898"/>
      <point x="442" y="870" type="curve"/>
      <point x="484" y="835"/>
      <point x="520" y="816"/>
      <point x="574" y="816" type="curve"/>
      <point x="646" y="816"/>
      <point x="678" y="868"/>
      <point x="702" y="939" type="curve"/>
      <point x="667" y="950"/>
      <point x="702" y="938"/>
    </contour>
  </outline>
</glyph>
<glyph name="Odieresis" format="1">
  <advance width="915"/>
  <unicode hex="00D6"/>
  <outline>
    <contour>
      <point x="111" y="360" type="curve" name="FullCurve"/>
      <point x="111" y="564"/>
      <point x="246" y="690"/>
      <point x="455" y="690" type="curve" name="FullCurve"/>
      <point x="665" y="690"/>
      <point x="803" y="567"/>
      <point x="803" y="363" type="curve" name="FullCurve"/>
      <point x="803" y="159"/>
      <point x="668" y="33"/>
      <point x="459" y="33" type="curve" name="FullCurve"/>
      <point x="248" y="33"/>
      <point x="111" y="155"/>
      <point x="111" y="360" type="curve" name="FullCurve"/>
      <point x="67" y="360"/>
      <point x="111" y="360"/>
      <point x="67" y="360" type="curve" name="FullCurve"/>
      <point x="67" y="131"/>
      <point x="223" y="-5"/>
      <point x="457" y="-5" type="curve" name="FullCurve"/>
      <point x="692" y="-5"/>
      <point x="848" y="132"/>
      <point x="848" y="363" type="curve" name="FullCurve"/>
      <point x="848" y="591"/>
      <point x="692" y="727"/>
      <point x="458" y="727" type="curve" name="FullCurve"/>
      <point x="222" y="727"/>
      <point x="67" y="590"/>
      <point x="67" y="360" type="curve" name="FullCurve"/>
      <point x="111" y="360"/>
      <point x="67" y="360"/>
    </contour>
    <contour>
      <point x="404" y="844" type="curve"/>
      <point x="404" y="861"/>
      <point x="392" y="870"/>
      <point x="374" y="870" type="curve"/>
      <point x="356" y="870"/>
      <point x="345" y="860"/>
      <point x="345" y="844" type="curve"/>
      <point x="386" y="844"/>
      <point x="363" y="844"/>
      <point x="404" y="844" type="curve"/>
      <point x="404" y="827"/>
      <point x="392" y="818"/>
      <point x="373" y="818" type="curve"/>
      <point x="356" y="818"/>
      <point x="345" y="827"/>
      <point x="345" y="844" type="curve"/>
      <point x="386" y="844"/>
      <point x="363" y="844"/>
    </contour>
    <contour>
      <point x="570" y="844" type="curve"/>
      <point x="570" y="861"/>
      <point x="558" y="870"/>
      <point x="540" y="870" type="curve"/>
      <point x="523" y="870"/>
      <point x="511" y="860"/>
      <point x="511" y="844" type="curve"/>
      <point x="552" y="844"/>
      <point x="530" y="844"/>
      <point x="570" y="844" type="curve"/>
      <point x="570" y="827"/>
      <point x="558" y="818"/>
      <point x="540" y="818" type="curve"/>
      <point x="522" y="818"/>
      <point x="511" y="827"/>
      <point x="511" y="844" type="curve"/>
      <point x="552" y="844"/>
      <point x="530" y="844"/>
    </contour>
  </outline>
</glyph>
<glyph name="multiply" format="1">
  <advance width="556"/>
  <unicode hex="00D7"/>
  <outline>
    <contour>
      <point x="94" y="98" type="line"/>
      <point x="486" y="491" type="line"/>
      <point x="458" y="518" type="line"/>
      <point x="66" y="125" type="line"/>
    </contour>
    <contour>
      <point x="491" y="123" type="line"/>
      <point x="94" y="521" type="line"/>
      <point x="67" y="493" type="line"/>
      <point x="463" y="95" type="line"/>
    </contour>
  </outline>
</glyph>
<glyph name="Ugrave" format="1">
  <advance width="902"/>
  <unicode hex="00D9"/>
  <outline>
    <contour>
      <point x="109" y="721" type="curve"/>
      <point x="109" y="550"/>
      <point x="109" y="444"/>
      <point x="109" y="273" type="curve"/>
      <point x="109" y="71"/>
      <point x="237" y="-5"/>
      <point x="453" y="-5" type="curve"/>
      <point x="666" y="-5"/>
      <point x="793" y="70"/>
      <point x="793" y="268" type="curve"/>
      <point x="793" y="441"/>
      <point x="793" y="548"/>
      <point x="793" y="721" type="curve"/>
      <point x="763" y="721"/>
      <point x="782" y="721"/>
      <point x="752" y="721" type="curve"/>
      <point x="752" y="545"/>
      <point x="752" y="438"/>
      <point x="752" y="262" type="curve"/>
      <point x="752" y="98"/>
      <point x="640" y="34"/>
      <point x="457" y="34" type="curve"/>
      <point x="264" y="34"/>
      <point x="150" y="100"/>
      <point x="150" y="279" type="curve"/>
      <point x="150" y="448"/>
      <point x="150" y="553"/>
      <point x="150" y="721" type="curve"/>
      <point x="120" y="721"/>
      <point x="139" y="721"/>
    </contour>
    <contour>
      <point x="486" y="818" type="line"/>
      <point x="315" y="984" type="line"/>
      <point x="252" y="984" type="line"/>
      <point x="438" y="818" type="line"/>
    </contour>
  </outline>
</glyph>
<glyph name="Ucircumflex" format="1">
  <advance width="902"/>
  <unicode hex="00DB"/>
  <outline>
    <contour>
      <point x="109" y="721" type="curve"/>
      <point x="109" y="550"/>
      <point x="109" y="444"/>
      <point x="109" y="273" type="curve"/>
      <point x="109" y="71"/>
      <point x="237" y="-5"/>
      <point x="453" y="-5" type="curve"/>
      <point x="666" y="-5"/>
      <point x="793" y="70"/>
      <point x="793" y="268" type="curve"/>
      <point x="793" y="441"/>
      <point x="793" y="548"/>
      <point x="793" y="721" type="curve"/>
      <point x="763" y="721"/>
      <point x="782" y="721"/>
      <point x="752" y="721" type="curve"/>
      <point x="752" y="545"/>
      <point x="752" y="438"/>
      <point x="752" y="262" type="curve"/>
      <point x="752" y="98"/>
      <point x="640" y="34"/>
      <point x="457" y="34" type="curve"/>
      <point x="264" y="34"/>
      <point x="150" y="100"/>
      <point x="150" y="279" type="curve"/>
      <point x="150" y="448"/>
      <point x="150" y="553"/>
      <point x="150" y="721" type="curve"/>
      <point x="120" y="721"/>
      <point x="139" y="721"/>
    </contour>
    <contour>
      <point x="295" y="819" type="line"/>
      <point x="481" y="985" type="line"/>
      <point x="417" y="985" type="line"/>
      <point x="247" y="819" type="line"/>
    </contour>
    <contour>
      <point x="667" y="819" type="line"/>
      <point x="497" y="985" type="line"/>
      <point x="433" y="985" type="line"/>
      <point x="619" y="819" type="line"/>
    </contour>
  </outline>
</glyph>
<glyph name="Udieresis" format="1">
  <advance width="902"/>
  <unicode hex="00DC"/>
  <outline>
    <contour>
      <point x="109" y="721" type="curve"/>
      <point x="109" y="550"/>
      <point x="109" y="444"/>
      <point x="109" y="273" type="curve"/>
      <point x="109" y="71"/>
      <point x="237" y="-5"/>
      <point x="453" y="-5" type="curve"/>
      <point x="666" y="-5"/>
      <point x="793" y="70"/>
      <point x="793" y="268" type="curve"/>
      <point x="793" y="441"/>
      <point x="793" y="548"/>
      <point x="793" y="721" type="curve"/>
      <point x="763" y="721"/>
      <point x="782" y="721"/>
      <point x="752" y="721" type="curve"/>
      <point x="752" y="545"/>
      <point x="752" y="438"/>
      <point x="752" y="262" type="curve"/>
      <point x="752" y="98"/>
      <point x="640" y="34"/>
      <point x="457" y="34" type="curve"/>
      <point x="264" y="34"/>
      <point x="150" y="100"/>
      <point x="150" y="279" type="curve"/>
      <point x="150" y="448"/>
      <point x="150" y="553"/>
      <point x="150" y="721" type="curve"/>
      <point x="120" y="721"/>
      <point x="139" y="721"/>
    </contour>
    <contour>
      <point x="405" y="844" type="curve"/>
      <point x="405" y="861"/>
      <point x="392" y="870"/>
      <point x="374" y="870" type="curve"/>
      <point x="357" y="870"/>
      <point x="346" y="860"/>
      <point x="346" y="844" type="curve"/>
      <point x="387" y="844"/>
      <point x="364" y="844"/>
      <point x="405" y="844" type="curve"/>
      <point x="405" y="827"/>
      <point x="392" y="818"/>
      <point x="374" y="818" type="curve"/>
      <point x="357" y="818"/>
      <point x="346" y="827"/>
      <point x="346" y="844" type="curve"/>
      <point x="387" y="844"/>
      <point x="364" y="844"/>
    </contour>
    <contour>
      <point x="571" y="844" type="curve"/>
      <point x="571" y="861"/>
      <point x="559" y="870"/>
      <point x="541" y="870" type="curve"/>
      <point x="523" y="870"/>
      <point x="512" y="860"/>
      <point x="512" y="844" type="curve"/>
      <point x="553" y="844"/>
      <point x="531" y="844"/>
      <point x="571" y="844" type="curve"/>
      <point x="571" y="827"/>
      <point x="559" y="818"/>
      <point x="540" y="818" type="curve"/>
      <point x="523" y="818"/>
      <point x="512" y="827"/>
      <point x="512" y="844" type="curve"/>
      <point x="553" y="844"/>
      <point x="531" y="844"/>
    </contour>
  </outline>
</glyph>
<glyph name="Thorn" format="1">
  <advance width="672"/>
  <unicode hex="00DE"/>
  <outline>
    <contour>
      <point x="137" y="224" type="curve"/>
      <point x="206" y="197"/>
      <point x="268" y="179"/>
      <point x="343" y="179" type="curve"/>
      <point x="502" y="181"/>
      <point x="625" y="246"/>
      <point x="625" y="392" type="curve"/>
      <point x="625" y="548"/>
      <point x="485" y="617"/>
      <point x="311" y="617" type="curve"/>
      <point x="256" y="617"/>
      <point x="201" y="617"/>
      <point x="146" y="617" type="curve"/>
      <point x="146" y="582"/>
      <point x="146" y="617"/>
      <point x="146" y="582" type="curve"/>
      <point x="199" y="582"/>
      <point x="252" y="582"/>
      <point x="305" y="582" type="curve"/>
      <point x="458" y="582"/>
      <point x="580" y="526"/>
      <point x="580" y="390" type="curve"/>
      <point x="580" y="270"/>
      <point x="476" y="214"/>
      <point x="344" y="214" type="curve"/>
      <point x="271" y="214"/>
      <point x="218" y="229"/>
      <point x="151" y="256" type="curve"/>
      <point x="137" y="224"/>
      <point x="151" y="256"/>
    </contour>
    <contour>
      <point x="163" y="0" type="curve"/>
      <point x="163" y="241"/>
      <point x="163" y="481"/>
      <point x="163" y="722" type="curve"/>
      <point x="119" y="722"/>
      <point x="163" y="722"/>
      <point x="119" y="722" type="curve"/>
      <point x="119" y="481"/>
      <point x="119" y="241"/>
      <point x="119" y="0" type="curve"/>
      <point x="163" y="0"/>
      <point x="119" y="0"/>
    </contour>
  </outline>
</glyph>
